G04 #@! TF.FileFunction,Legend,Top*
%FSLAX46Y46*%
G04 Gerber Fmt 4.6, Leading zero omitted, Abs format (unit mm)*
G04 Created by KiCad (PCBNEW 4.0.7) date Sat Jan 27 20:56:11 2018*
%MOMM*%
%LPD*%
G01*
G04 APERTURE LIST*
%ADD10C,0.100000*%
%ADD11C,0.120000*%
%ADD12C,0.150000*%
%ADD13C,0.127000*%
%ADD14C,0.200000*%
%ADD15C,0.152400*%
%ADD16C,0.050000*%
G04 APERTURE END LIST*
D10*
D11*
X102475000Y-77260000D02*
X102475000Y-70860000D01*
X107525000Y-77260000D02*
X107525000Y-70860000D01*
X107525000Y-77260000D02*
G75*
G02X102475000Y-77260000I-2525000J0D01*
G01*
X107525000Y-70860000D02*
G75*
G03X102475000Y-70860000I-2525000J0D01*
G01*
X109720000Y-107500462D02*
G75*
G03X104170000Y-105955170I-2990000J462D01*
G01*
X109720000Y-107499538D02*
G75*
G02X104170000Y-109044830I-2990000J-462D01*
G01*
X109230000Y-107500000D02*
G75*
G03X109230000Y-107500000I-2500000J0D01*
G01*
X104170000Y-105955000D02*
X104170000Y-109045000D01*
X97250000Y-102500000D02*
X97250000Y-104500000D01*
X97250000Y-104500000D02*
X101150000Y-104500000D01*
X97250000Y-102500000D02*
X101150000Y-102500000D01*
X96130000Y-70170000D02*
X96130000Y-72830000D01*
X98730000Y-70170000D02*
X96130000Y-70170000D01*
X98730000Y-72830000D02*
X96130000Y-72830000D01*
X98730000Y-70170000D02*
X98730000Y-72830000D01*
X100000000Y-70170000D02*
X101330000Y-70170000D01*
X101330000Y-70170000D02*
X101330000Y-71500000D01*
X126460000Y-105390000D02*
X126460000Y-107720000D01*
X111470000Y-105390000D02*
X111470000Y-107510000D01*
X126460000Y-105390000D02*
X111470000Y-105390000D01*
X126460000Y-119480000D02*
X111470000Y-119480000D01*
X126460000Y-110680000D02*
X126460000Y-119480000D01*
X111470000Y-110880000D02*
X111470000Y-119480000D01*
D12*
X115000000Y-86500000D02*
X115000000Y-104500000D01*
X115000000Y-86500000D02*
X123000000Y-86500000D01*
X123000000Y-86500000D02*
X123000000Y-104500000D01*
X115000000Y-104500000D02*
X123000000Y-104500000D01*
D11*
X125500000Y-66650000D02*
X127700000Y-66650000D01*
X125700000Y-64350000D02*
X127300000Y-64350000D01*
D12*
X136125000Y-64875000D02*
X136125000Y-65625000D01*
X130875000Y-70125000D02*
X130875000Y-69375000D01*
X136125000Y-70125000D02*
X136125000Y-69375000D01*
X130875000Y-64875000D02*
X131625000Y-64875000D01*
X130875000Y-70125000D02*
X131625000Y-70125000D01*
X136125000Y-70125000D02*
X135375000Y-70125000D01*
X136125000Y-64875000D02*
X135375000Y-64875000D01*
D11*
X101330000Y-75380000D02*
X96130000Y-75380000D01*
X101330000Y-80520000D02*
X101330000Y-75380000D01*
X96130000Y-83120000D02*
X96130000Y-75380000D01*
X101330000Y-80520000D02*
X98730000Y-80520000D01*
X98730000Y-80520000D02*
X98730000Y-83120000D01*
X98730000Y-83120000D02*
X96130000Y-83120000D01*
X101330000Y-81790000D02*
X101330000Y-83120000D01*
X101330000Y-83120000D02*
X100000000Y-83120000D01*
X109760000Y-99500462D02*
G75*
G03X104210000Y-97955170I-2990000J462D01*
G01*
X109760000Y-99499538D02*
G75*
G02X104210000Y-101044830I-2990000J-462D01*
G01*
X109270000Y-99500000D02*
G75*
G03X109270000Y-99500000I-2500000J0D01*
G01*
X104210000Y-97955000D02*
X104210000Y-101045000D01*
X109760000Y-91500462D02*
G75*
G03X104210000Y-89955170I-2990000J462D01*
G01*
X109760000Y-91499538D02*
G75*
G02X104210000Y-93044830I-2990000J-462D01*
G01*
X109270000Y-91500000D02*
G75*
G03X109270000Y-91500000I-2500000J0D01*
G01*
X104210000Y-89955000D02*
X104210000Y-93045000D01*
X113570000Y-95500000D02*
X113570000Y-97500000D01*
X111430000Y-97500000D02*
X111430000Y-95500000D01*
X113570000Y-89500000D02*
X113570000Y-91500000D01*
X111430000Y-91500000D02*
X111430000Y-89500000D01*
D13*
X139400000Y-104400000D02*
X139400000Y-104900000D01*
X139400000Y-104900000D02*
X138900000Y-104900000D01*
X138900000Y-104900000D02*
X128900000Y-104900000D01*
X128900000Y-104900000D02*
X128400000Y-104900000D01*
X128400000Y-104900000D02*
X128400000Y-104400000D01*
X139400000Y-105200000D02*
X139400000Y-105700000D01*
X139400000Y-105700000D02*
X138900000Y-105700000D01*
X138900000Y-105700000D02*
X128900000Y-105700000D01*
X128900000Y-105700000D02*
X128400000Y-105700000D01*
X128400000Y-105700000D02*
X128400000Y-105200000D01*
X128400000Y-104100000D02*
X139400000Y-104100000D01*
X138900000Y-109700000D02*
X128900000Y-109700000D01*
X139400000Y-104100000D02*
X139400000Y-104400000D01*
X139400000Y-104400000D02*
G75*
G02X138900000Y-104900000I-500000J0D01*
G01*
X139400000Y-104900000D02*
X139400000Y-105200000D01*
X139400000Y-105200000D02*
G75*
G02X138900000Y-105700000I-500000J0D01*
G01*
X139400000Y-105700000D02*
X139400000Y-109200000D01*
X139400000Y-109200000D02*
G75*
G02X138900000Y-109700000I-500000J0D01*
G01*
X128400000Y-104100000D02*
X128400000Y-104400000D01*
X128400000Y-104400000D02*
G75*
G03X128900000Y-104900000I500000J0D01*
G01*
X128400000Y-104900000D02*
X128400000Y-105200000D01*
X128400000Y-105200000D02*
G75*
G03X128900000Y-105700000I500000J0D01*
G01*
X128400000Y-105700000D02*
X128400000Y-109200000D01*
X128400000Y-109200000D02*
G75*
G03X128900000Y-109700000I500000J0D01*
G01*
X127850000Y-88150000D02*
X127400000Y-88150000D01*
X127400000Y-88150000D02*
X127400000Y-88700000D01*
X139400000Y-88150000D02*
X141250000Y-88150000D01*
X141250000Y-88150000D02*
X141250000Y-102300000D01*
D14*
X137400000Y-86900000D02*
G75*
G03X137400000Y-86900000I-250000J0D01*
G01*
D11*
X101505000Y-67185000D02*
X102895000Y-67185000D01*
X101505000Y-67185000D02*
X101505000Y-67060000D01*
X102895000Y-67185000D02*
X102895000Y-67060000D01*
X101505000Y-67185000D02*
X101591724Y-67185000D01*
X102808276Y-67185000D02*
X102895000Y-67185000D01*
X101505000Y-66500000D02*
X101505000Y-65815000D01*
X101505000Y-65815000D02*
X102200000Y-65815000D01*
X125500000Y-81930000D02*
X127500000Y-81930000D01*
X127500000Y-84070000D02*
X125500000Y-84070000D01*
X113570000Y-101500000D02*
X113570000Y-103500000D01*
X111430000Y-103500000D02*
X111430000Y-101500000D01*
X134000000Y-78570000D02*
X132000000Y-78570000D01*
X132000000Y-76430000D02*
X134000000Y-76430000D01*
X136000000Y-84070000D02*
X134000000Y-84070000D01*
X134000000Y-81930000D02*
X136000000Y-81930000D01*
X139000000Y-76430000D02*
X141000000Y-76430000D01*
X141000000Y-78570000D02*
X139000000Y-78570000D01*
D15*
X100018400Y-109109400D02*
X100323200Y-109109400D01*
X100323200Y-109109400D02*
X100932800Y-109109400D01*
X100932800Y-109109400D02*
X101237600Y-109109400D01*
D10*
X100323200Y-109109400D02*
G75*
G02X100932800Y-109109400I304800J0D01*
G01*
D11*
X108670000Y-80990000D02*
X111330000Y-80990000D01*
X108670000Y-70770000D02*
X108670000Y-80990000D01*
X111330000Y-70770000D02*
X111330000Y-80990000D01*
X108670000Y-70770000D02*
X111330000Y-70770000D01*
X108670000Y-69500000D02*
X108670000Y-68170000D01*
X108670000Y-68170000D02*
X110000000Y-68170000D01*
X117000000Y-84020000D02*
X119000000Y-84020000D01*
X119000000Y-81980000D02*
X117000000Y-81980000D01*
X97520000Y-109000000D02*
X97520000Y-107000000D01*
X95480000Y-107000000D02*
X95480000Y-109000000D01*
X100980000Y-98000000D02*
X100980000Y-100000000D01*
X103020000Y-100000000D02*
X103020000Y-98000000D01*
X107500000Y-84020000D02*
X109500000Y-84020000D01*
X109500000Y-81980000D02*
X107500000Y-81980000D01*
X109500000Y-85480000D02*
X107500000Y-85480000D01*
X107500000Y-87520000D02*
X109500000Y-87520000D01*
X114270000Y-80250000D02*
X114270000Y-78250000D01*
X112230000Y-78250000D02*
X112230000Y-80250000D01*
X120500000Y-63980000D02*
X118500000Y-63980000D01*
X118500000Y-66020000D02*
X120500000Y-66020000D01*
X134000000Y-72080000D02*
X132000000Y-72080000D01*
X132000000Y-74120000D02*
X134000000Y-74120000D01*
X141000000Y-72080000D02*
X139000000Y-72080000D01*
X139000000Y-74120000D02*
X141000000Y-74120000D01*
X112230000Y-71500000D02*
X112230000Y-73500000D01*
X114270000Y-73500000D02*
X114270000Y-71500000D01*
X96660000Y-95850000D02*
X100260000Y-95850000D01*
X96135816Y-95122795D02*
G75*
G03X96660000Y-95850000I2324184J1122795D01*
G01*
X96103600Y-92901193D02*
G75*
G02X98460000Y-91400000I2356400J-1098807D01*
G01*
X100816400Y-92901193D02*
G75*
G03X98460000Y-91400000I-2356400J-1098807D01*
G01*
X100784184Y-95122795D02*
G75*
G02X100260000Y-95850000I-2324184J1122795D01*
G01*
X106000000Y-66020000D02*
X108000000Y-66020000D01*
X108000000Y-63980000D02*
X106000000Y-63980000D01*
X111800000Y-66020000D02*
X113800000Y-66020000D01*
X113800000Y-63980000D02*
X111800000Y-63980000D01*
D12*
X124825000Y-70125000D02*
X124600000Y-70125000D01*
X124825000Y-77375000D02*
X124500000Y-77375000D01*
X117575000Y-77375000D02*
X117900000Y-77375000D01*
X117575000Y-70125000D02*
X117900000Y-70125000D01*
X124825000Y-70125000D02*
X124825000Y-70450000D01*
X117575000Y-70125000D02*
X117575000Y-70450000D01*
X117575000Y-77375000D02*
X117575000Y-77050000D01*
X124825000Y-77375000D02*
X124825000Y-77050000D01*
X124600000Y-70125000D02*
X124600000Y-68700000D01*
X96900000Y-97700000D02*
X96900000Y-97200000D01*
X96900000Y-98950000D02*
X96900000Y-98200000D01*
X96400000Y-98200000D02*
X97400000Y-98200000D01*
X96900000Y-97700000D02*
X96400000Y-98200000D01*
X97400000Y-98200000D02*
X96900000Y-97700000D01*
X97400000Y-97700000D02*
X96400000Y-97700000D01*
X98900000Y-96950000D02*
X98900000Y-100450000D01*
X94900000Y-96950000D02*
X98900000Y-96950000D01*
X94900000Y-100450000D02*
X94900000Y-96950000D01*
X98900000Y-100450000D02*
X94900000Y-100450000D01*
X99664214Y-87000000D02*
G75*
G03X99664214Y-87000000I-1414214J0D01*
G01*
X101750000Y-90000000D02*
X94750000Y-90000000D01*
X101750000Y-84000000D02*
X101750000Y-90000000D01*
X94750000Y-84000000D02*
X101750000Y-84000000D01*
X94750000Y-90000000D02*
X94750000Y-84000000D01*
X106857143Y-76161905D02*
X106904762Y-76209524D01*
X106952381Y-76352381D01*
X106952381Y-76447619D01*
X106904762Y-76590477D01*
X106809524Y-76685715D01*
X106714286Y-76733334D01*
X106523810Y-76780953D01*
X106380952Y-76780953D01*
X106190476Y-76733334D01*
X106095238Y-76685715D01*
X106000000Y-76590477D01*
X105952381Y-76447619D01*
X105952381Y-76352381D01*
X106000000Y-76209524D01*
X106047619Y-76161905D01*
X106952381Y-75733334D02*
X106285714Y-75733334D01*
X106476190Y-75733334D02*
X106380952Y-75685715D01*
X106333333Y-75638096D01*
X106285714Y-75542858D01*
X106285714Y-75447619D01*
X106285714Y-75209524D02*
X106952381Y-74971429D01*
X106285714Y-74733333D02*
X106952381Y-74971429D01*
X107190476Y-75066667D01*
X107238095Y-75114286D01*
X107285714Y-75209524D01*
X106904762Y-74400000D02*
X106952381Y-74304762D01*
X106952381Y-74114286D01*
X106904762Y-74019047D01*
X106809524Y-73971428D01*
X106761905Y-73971428D01*
X106666667Y-74019047D01*
X106619048Y-74114286D01*
X106619048Y-74257143D01*
X106571429Y-74352381D01*
X106476190Y-74400000D01*
X106428571Y-74400000D01*
X106333333Y-74352381D01*
X106285714Y-74257143D01*
X106285714Y-74114286D01*
X106333333Y-74019047D01*
X106285714Y-73685714D02*
X106285714Y-73304762D01*
X105952381Y-73542857D02*
X106809524Y-73542857D01*
X106904762Y-73495238D01*
X106952381Y-73400000D01*
X106952381Y-73304762D01*
X106952381Y-72542856D02*
X106428571Y-72542856D01*
X106333333Y-72590475D01*
X106285714Y-72685713D01*
X106285714Y-72876190D01*
X106333333Y-72971428D01*
X106904762Y-72542856D02*
X106952381Y-72638094D01*
X106952381Y-72876190D01*
X106904762Y-72971428D01*
X106809524Y-73019047D01*
X106714286Y-73019047D01*
X106619048Y-72971428D01*
X106571429Y-72876190D01*
X106571429Y-72638094D01*
X106523810Y-72542856D01*
X106952381Y-71923809D02*
X106904762Y-72019047D01*
X106809524Y-72066666D01*
X105952381Y-72066666D01*
X106952381Y-71019046D02*
X106952381Y-71590475D01*
X106952381Y-71304761D02*
X105952381Y-71304761D01*
X106095238Y-71399999D01*
X106190476Y-71495237D01*
X106238095Y-71590475D01*
X106061905Y-111952381D02*
X106061905Y-110952381D01*
X106300000Y-110952381D01*
X106442858Y-111000000D01*
X106538096Y-111095238D01*
X106585715Y-111190476D01*
X106633334Y-111380952D01*
X106633334Y-111523810D01*
X106585715Y-111714286D01*
X106538096Y-111809524D01*
X106442858Y-111904762D01*
X106300000Y-111952381D01*
X106061905Y-111952381D01*
X107585715Y-111952381D02*
X107014286Y-111952381D01*
X107300000Y-111952381D02*
X107300000Y-110952381D01*
X107204762Y-111095238D01*
X107109524Y-111190476D01*
X107014286Y-111238095D01*
X95261905Y-103952381D02*
X95261905Y-102952381D01*
X95500000Y-102952381D01*
X95642858Y-103000000D01*
X95738096Y-103095238D01*
X95785715Y-103190476D01*
X95833334Y-103380952D01*
X95833334Y-103523810D01*
X95785715Y-103714286D01*
X95738096Y-103809524D01*
X95642858Y-103904762D01*
X95500000Y-103952381D01*
X95261905Y-103952381D01*
X96214286Y-103047619D02*
X96261905Y-103000000D01*
X96357143Y-102952381D01*
X96595239Y-102952381D01*
X96690477Y-103000000D01*
X96738096Y-103047619D01*
X96785715Y-103142857D01*
X96785715Y-103238095D01*
X96738096Y-103380952D01*
X96166667Y-103952381D01*
X96785715Y-103952381D01*
X94452381Y-71833333D02*
X95166667Y-71833333D01*
X95309524Y-71880953D01*
X95404762Y-71976191D01*
X95452381Y-72119048D01*
X95452381Y-72214286D01*
X95452381Y-70833333D02*
X95452381Y-71404762D01*
X95452381Y-71119048D02*
X94452381Y-71119048D01*
X94595238Y-71214286D01*
X94690476Y-71309524D01*
X94738095Y-71404762D01*
X118166667Y-112952381D02*
X118166667Y-113666667D01*
X118119047Y-113809524D01*
X118023809Y-113904762D01*
X117880952Y-113952381D01*
X117785714Y-113952381D01*
X118595238Y-113047619D02*
X118642857Y-113000000D01*
X118738095Y-112952381D01*
X118976191Y-112952381D01*
X119071429Y-113000000D01*
X119119048Y-113047619D01*
X119166667Y-113142857D01*
X119166667Y-113238095D01*
X119119048Y-113380952D01*
X118547619Y-113952381D01*
X119166667Y-113952381D01*
X124404762Y-97690476D02*
X124452381Y-97547619D01*
X124452381Y-97309523D01*
X124404762Y-97214285D01*
X124357143Y-97166666D01*
X124261905Y-97119047D01*
X124166667Y-97119047D01*
X124071429Y-97166666D01*
X124023810Y-97214285D01*
X123976190Y-97309523D01*
X123928571Y-97500000D01*
X123880952Y-97595238D01*
X123833333Y-97642857D01*
X123738095Y-97690476D01*
X123642857Y-97690476D01*
X123547619Y-97642857D01*
X123500000Y-97595238D01*
X123452381Y-97500000D01*
X123452381Y-97261904D01*
X123500000Y-97119047D01*
X123785714Y-96785714D02*
X124452381Y-96595238D01*
X123976190Y-96404761D01*
X124452381Y-96214285D01*
X123785714Y-96023809D01*
X124452381Y-95642857D02*
X123785714Y-95642857D01*
X123452381Y-95642857D02*
X123500000Y-95690476D01*
X123547619Y-95642857D01*
X123500000Y-95595238D01*
X123452381Y-95642857D01*
X123547619Y-95642857D01*
X123785714Y-95309524D02*
X123785714Y-94928572D01*
X123452381Y-95166667D02*
X124309524Y-95166667D01*
X124404762Y-95119048D01*
X124452381Y-95023810D01*
X124452381Y-94928572D01*
X124404762Y-94166666D02*
X124452381Y-94261904D01*
X124452381Y-94452381D01*
X124404762Y-94547619D01*
X124357143Y-94595238D01*
X124261905Y-94642857D01*
X123976190Y-94642857D01*
X123880952Y-94595238D01*
X123833333Y-94547619D01*
X123785714Y-94452381D01*
X123785714Y-94261904D01*
X123833333Y-94166666D01*
X124452381Y-93738095D02*
X123452381Y-93738095D01*
X124452381Y-93309523D02*
X123928571Y-93309523D01*
X123833333Y-93357142D01*
X123785714Y-93452380D01*
X123785714Y-93595238D01*
X123833333Y-93690476D01*
X123880952Y-93738095D01*
X124452381Y-92309523D02*
X124452381Y-92880952D01*
X124452381Y-92595238D02*
X123452381Y-92595238D01*
X123595238Y-92690476D01*
X123690476Y-92785714D01*
X123738095Y-92880952D01*
X125285714Y-67766667D02*
X125761905Y-67766667D01*
X125190476Y-68052381D02*
X125523809Y-67052381D01*
X125857143Y-68052381D01*
X126761905Y-67957143D02*
X126714286Y-68004762D01*
X126571429Y-68052381D01*
X126476191Y-68052381D01*
X126333333Y-68004762D01*
X126238095Y-67909524D01*
X126190476Y-67814286D01*
X126142857Y-67623810D01*
X126142857Y-67480952D01*
X126190476Y-67290476D01*
X126238095Y-67195238D01*
X126333333Y-67100000D01*
X126476191Y-67052381D01*
X126571429Y-67052381D01*
X126714286Y-67100000D01*
X126761905Y-67147619D01*
X127714286Y-68052381D02*
X127142857Y-68052381D01*
X127428571Y-68052381D02*
X127428571Y-67052381D01*
X127333333Y-67195238D01*
X127238095Y-67290476D01*
X127142857Y-67338095D01*
X132738095Y-63077381D02*
X132738095Y-63886905D01*
X132785714Y-63982143D01*
X132833333Y-64029762D01*
X132928571Y-64077381D01*
X133119048Y-64077381D01*
X133214286Y-64029762D01*
X133261905Y-63982143D01*
X133309524Y-63886905D01*
X133309524Y-63077381D01*
X133738095Y-63172619D02*
X133785714Y-63125000D01*
X133880952Y-63077381D01*
X134119048Y-63077381D01*
X134214286Y-63125000D01*
X134261905Y-63172619D01*
X134309524Y-63267857D01*
X134309524Y-63363095D01*
X134261905Y-63505952D01*
X133690476Y-64077381D01*
X134309524Y-64077381D01*
X95317143Y-80464285D02*
X95364762Y-80511904D01*
X95412381Y-80654761D01*
X95412381Y-80749999D01*
X95364762Y-80892857D01*
X95269524Y-80988095D01*
X95174286Y-81035714D01*
X94983810Y-81083333D01*
X94840952Y-81083333D01*
X94650476Y-81035714D01*
X94555238Y-80988095D01*
X94460000Y-80892857D01*
X94412381Y-80749999D01*
X94412381Y-80654761D01*
X94460000Y-80511904D01*
X94507619Y-80464285D01*
X94412381Y-79845238D02*
X94412381Y-79654761D01*
X94460000Y-79559523D01*
X94555238Y-79464285D01*
X94745714Y-79416666D01*
X95079048Y-79416666D01*
X95269524Y-79464285D01*
X95364762Y-79559523D01*
X95412381Y-79654761D01*
X95412381Y-79845238D01*
X95364762Y-79940476D01*
X95269524Y-80035714D01*
X95079048Y-80083333D01*
X94745714Y-80083333D01*
X94555238Y-80035714D01*
X94460000Y-79940476D01*
X94412381Y-79845238D01*
X95412381Y-78988095D02*
X94412381Y-78988095D01*
X95412381Y-78416666D01*
X94412381Y-78416666D01*
X95412381Y-77416666D02*
X95412381Y-77988095D01*
X95412381Y-77702381D02*
X94412381Y-77702381D01*
X94555238Y-77797619D01*
X94650476Y-77892857D01*
X94698095Y-77988095D01*
X106061905Y-103952381D02*
X106061905Y-102952381D01*
X106300000Y-102952381D01*
X106442858Y-103000000D01*
X106538096Y-103095238D01*
X106585715Y-103190476D01*
X106633334Y-103380952D01*
X106633334Y-103523810D01*
X106585715Y-103714286D01*
X106538096Y-103809524D01*
X106442858Y-103904762D01*
X106300000Y-103952381D01*
X106061905Y-103952381D01*
X106966667Y-102952381D02*
X107585715Y-102952381D01*
X107252381Y-103333333D01*
X107395239Y-103333333D01*
X107490477Y-103380952D01*
X107538096Y-103428571D01*
X107585715Y-103523810D01*
X107585715Y-103761905D01*
X107538096Y-103857143D01*
X107490477Y-103904762D01*
X107395239Y-103952381D01*
X107109524Y-103952381D01*
X107014286Y-103904762D01*
X106966667Y-103857143D01*
X106061905Y-95952381D02*
X106061905Y-94952381D01*
X106300000Y-94952381D01*
X106442858Y-95000000D01*
X106538096Y-95095238D01*
X106585715Y-95190476D01*
X106633334Y-95380952D01*
X106633334Y-95523810D01*
X106585715Y-95714286D01*
X106538096Y-95809524D01*
X106442858Y-95904762D01*
X106300000Y-95952381D01*
X106061905Y-95952381D01*
X107490477Y-95285714D02*
X107490477Y-95952381D01*
X107252381Y-94904762D02*
X107014286Y-95619048D01*
X107633334Y-95619048D01*
X114752381Y-96666666D02*
X114276190Y-97000000D01*
X114752381Y-97238095D02*
X113752381Y-97238095D01*
X113752381Y-96857142D01*
X113800000Y-96761904D01*
X113847619Y-96714285D01*
X113942857Y-96666666D01*
X114085714Y-96666666D01*
X114180952Y-96714285D01*
X114228571Y-96761904D01*
X114276190Y-96857142D01*
X114276190Y-97238095D01*
X113752381Y-95809523D02*
X113752381Y-96000000D01*
X113800000Y-96095238D01*
X113847619Y-96142857D01*
X113990476Y-96238095D01*
X114180952Y-96285714D01*
X114561905Y-96285714D01*
X114657143Y-96238095D01*
X114704762Y-96190476D01*
X114752381Y-96095238D01*
X114752381Y-95904761D01*
X114704762Y-95809523D01*
X114657143Y-95761904D01*
X114561905Y-95714285D01*
X114323810Y-95714285D01*
X114228571Y-95761904D01*
X114180952Y-95809523D01*
X114133333Y-95904761D01*
X114133333Y-96095238D01*
X114180952Y-96190476D01*
X114228571Y-96238095D01*
X114323810Y-96285714D01*
X114752381Y-90716666D02*
X114276190Y-91050000D01*
X114752381Y-91288095D02*
X113752381Y-91288095D01*
X113752381Y-90907142D01*
X113800000Y-90811904D01*
X113847619Y-90764285D01*
X113942857Y-90716666D01*
X114085714Y-90716666D01*
X114180952Y-90764285D01*
X114228571Y-90811904D01*
X114276190Y-90907142D01*
X114276190Y-91288095D01*
X113752381Y-90383333D02*
X113752381Y-89716666D01*
X114752381Y-90145238D01*
D16*
X132934915Y-99005782D02*
X133078132Y-99053521D01*
X133316828Y-99053521D01*
X133412306Y-99005782D01*
X133460045Y-98958043D01*
X133507784Y-98862565D01*
X133507784Y-98767087D01*
X133460045Y-98671609D01*
X133412306Y-98623870D01*
X133316828Y-98576130D01*
X133125871Y-98528391D01*
X133030393Y-98480652D01*
X132982654Y-98432913D01*
X132934915Y-98337435D01*
X132934915Y-98241957D01*
X132982654Y-98146479D01*
X133030393Y-98098740D01*
X133125871Y-98051001D01*
X133364567Y-98051001D01*
X133507784Y-98098740D01*
X133937435Y-99053521D02*
X133937435Y-98051001D01*
X134176130Y-98051001D01*
X134319348Y-98098740D01*
X134414826Y-98194218D01*
X134462565Y-98289696D01*
X134510304Y-98480652D01*
X134510304Y-98623870D01*
X134462565Y-98814826D01*
X134414826Y-98910304D01*
X134319348Y-99005782D01*
X134176130Y-99053521D01*
X133937435Y-99053521D01*
X135465085Y-99053521D02*
X134892216Y-99053521D01*
X135178650Y-99053521D02*
X135178650Y-98051001D01*
X135083172Y-98194218D01*
X134987694Y-98289696D01*
X134892216Y-98337435D01*
D12*
X101866667Y-64152381D02*
X101866667Y-64866667D01*
X101819047Y-65009524D01*
X101723809Y-65104762D01*
X101580952Y-65152381D01*
X101485714Y-65152381D01*
X102771429Y-64485714D02*
X102771429Y-65152381D01*
X102533333Y-64104762D02*
X102295238Y-64819048D01*
X102914286Y-64819048D01*
X126333334Y-85452381D02*
X126000000Y-84976190D01*
X125761905Y-85452381D02*
X125761905Y-84452381D01*
X126142858Y-84452381D01*
X126238096Y-84500000D01*
X126285715Y-84547619D01*
X126333334Y-84642857D01*
X126333334Y-84785714D01*
X126285715Y-84880952D01*
X126238096Y-84928571D01*
X126142858Y-84976190D01*
X125761905Y-84976190D01*
X127285715Y-85452381D02*
X126714286Y-85452381D01*
X127000000Y-85452381D02*
X127000000Y-84452381D01*
X126904762Y-84595238D01*
X126809524Y-84690476D01*
X126714286Y-84738095D01*
X114752381Y-102666666D02*
X114276190Y-103000000D01*
X114752381Y-103238095D02*
X113752381Y-103238095D01*
X113752381Y-102857142D01*
X113800000Y-102761904D01*
X113847619Y-102714285D01*
X113942857Y-102666666D01*
X114085714Y-102666666D01*
X114180952Y-102714285D01*
X114228571Y-102761904D01*
X114276190Y-102857142D01*
X114276190Y-103238095D01*
X113847619Y-102285714D02*
X113800000Y-102238095D01*
X113752381Y-102142857D01*
X113752381Y-101904761D01*
X113800000Y-101809523D01*
X113847619Y-101761904D01*
X113942857Y-101714285D01*
X114038095Y-101714285D01*
X114180952Y-101761904D01*
X114752381Y-102333333D01*
X114752381Y-101714285D01*
X132833334Y-79952381D02*
X132500000Y-79476190D01*
X132261905Y-79952381D02*
X132261905Y-78952381D01*
X132642858Y-78952381D01*
X132738096Y-79000000D01*
X132785715Y-79047619D01*
X132833334Y-79142857D01*
X132833334Y-79285714D01*
X132785715Y-79380952D01*
X132738096Y-79428571D01*
X132642858Y-79476190D01*
X132261905Y-79476190D01*
X133166667Y-78952381D02*
X133785715Y-78952381D01*
X133452381Y-79333333D01*
X133595239Y-79333333D01*
X133690477Y-79380952D01*
X133738096Y-79428571D01*
X133785715Y-79523810D01*
X133785715Y-79761905D01*
X133738096Y-79857143D01*
X133690477Y-79904762D01*
X133595239Y-79952381D01*
X133309524Y-79952381D01*
X133214286Y-79904762D01*
X133166667Y-79857143D01*
X134833334Y-85452381D02*
X134500000Y-84976190D01*
X134261905Y-85452381D02*
X134261905Y-84452381D01*
X134642858Y-84452381D01*
X134738096Y-84500000D01*
X134785715Y-84547619D01*
X134833334Y-84642857D01*
X134833334Y-84785714D01*
X134785715Y-84880952D01*
X134738096Y-84928571D01*
X134642858Y-84976190D01*
X134261905Y-84976190D01*
X135690477Y-84785714D02*
X135690477Y-85452381D01*
X135452381Y-84404762D02*
X135214286Y-85119048D01*
X135833334Y-85119048D01*
X139833334Y-79952381D02*
X139500000Y-79476190D01*
X139261905Y-79952381D02*
X139261905Y-78952381D01*
X139642858Y-78952381D01*
X139738096Y-79000000D01*
X139785715Y-79047619D01*
X139833334Y-79142857D01*
X139833334Y-79285714D01*
X139785715Y-79380952D01*
X139738096Y-79428571D01*
X139642858Y-79476190D01*
X139261905Y-79476190D01*
X140738096Y-78952381D02*
X140261905Y-78952381D01*
X140214286Y-79428571D01*
X140261905Y-79380952D01*
X140357143Y-79333333D01*
X140595239Y-79333333D01*
X140690477Y-79380952D01*
X140738096Y-79428571D01*
X140785715Y-79523810D01*
X140785715Y-79761905D01*
X140738096Y-79857143D01*
X140690477Y-79904762D01*
X140595239Y-79952381D01*
X140357143Y-79952381D01*
X140261905Y-79904762D01*
X140214286Y-79857143D01*
D16*
X99648221Y-109400284D02*
X99648221Y-110730299D01*
X99726457Y-110886771D01*
X99804693Y-110965008D01*
X99961166Y-111043244D01*
X100274110Y-111043244D01*
X100430583Y-110965008D01*
X100508819Y-110886771D01*
X100587055Y-110730299D01*
X100587055Y-109400284D01*
X102230015Y-111043244D02*
X101291181Y-111043244D01*
X101760598Y-111043244D02*
X101760598Y-109400284D01*
X101604126Y-109634992D01*
X101447653Y-109791465D01*
X101291181Y-109869701D01*
D12*
X106916667Y-80452381D02*
X106916667Y-81166667D01*
X106869047Y-81309524D01*
X106773809Y-81404762D01*
X106630952Y-81452381D01*
X106535714Y-81452381D01*
X107297619Y-80452381D02*
X107916667Y-80452381D01*
X107583333Y-80833333D01*
X107726191Y-80833333D01*
X107821429Y-80880952D01*
X107869048Y-80928571D01*
X107916667Y-81023810D01*
X107916667Y-81261905D01*
X107869048Y-81357143D01*
X107821429Y-81404762D01*
X107726191Y-81452381D01*
X107440476Y-81452381D01*
X107345238Y-81404762D01*
X107297619Y-81357143D01*
X117833334Y-85257143D02*
X117785715Y-85304762D01*
X117642858Y-85352381D01*
X117547620Y-85352381D01*
X117404762Y-85304762D01*
X117309524Y-85209524D01*
X117261905Y-85114286D01*
X117214286Y-84923810D01*
X117214286Y-84780952D01*
X117261905Y-84590476D01*
X117309524Y-84495238D01*
X117404762Y-84400000D01*
X117547620Y-84352381D01*
X117642858Y-84352381D01*
X117785715Y-84400000D01*
X117833334Y-84447619D01*
X118785715Y-85352381D02*
X118214286Y-85352381D01*
X118500000Y-85352381D02*
X118500000Y-84352381D01*
X118404762Y-84495238D01*
X118309524Y-84590476D01*
X118214286Y-84638095D01*
X98757143Y-108166666D02*
X98804762Y-108214285D01*
X98852381Y-108357142D01*
X98852381Y-108452380D01*
X98804762Y-108595238D01*
X98709524Y-108690476D01*
X98614286Y-108738095D01*
X98423810Y-108785714D01*
X98280952Y-108785714D01*
X98090476Y-108738095D01*
X97995238Y-108690476D01*
X97900000Y-108595238D01*
X97852381Y-108452380D01*
X97852381Y-108357142D01*
X97900000Y-108214285D01*
X97947619Y-108166666D01*
X97947619Y-107785714D02*
X97900000Y-107738095D01*
X97852381Y-107642857D01*
X97852381Y-107404761D01*
X97900000Y-107309523D01*
X97947619Y-107261904D01*
X98042857Y-107214285D01*
X98138095Y-107214285D01*
X98280952Y-107261904D01*
X98852381Y-107833333D01*
X98852381Y-107214285D01*
X102357143Y-102666666D02*
X102404762Y-102714285D01*
X102452381Y-102857142D01*
X102452381Y-102952380D01*
X102404762Y-103095238D01*
X102309524Y-103190476D01*
X102214286Y-103238095D01*
X102023810Y-103285714D01*
X101880952Y-103285714D01*
X101690476Y-103238095D01*
X101595238Y-103190476D01*
X101500000Y-103095238D01*
X101452381Y-102952380D01*
X101452381Y-102857142D01*
X101500000Y-102714285D01*
X101547619Y-102666666D01*
X101452381Y-102333333D02*
X101452381Y-101714285D01*
X101833333Y-102047619D01*
X101833333Y-101904761D01*
X101880952Y-101809523D01*
X101928571Y-101761904D01*
X102023810Y-101714285D01*
X102261905Y-101714285D01*
X102357143Y-101761904D01*
X102404762Y-101809523D01*
X102452381Y-101904761D01*
X102452381Y-102190476D01*
X102404762Y-102285714D01*
X102357143Y-102333333D01*
X104833334Y-83357143D02*
X104785715Y-83404762D01*
X104642858Y-83452381D01*
X104547620Y-83452381D01*
X104404762Y-83404762D01*
X104309524Y-83309524D01*
X104261905Y-83214286D01*
X104214286Y-83023810D01*
X104214286Y-82880952D01*
X104261905Y-82690476D01*
X104309524Y-82595238D01*
X104404762Y-82500000D01*
X104547620Y-82452381D01*
X104642858Y-82452381D01*
X104785715Y-82500000D01*
X104833334Y-82547619D01*
X105690477Y-82785714D02*
X105690477Y-83452381D01*
X105452381Y-82404762D02*
X105214286Y-83119048D01*
X105833334Y-83119048D01*
X111833334Y-86857143D02*
X111785715Y-86904762D01*
X111642858Y-86952381D01*
X111547620Y-86952381D01*
X111404762Y-86904762D01*
X111309524Y-86809524D01*
X111261905Y-86714286D01*
X111214286Y-86523810D01*
X111214286Y-86380952D01*
X111261905Y-86190476D01*
X111309524Y-86095238D01*
X111404762Y-86000000D01*
X111547620Y-85952381D01*
X111642858Y-85952381D01*
X111785715Y-86000000D01*
X111833334Y-86047619D01*
X112738096Y-85952381D02*
X112261905Y-85952381D01*
X112214286Y-86428571D01*
X112261905Y-86380952D01*
X112357143Y-86333333D01*
X112595239Y-86333333D01*
X112690477Y-86380952D01*
X112738096Y-86428571D01*
X112785715Y-86523810D01*
X112785715Y-86761905D01*
X112738096Y-86857143D01*
X112690477Y-86904762D01*
X112595239Y-86952381D01*
X112357143Y-86952381D01*
X112261905Y-86904762D01*
X112214286Y-86857143D01*
X113083334Y-82607143D02*
X113035715Y-82654762D01*
X112892858Y-82702381D01*
X112797620Y-82702381D01*
X112654762Y-82654762D01*
X112559524Y-82559524D01*
X112511905Y-82464286D01*
X112464286Y-82273810D01*
X112464286Y-82130952D01*
X112511905Y-81940476D01*
X112559524Y-81845238D01*
X112654762Y-81750000D01*
X112797620Y-81702381D01*
X112892858Y-81702381D01*
X113035715Y-81750000D01*
X113083334Y-81797619D01*
X113940477Y-81702381D02*
X113750000Y-81702381D01*
X113654762Y-81750000D01*
X113607143Y-81797619D01*
X113511905Y-81940476D01*
X113464286Y-82130952D01*
X113464286Y-82511905D01*
X113511905Y-82607143D01*
X113559524Y-82654762D01*
X113654762Y-82702381D01*
X113845239Y-82702381D01*
X113940477Y-82654762D01*
X113988096Y-82607143D01*
X114035715Y-82511905D01*
X114035715Y-82273810D01*
X113988096Y-82178571D01*
X113940477Y-82130952D01*
X113845239Y-82083333D01*
X113654762Y-82083333D01*
X113559524Y-82130952D01*
X113511905Y-82178571D01*
X113464286Y-82273810D01*
X119333334Y-67357143D02*
X119285715Y-67404762D01*
X119142858Y-67452381D01*
X119047620Y-67452381D01*
X118904762Y-67404762D01*
X118809524Y-67309524D01*
X118761905Y-67214286D01*
X118714286Y-67023810D01*
X118714286Y-66880952D01*
X118761905Y-66690476D01*
X118809524Y-66595238D01*
X118904762Y-66500000D01*
X119047620Y-66452381D01*
X119142858Y-66452381D01*
X119285715Y-66500000D01*
X119333334Y-66547619D01*
X119666667Y-66452381D02*
X120333334Y-66452381D01*
X119904762Y-67452381D01*
X132833334Y-75357143D02*
X132785715Y-75404762D01*
X132642858Y-75452381D01*
X132547620Y-75452381D01*
X132404762Y-75404762D01*
X132309524Y-75309524D01*
X132261905Y-75214286D01*
X132214286Y-75023810D01*
X132214286Y-74880952D01*
X132261905Y-74690476D01*
X132309524Y-74595238D01*
X132404762Y-74500000D01*
X132547620Y-74452381D01*
X132642858Y-74452381D01*
X132785715Y-74500000D01*
X132833334Y-74547619D01*
X133404762Y-74880952D02*
X133309524Y-74833333D01*
X133261905Y-74785714D01*
X133214286Y-74690476D01*
X133214286Y-74642857D01*
X133261905Y-74547619D01*
X133309524Y-74500000D01*
X133404762Y-74452381D01*
X133595239Y-74452381D01*
X133690477Y-74500000D01*
X133738096Y-74547619D01*
X133785715Y-74642857D01*
X133785715Y-74690476D01*
X133738096Y-74785714D01*
X133690477Y-74833333D01*
X133595239Y-74880952D01*
X133404762Y-74880952D01*
X133309524Y-74928571D01*
X133261905Y-74976190D01*
X133214286Y-75071429D01*
X133214286Y-75261905D01*
X133261905Y-75357143D01*
X133309524Y-75404762D01*
X133404762Y-75452381D01*
X133595239Y-75452381D01*
X133690477Y-75404762D01*
X133738096Y-75357143D01*
X133785715Y-75261905D01*
X133785715Y-75071429D01*
X133738096Y-74976190D01*
X133690477Y-74928571D01*
X133595239Y-74880952D01*
X139833334Y-75457143D02*
X139785715Y-75504762D01*
X139642858Y-75552381D01*
X139547620Y-75552381D01*
X139404762Y-75504762D01*
X139309524Y-75409524D01*
X139261905Y-75314286D01*
X139214286Y-75123810D01*
X139214286Y-74980952D01*
X139261905Y-74790476D01*
X139309524Y-74695238D01*
X139404762Y-74600000D01*
X139547620Y-74552381D01*
X139642858Y-74552381D01*
X139785715Y-74600000D01*
X139833334Y-74647619D01*
X140309524Y-75552381D02*
X140500000Y-75552381D01*
X140595239Y-75504762D01*
X140642858Y-75457143D01*
X140738096Y-75314286D01*
X140785715Y-75123810D01*
X140785715Y-74742857D01*
X140738096Y-74647619D01*
X140690477Y-74600000D01*
X140595239Y-74552381D01*
X140404762Y-74552381D01*
X140309524Y-74600000D01*
X140261905Y-74647619D01*
X140214286Y-74742857D01*
X140214286Y-74980952D01*
X140261905Y-75076190D01*
X140309524Y-75123810D01*
X140404762Y-75171429D01*
X140595239Y-75171429D01*
X140690477Y-75123810D01*
X140738096Y-75076190D01*
X140785715Y-74980952D01*
X112607143Y-75857143D02*
X112559524Y-75904762D01*
X112416667Y-75952381D01*
X112321429Y-75952381D01*
X112178571Y-75904762D01*
X112083333Y-75809524D01*
X112035714Y-75714286D01*
X111988095Y-75523810D01*
X111988095Y-75380952D01*
X112035714Y-75190476D01*
X112083333Y-75095238D01*
X112178571Y-75000000D01*
X112321429Y-74952381D01*
X112416667Y-74952381D01*
X112559524Y-75000000D01*
X112607143Y-75047619D01*
X113559524Y-75952381D02*
X112988095Y-75952381D01*
X113273809Y-75952381D02*
X113273809Y-74952381D01*
X113178571Y-75095238D01*
X113083333Y-75190476D01*
X112988095Y-75238095D01*
X114178571Y-74952381D02*
X114273810Y-74952381D01*
X114369048Y-75000000D01*
X114416667Y-75047619D01*
X114464286Y-75142857D01*
X114511905Y-75333333D01*
X114511905Y-75571429D01*
X114464286Y-75761905D01*
X114416667Y-75857143D01*
X114369048Y-75904762D01*
X114273810Y-75952381D01*
X114178571Y-75952381D01*
X114083333Y-75904762D01*
X114035714Y-75857143D01*
X113988095Y-75761905D01*
X113940476Y-75571429D01*
X113940476Y-75333333D01*
X113988095Y-75142857D01*
X114035714Y-75047619D01*
X114083333Y-75000000D01*
X114178571Y-74952381D01*
X99509524Y-90452381D02*
X99842857Y-91452381D01*
X100176191Y-90452381D01*
X101080953Y-91452381D02*
X100747619Y-90976190D01*
X100509524Y-91452381D02*
X100509524Y-90452381D01*
X100890477Y-90452381D01*
X100985715Y-90500000D01*
X101033334Y-90547619D01*
X101080953Y-90642857D01*
X101080953Y-90785714D01*
X101033334Y-90880952D01*
X100985715Y-90928571D01*
X100890477Y-90976190D01*
X100509524Y-90976190D01*
X101890477Y-91404762D02*
X101795239Y-91452381D01*
X101604762Y-91452381D01*
X101509524Y-91404762D01*
X101461905Y-91309524D01*
X101461905Y-90928571D01*
X101509524Y-90833333D01*
X101604762Y-90785714D01*
X101795239Y-90785714D01*
X101890477Y-90833333D01*
X101938096Y-90928571D01*
X101938096Y-91023810D01*
X101461905Y-91119048D01*
X102795239Y-90785714D02*
X102795239Y-91595238D01*
X102747620Y-91690476D01*
X102700001Y-91738095D01*
X102604762Y-91785714D01*
X102461905Y-91785714D01*
X102366667Y-91738095D01*
X102795239Y-91404762D02*
X102700001Y-91452381D01*
X102509524Y-91452381D01*
X102414286Y-91404762D01*
X102366667Y-91357143D01*
X102319048Y-91261905D01*
X102319048Y-90976190D01*
X102366667Y-90880952D01*
X102414286Y-90833333D01*
X102509524Y-90785714D01*
X102700001Y-90785714D01*
X102795239Y-90833333D01*
X103795239Y-91452381D02*
X103223810Y-91452381D01*
X103509524Y-91452381D02*
X103509524Y-90452381D01*
X103414286Y-90595238D01*
X103319048Y-90690476D01*
X103223810Y-90738095D01*
X106357143Y-67357143D02*
X106309524Y-67404762D01*
X106166667Y-67452381D01*
X106071429Y-67452381D01*
X105928571Y-67404762D01*
X105833333Y-67309524D01*
X105785714Y-67214286D01*
X105738095Y-67023810D01*
X105738095Y-66880952D01*
X105785714Y-66690476D01*
X105833333Y-66595238D01*
X105928571Y-66500000D01*
X106071429Y-66452381D01*
X106166667Y-66452381D01*
X106309524Y-66500000D01*
X106357143Y-66547619D01*
X107309524Y-67452381D02*
X106738095Y-67452381D01*
X107023809Y-67452381D02*
X107023809Y-66452381D01*
X106928571Y-66595238D01*
X106833333Y-66690476D01*
X106738095Y-66738095D01*
X108261905Y-67452381D02*
X107690476Y-67452381D01*
X107976190Y-67452381D02*
X107976190Y-66452381D01*
X107880952Y-66595238D01*
X107785714Y-66690476D01*
X107690476Y-66738095D01*
X112157143Y-67357143D02*
X112109524Y-67404762D01*
X111966667Y-67452381D01*
X111871429Y-67452381D01*
X111728571Y-67404762D01*
X111633333Y-67309524D01*
X111585714Y-67214286D01*
X111538095Y-67023810D01*
X111538095Y-66880952D01*
X111585714Y-66690476D01*
X111633333Y-66595238D01*
X111728571Y-66500000D01*
X111871429Y-66452381D01*
X111966667Y-66452381D01*
X112109524Y-66500000D01*
X112157143Y-66547619D01*
X113109524Y-67452381D02*
X112538095Y-67452381D01*
X112823809Y-67452381D02*
X112823809Y-66452381D01*
X112728571Y-66595238D01*
X112633333Y-66690476D01*
X112538095Y-66738095D01*
X113490476Y-66547619D02*
X113538095Y-66500000D01*
X113633333Y-66452381D01*
X113871429Y-66452381D01*
X113966667Y-66500000D01*
X114014286Y-66547619D01*
X114061905Y-66642857D01*
X114061905Y-66738095D01*
X114014286Y-66880952D01*
X113442857Y-67452381D01*
X114061905Y-67452381D01*
X96904762Y-101797619D02*
X96809524Y-101750000D01*
X96714286Y-101654762D01*
X96571429Y-101511905D01*
X96476190Y-101464286D01*
X96380952Y-101464286D01*
X96428571Y-101702381D02*
X96333333Y-101654762D01*
X96238095Y-101559524D01*
X96190476Y-101369048D01*
X96190476Y-101035714D01*
X96238095Y-100845238D01*
X96333333Y-100750000D01*
X96428571Y-100702381D01*
X96619048Y-100702381D01*
X96714286Y-100750000D01*
X96809524Y-100845238D01*
X96857143Y-101035714D01*
X96857143Y-101369048D01*
X96809524Y-101559524D01*
X96714286Y-101654762D01*
X96619048Y-101702381D01*
X96428571Y-101702381D01*
X97809524Y-101702381D02*
X97238095Y-101702381D01*
X97523809Y-101702381D02*
X97523809Y-100702381D01*
X97428571Y-100845238D01*
X97333333Y-100940476D01*
X97238095Y-100988095D01*
X95285714Y-99053571D02*
X95392857Y-99089286D01*
X95571428Y-99089286D01*
X95642857Y-99053571D01*
X95678571Y-99017857D01*
X95714286Y-98946429D01*
X95714286Y-98875000D01*
X95678571Y-98803571D01*
X95642857Y-98767857D01*
X95571428Y-98732143D01*
X95428571Y-98696429D01*
X95357143Y-98660714D01*
X95321428Y-98625000D01*
X95285714Y-98553571D01*
X95285714Y-98482143D01*
X95321428Y-98410714D01*
X95357143Y-98375000D01*
X95428571Y-98339286D01*
X95607143Y-98339286D01*
X95714286Y-98375000D01*
X98446429Y-98375000D02*
X98375000Y-98339286D01*
X98267857Y-98339286D01*
X98160714Y-98375000D01*
X98089286Y-98446429D01*
X98053571Y-98517857D01*
X98017857Y-98660714D01*
X98017857Y-98767857D01*
X98053571Y-98910714D01*
X98089286Y-98982143D01*
X98160714Y-99053571D01*
X98267857Y-99089286D01*
X98339286Y-99089286D01*
X98446429Y-99053571D01*
X98482143Y-99017857D01*
X98482143Y-98767857D01*
X98339286Y-98767857D01*
X97553571Y-100089286D02*
X97553571Y-99339286D01*
X97732143Y-99339286D01*
X97839286Y-99375000D01*
X97910714Y-99446429D01*
X97946429Y-99517857D01*
X97982143Y-99660714D01*
X97982143Y-99767857D01*
X97946429Y-99910714D01*
X97910714Y-99982143D01*
X97839286Y-100053571D01*
X97732143Y-100089286D01*
X97553571Y-100089286D01*
X102166667Y-86904762D02*
X102309524Y-86952381D01*
X102547620Y-86952381D01*
X102642858Y-86904762D01*
X102690477Y-86857143D01*
X102738096Y-86761905D01*
X102738096Y-86666667D01*
X102690477Y-86571429D01*
X102642858Y-86523810D01*
X102547620Y-86476190D01*
X102357143Y-86428571D01*
X102261905Y-86380952D01*
X102214286Y-86333333D01*
X102166667Y-86238095D01*
X102166667Y-86142857D01*
X102214286Y-86047619D01*
X102261905Y-86000000D01*
X102357143Y-85952381D01*
X102595239Y-85952381D01*
X102738096Y-86000000D01*
X103071429Y-85952381D02*
X103309524Y-86952381D01*
X103500001Y-86238095D01*
X103690477Y-86952381D01*
X103928572Y-85952381D01*
X104833334Y-86952381D02*
X104261905Y-86952381D01*
X104547619Y-86952381D02*
X104547619Y-85952381D01*
X104452381Y-86095238D01*
X104357143Y-86190476D01*
X104261905Y-86238095D01*
X100297619Y-85285714D02*
X100250000Y-85238095D01*
X100202381Y-85142857D01*
X100202381Y-84904761D01*
X100250000Y-84809523D01*
X100297619Y-84761904D01*
X100392857Y-84714285D01*
X100488095Y-84714285D01*
X100630952Y-84761904D01*
X101202381Y-85333333D01*
X101202381Y-84714285D01*
X96202381Y-84714285D02*
X96202381Y-85285714D01*
X96202381Y-85000000D02*
X95202381Y-85000000D01*
X95345238Y-85095238D01*
X95440476Y-85190476D01*
X95488095Y-85285714D01*
M02*
