G04 #@! TF.FileFunction,Soldermask,Bot*
%FSLAX46Y46*%
G04 Gerber Fmt 4.6, Leading zero omitted, Abs format (unit mm)*
G04 Created by KiCad (PCBNEW 4.0.7) date Sat Jan 27 20:56:11 2018*
%MOMM*%
%LPD*%
G01*
G04 APERTURE LIST*
%ADD10C,0.100000*%
G04 APERTURE END LIST*
D10*
G36*
X112007551Y-107700997D02*
X112295710Y-107760148D01*
X112566888Y-107874140D01*
X112810766Y-108038638D01*
X113018042Y-108247366D01*
X113180834Y-108492387D01*
X113292928Y-108764350D01*
X113349999Y-109052574D01*
X113349999Y-109052588D01*
X113350064Y-109052917D01*
X113345373Y-109388910D01*
X113345297Y-109389244D01*
X113345297Y-109389255D01*
X113280203Y-109675764D01*
X113160554Y-109944500D01*
X112990992Y-110184872D01*
X112777959Y-110387740D01*
X112529591Y-110545358D01*
X112255332Y-110651738D01*
X111965638Y-110702818D01*
X111671537Y-110696658D01*
X111384229Y-110633489D01*
X111114672Y-110515722D01*
X110873112Y-110347834D01*
X110668768Y-110136230D01*
X110509419Y-109888968D01*
X110401129Y-109615459D01*
X110348025Y-109326121D01*
X110352133Y-109031986D01*
X110413293Y-108744252D01*
X110529178Y-108473872D01*
X110695372Y-108231152D01*
X110905547Y-108025333D01*
X111151692Y-107864260D01*
X111424438Y-107754063D01*
X111713390Y-107698943D01*
X112007551Y-107700997D01*
X112007551Y-107700997D01*
G37*
G36*
X125727551Y-107700997D02*
X126015710Y-107760148D01*
X126286888Y-107874140D01*
X126530766Y-108038638D01*
X126738042Y-108247366D01*
X126900834Y-108492387D01*
X127012928Y-108764350D01*
X127069999Y-109052574D01*
X127069999Y-109052588D01*
X127070064Y-109052917D01*
X127065373Y-109388910D01*
X127065297Y-109389244D01*
X127065297Y-109389255D01*
X127000203Y-109675764D01*
X126880554Y-109944500D01*
X126710992Y-110184872D01*
X126497959Y-110387740D01*
X126249591Y-110545358D01*
X125975332Y-110651738D01*
X125685638Y-110702818D01*
X125391537Y-110696658D01*
X125104229Y-110633489D01*
X124834672Y-110515722D01*
X124593112Y-110347834D01*
X124388768Y-110136230D01*
X124229419Y-109888968D01*
X124121129Y-109615459D01*
X124068025Y-109326121D01*
X124072133Y-109031986D01*
X124133293Y-108744252D01*
X124249178Y-108473872D01*
X124415372Y-108231152D01*
X124625547Y-108025333D01*
X124871692Y-107864260D01*
X125144438Y-107754063D01*
X125433390Y-107698943D01*
X125727551Y-107700997D01*
X125727551Y-107700997D01*
G37*
G36*
X108094531Y-106600597D02*
X108267427Y-106636088D01*
X108430132Y-106704483D01*
X108576458Y-106803180D01*
X108700828Y-106928422D01*
X108798502Y-107075433D01*
X108865757Y-107238608D01*
X108899973Y-107411407D01*
X108899973Y-107411416D01*
X108900039Y-107411750D01*
X108897224Y-107613346D01*
X108897148Y-107613680D01*
X108897148Y-107613691D01*
X108858123Y-107785459D01*
X108786334Y-107946699D01*
X108684592Y-108090927D01*
X108556778Y-108212644D01*
X108407755Y-108307216D01*
X108243199Y-108371043D01*
X108069383Y-108401692D01*
X107892923Y-108397996D01*
X107720536Y-108360094D01*
X107558800Y-108289433D01*
X107413869Y-108188703D01*
X107291260Y-108061738D01*
X107195651Y-107913382D01*
X107130676Y-107749277D01*
X107098814Y-107575672D01*
X107101279Y-107399191D01*
X107137974Y-107226552D01*
X107207506Y-107064322D01*
X107307222Y-106918691D01*
X107433328Y-106795198D01*
X107581015Y-106698555D01*
X107744663Y-106632437D01*
X107918032Y-106599365D01*
X108094531Y-106600597D01*
X108094531Y-106600597D01*
G37*
G36*
X106360000Y-108400000D02*
X104560000Y-108400000D01*
X104560000Y-106600000D01*
X106360000Y-106600000D01*
X106360000Y-108400000D01*
X106360000Y-108400000D01*
G37*
G36*
X115488775Y-105780498D02*
X115632856Y-105810073D01*
X115768444Y-105867069D01*
X115890382Y-105949317D01*
X115994023Y-106053685D01*
X116075419Y-106176194D01*
X116131464Y-106312173D01*
X116159966Y-106456115D01*
X116159966Y-106456125D01*
X116160032Y-106456459D01*
X116157686Y-106624455D01*
X116157610Y-106624789D01*
X116157610Y-106624801D01*
X116125104Y-106767881D01*
X116065279Y-106902250D01*
X115980496Y-107022437D01*
X115873978Y-107123872D01*
X115749796Y-107202680D01*
X115612666Y-107255869D01*
X115467819Y-107281410D01*
X115320769Y-107278330D01*
X115177111Y-107246745D01*
X115042338Y-107187864D01*
X114921554Y-107103917D01*
X114819383Y-106998115D01*
X114739709Y-106874486D01*
X114685564Y-106737731D01*
X114659012Y-106593059D01*
X114661066Y-106445992D01*
X114691645Y-106302127D01*
X114749587Y-106166937D01*
X114832687Y-106045574D01*
X114937773Y-105942665D01*
X115060844Y-105862130D01*
X115197221Y-105807030D01*
X115341693Y-105779470D01*
X115488775Y-105780498D01*
X115488775Y-105780498D01*
G37*
G36*
X122598775Y-105780498D02*
X122742856Y-105810073D01*
X122878444Y-105867069D01*
X123000382Y-105949317D01*
X123104023Y-106053685D01*
X123185419Y-106176194D01*
X123241464Y-106312173D01*
X123269966Y-106456115D01*
X123269966Y-106456125D01*
X123270032Y-106456459D01*
X123267686Y-106624455D01*
X123267610Y-106624789D01*
X123267610Y-106624801D01*
X123235104Y-106767881D01*
X123175279Y-106902250D01*
X123090496Y-107022437D01*
X122983978Y-107123872D01*
X122859796Y-107202680D01*
X122722666Y-107255869D01*
X122577819Y-107281410D01*
X122430769Y-107278330D01*
X122287111Y-107246745D01*
X122152338Y-107187864D01*
X122031554Y-107103917D01*
X121929383Y-106998115D01*
X121849709Y-106874486D01*
X121795564Y-106737731D01*
X121769012Y-106593059D01*
X121771066Y-106445992D01*
X121801645Y-106302127D01*
X121859587Y-106166937D01*
X121942687Y-106045574D01*
X122047773Y-105942665D01*
X122170844Y-105862130D01*
X122307221Y-105807030D01*
X122451693Y-105779470D01*
X122598775Y-105780498D01*
X122598775Y-105780498D01*
G37*
G36*
X120058775Y-105780498D02*
X120202856Y-105810073D01*
X120338444Y-105867069D01*
X120460382Y-105949317D01*
X120564023Y-106053685D01*
X120645419Y-106176194D01*
X120701464Y-106312173D01*
X120729966Y-106456115D01*
X120729966Y-106456125D01*
X120730032Y-106456459D01*
X120727686Y-106624455D01*
X120727610Y-106624789D01*
X120727610Y-106624801D01*
X120695104Y-106767881D01*
X120635279Y-106902250D01*
X120550496Y-107022437D01*
X120443978Y-107123872D01*
X120319796Y-107202680D01*
X120182666Y-107255869D01*
X120037819Y-107281410D01*
X119890769Y-107278330D01*
X119747111Y-107246745D01*
X119612338Y-107187864D01*
X119491554Y-107103917D01*
X119389383Y-106998115D01*
X119309709Y-106874486D01*
X119255564Y-106737731D01*
X119229012Y-106593059D01*
X119231066Y-106445992D01*
X119261645Y-106302127D01*
X119319587Y-106166937D01*
X119402687Y-106045574D01*
X119507773Y-105942665D01*
X119630844Y-105862130D01*
X119767221Y-105807030D01*
X119911693Y-105779470D01*
X120058775Y-105780498D01*
X120058775Y-105780498D01*
G37*
G36*
X118028775Y-105780498D02*
X118172856Y-105810073D01*
X118308444Y-105867069D01*
X118430382Y-105949317D01*
X118534023Y-106053685D01*
X118615419Y-106176194D01*
X118671464Y-106312173D01*
X118699966Y-106456115D01*
X118699966Y-106456125D01*
X118700032Y-106456459D01*
X118697686Y-106624455D01*
X118697610Y-106624789D01*
X118697610Y-106624801D01*
X118665104Y-106767881D01*
X118605279Y-106902250D01*
X118520496Y-107022437D01*
X118413978Y-107123872D01*
X118289796Y-107202680D01*
X118152666Y-107255869D01*
X118007819Y-107281410D01*
X117860769Y-107278330D01*
X117717111Y-107246745D01*
X117582338Y-107187864D01*
X117461554Y-107103917D01*
X117359383Y-106998115D01*
X117279709Y-106874486D01*
X117225564Y-106737731D01*
X117199012Y-106593059D01*
X117201066Y-106445992D01*
X117231645Y-106302127D01*
X117289587Y-106166937D01*
X117372687Y-106045574D01*
X117477773Y-105942665D01*
X117600844Y-105862130D01*
X117737221Y-105807030D01*
X117881693Y-105779470D01*
X118028775Y-105780498D01*
X118028775Y-105780498D01*
G37*
G36*
X119157551Y-101000997D02*
X119445710Y-101060148D01*
X119716888Y-101174140D01*
X119960766Y-101338638D01*
X120168042Y-101547366D01*
X120330834Y-101792387D01*
X120442928Y-102064350D01*
X120499999Y-102352574D01*
X120499999Y-102352588D01*
X120500064Y-102352917D01*
X120495373Y-102688910D01*
X120495297Y-102689244D01*
X120495297Y-102689255D01*
X120430203Y-102975764D01*
X120310554Y-103244500D01*
X120140992Y-103484872D01*
X119927959Y-103687740D01*
X119679591Y-103845358D01*
X119405332Y-103951738D01*
X119115638Y-104002818D01*
X118821537Y-103996658D01*
X118534229Y-103933489D01*
X118264672Y-103815722D01*
X118023112Y-103647834D01*
X117818768Y-103436230D01*
X117659419Y-103188968D01*
X117551129Y-102915459D01*
X117498025Y-102626121D01*
X117502133Y-102331986D01*
X117563293Y-102044252D01*
X117679178Y-101773872D01*
X117845372Y-101531152D01*
X118055547Y-101325333D01*
X118301692Y-101164260D01*
X118574438Y-101054063D01*
X118863390Y-100998943D01*
X119157551Y-101000997D01*
X119157551Y-101000997D01*
G37*
G36*
X108134531Y-98600597D02*
X108307427Y-98636088D01*
X108470132Y-98704483D01*
X108616458Y-98803180D01*
X108740828Y-98928422D01*
X108838502Y-99075433D01*
X108905757Y-99238608D01*
X108939973Y-99411407D01*
X108939973Y-99411416D01*
X108940039Y-99411750D01*
X108937224Y-99613346D01*
X108937148Y-99613680D01*
X108937148Y-99613691D01*
X108898123Y-99785459D01*
X108826334Y-99946699D01*
X108724592Y-100090927D01*
X108596778Y-100212644D01*
X108447755Y-100307216D01*
X108283199Y-100371043D01*
X108109383Y-100401692D01*
X107932923Y-100397996D01*
X107760536Y-100360094D01*
X107598800Y-100289433D01*
X107453869Y-100188703D01*
X107331260Y-100061738D01*
X107235651Y-99913382D01*
X107170676Y-99749277D01*
X107138814Y-99575672D01*
X107141279Y-99399191D01*
X107177974Y-99226552D01*
X107247506Y-99064322D01*
X107347222Y-98918691D01*
X107473328Y-98795198D01*
X107621015Y-98698555D01*
X107784663Y-98632437D01*
X107958032Y-98599365D01*
X108134531Y-98600597D01*
X108134531Y-98600597D01*
G37*
G36*
X106400000Y-100400000D02*
X104600000Y-100400000D01*
X104600000Y-98600000D01*
X106400000Y-98600000D01*
X106400000Y-100400000D01*
X106400000Y-100400000D01*
G37*
G36*
X117830036Y-98738506D02*
X117976422Y-98768555D01*
X118114179Y-98826462D01*
X118238068Y-98910026D01*
X118343368Y-99016064D01*
X118426066Y-99140534D01*
X118483008Y-99278688D01*
X118511967Y-99424938D01*
X118511967Y-99424948D01*
X118512033Y-99425282D01*
X118509649Y-99595966D01*
X118509573Y-99596300D01*
X118509573Y-99596311D01*
X118476544Y-99741688D01*
X118415763Y-99878205D01*
X118329624Y-100000316D01*
X118221402Y-100103374D01*
X118095233Y-100183443D01*
X117955908Y-100237484D01*
X117808745Y-100263432D01*
X117659342Y-100260303D01*
X117513387Y-100228213D01*
X117376450Y-100168386D01*
X117253742Y-100083102D01*
X117149935Y-99975606D01*
X117068983Y-99849995D01*
X117013973Y-99711055D01*
X116986996Y-99564068D01*
X116989083Y-99414648D01*
X117020151Y-99268481D01*
X117079022Y-99131126D01*
X117163448Y-99007825D01*
X117270218Y-98903268D01*
X117395259Y-98821443D01*
X117533814Y-98765463D01*
X117680600Y-98737462D01*
X117830036Y-98738506D01*
X117830036Y-98738506D01*
G37*
G36*
X120330036Y-98738506D02*
X120476422Y-98768555D01*
X120614179Y-98826462D01*
X120738068Y-98910026D01*
X120843368Y-99016064D01*
X120926066Y-99140534D01*
X120983008Y-99278688D01*
X121011967Y-99424938D01*
X121011967Y-99424948D01*
X121012033Y-99425282D01*
X121009649Y-99595966D01*
X121009573Y-99596300D01*
X121009573Y-99596311D01*
X120976544Y-99741688D01*
X120915763Y-99878205D01*
X120829624Y-100000316D01*
X120721402Y-100103374D01*
X120595233Y-100183443D01*
X120455908Y-100237484D01*
X120308745Y-100263432D01*
X120159342Y-100260303D01*
X120013387Y-100228213D01*
X119876450Y-100168386D01*
X119753742Y-100083102D01*
X119649935Y-99975606D01*
X119568983Y-99849995D01*
X119513973Y-99711055D01*
X119486996Y-99564068D01*
X119489083Y-99414648D01*
X119520151Y-99268481D01*
X119579022Y-99131126D01*
X119663448Y-99007825D01*
X119770218Y-98903268D01*
X119895259Y-98821443D01*
X120033814Y-98765463D01*
X120180600Y-98737462D01*
X120330036Y-98738506D01*
X120330036Y-98738506D01*
G37*
G36*
X117830036Y-96738506D02*
X117976422Y-96768555D01*
X118114179Y-96826462D01*
X118238068Y-96910026D01*
X118343368Y-97016064D01*
X118426066Y-97140534D01*
X118483008Y-97278688D01*
X118511967Y-97424938D01*
X118511967Y-97424948D01*
X118512033Y-97425282D01*
X118509649Y-97595966D01*
X118509573Y-97596300D01*
X118509573Y-97596311D01*
X118476544Y-97741688D01*
X118415763Y-97878205D01*
X118329624Y-98000316D01*
X118221402Y-98103374D01*
X118095233Y-98183443D01*
X117955908Y-98237484D01*
X117808745Y-98263432D01*
X117659342Y-98260303D01*
X117513387Y-98228213D01*
X117376450Y-98168386D01*
X117253742Y-98083102D01*
X117149935Y-97975606D01*
X117068983Y-97849995D01*
X117013973Y-97711055D01*
X116986996Y-97564068D01*
X116989083Y-97414648D01*
X117020151Y-97268481D01*
X117079022Y-97131126D01*
X117163448Y-97007825D01*
X117270218Y-96903268D01*
X117395259Y-96821443D01*
X117533814Y-96765463D01*
X117680600Y-96737462D01*
X117830036Y-96738506D01*
X117830036Y-96738506D01*
G37*
G36*
X120330036Y-96738506D02*
X120476422Y-96768555D01*
X120614179Y-96826462D01*
X120738068Y-96910026D01*
X120843368Y-97016064D01*
X120926066Y-97140534D01*
X120983008Y-97278688D01*
X121011967Y-97424938D01*
X121011967Y-97424948D01*
X121012033Y-97425282D01*
X121009649Y-97595966D01*
X121009573Y-97596300D01*
X121009573Y-97596311D01*
X120976544Y-97741688D01*
X120915763Y-97878205D01*
X120829624Y-98000316D01*
X120721402Y-98103374D01*
X120595233Y-98183443D01*
X120455908Y-98237484D01*
X120308745Y-98263432D01*
X120159342Y-98260303D01*
X120013387Y-98228213D01*
X119876450Y-98168386D01*
X119753742Y-98083102D01*
X119649935Y-97975606D01*
X119568983Y-97849995D01*
X119513973Y-97711055D01*
X119486996Y-97564068D01*
X119489083Y-97414648D01*
X119520151Y-97268481D01*
X119579022Y-97131126D01*
X119663448Y-97007825D01*
X119770218Y-96903268D01*
X119895259Y-96821443D01*
X120033814Y-96765463D01*
X120180600Y-96737462D01*
X120330036Y-96738506D01*
X120330036Y-96738506D01*
G37*
G36*
X117830036Y-94738506D02*
X117976422Y-94768555D01*
X118114179Y-94826462D01*
X118238068Y-94910026D01*
X118343368Y-95016064D01*
X118426066Y-95140534D01*
X118483008Y-95278688D01*
X118511967Y-95424938D01*
X118511967Y-95424948D01*
X118512033Y-95425282D01*
X118509649Y-95595966D01*
X118509573Y-95596300D01*
X118509573Y-95596311D01*
X118476544Y-95741688D01*
X118415763Y-95878205D01*
X118329624Y-96000316D01*
X118221402Y-96103374D01*
X118095233Y-96183443D01*
X117955908Y-96237484D01*
X117808745Y-96263432D01*
X117659342Y-96260303D01*
X117513387Y-96228213D01*
X117376450Y-96168386D01*
X117253742Y-96083102D01*
X117149935Y-95975606D01*
X117068983Y-95849995D01*
X117013973Y-95711055D01*
X116986996Y-95564068D01*
X116989083Y-95414648D01*
X117020151Y-95268481D01*
X117079022Y-95131126D01*
X117163448Y-95007825D01*
X117270218Y-94903268D01*
X117395259Y-94821443D01*
X117533814Y-94765463D01*
X117680600Y-94737462D01*
X117830036Y-94738506D01*
X117830036Y-94738506D01*
G37*
G36*
X120330036Y-94738506D02*
X120476422Y-94768555D01*
X120614179Y-94826462D01*
X120738068Y-94910026D01*
X120843368Y-95016064D01*
X120926066Y-95140534D01*
X120983008Y-95278688D01*
X121011967Y-95424938D01*
X121011967Y-95424948D01*
X121012033Y-95425282D01*
X121009649Y-95595966D01*
X121009573Y-95596300D01*
X121009573Y-95596311D01*
X120976544Y-95741688D01*
X120915763Y-95878205D01*
X120829624Y-96000316D01*
X120721402Y-96103374D01*
X120595233Y-96183443D01*
X120455908Y-96237484D01*
X120308745Y-96263432D01*
X120159342Y-96260303D01*
X120013387Y-96228213D01*
X119876450Y-96168386D01*
X119753742Y-96083102D01*
X119649935Y-95975606D01*
X119568983Y-95849995D01*
X119513973Y-95711055D01*
X119486996Y-95564068D01*
X119489083Y-95414648D01*
X119520151Y-95268481D01*
X119579022Y-95131126D01*
X119663448Y-95007825D01*
X119770218Y-94903268D01*
X119895259Y-94821443D01*
X120033814Y-94765463D01*
X120180600Y-94737462D01*
X120330036Y-94738506D01*
X120330036Y-94738506D01*
G37*
G36*
X101260852Y-93250042D02*
X101265311Y-93250073D01*
X101410773Y-93266389D01*
X101550295Y-93310648D01*
X101678564Y-93381165D01*
X101790694Y-93475252D01*
X101882412Y-93589328D01*
X101950227Y-93719045D01*
X101991554Y-93859464D01*
X101991557Y-93859493D01*
X101991562Y-93859511D01*
X102004824Y-94005233D01*
X101989527Y-94150760D01*
X101989524Y-94150770D01*
X101989520Y-94150808D01*
X101946236Y-94290637D01*
X101876617Y-94419395D01*
X101783315Y-94532178D01*
X101669883Y-94624691D01*
X101540642Y-94693410D01*
X101400515Y-94735716D01*
X101254839Y-94750000D01*
X100745125Y-94750000D01*
X100739148Y-94749958D01*
X100734689Y-94749927D01*
X100589227Y-94733611D01*
X100449705Y-94689352D01*
X100321436Y-94618835D01*
X100209306Y-94524748D01*
X100117588Y-94410672D01*
X100049773Y-94280955D01*
X100008446Y-94140536D01*
X100008443Y-94140507D01*
X100008438Y-94140489D01*
X99995176Y-93994767D01*
X100010473Y-93849240D01*
X100010476Y-93849230D01*
X100010480Y-93849192D01*
X100053764Y-93709363D01*
X100123383Y-93580605D01*
X100216685Y-93467822D01*
X100330117Y-93375309D01*
X100459358Y-93306590D01*
X100599485Y-93264284D01*
X100745161Y-93250000D01*
X101254875Y-93250000D01*
X101260852Y-93250042D01*
X101260852Y-93250042D01*
G37*
G36*
X96920000Y-94750000D02*
X94920000Y-94750000D01*
X94920000Y-93250000D01*
X96920000Y-93250000D01*
X96920000Y-94750000D01*
X96920000Y-94750000D01*
G37*
G36*
X117830036Y-92738506D02*
X117976422Y-92768555D01*
X118114179Y-92826462D01*
X118238068Y-92910026D01*
X118343368Y-93016064D01*
X118426066Y-93140534D01*
X118483008Y-93278688D01*
X118511967Y-93424938D01*
X118511967Y-93424948D01*
X118512033Y-93425282D01*
X118509649Y-93595966D01*
X118509573Y-93596300D01*
X118509573Y-93596311D01*
X118476544Y-93741688D01*
X118415763Y-93878205D01*
X118329624Y-94000316D01*
X118221402Y-94103374D01*
X118095233Y-94183443D01*
X117955908Y-94237484D01*
X117808745Y-94263432D01*
X117659342Y-94260303D01*
X117513387Y-94228213D01*
X117376450Y-94168386D01*
X117253742Y-94083102D01*
X117149935Y-93975606D01*
X117068983Y-93849995D01*
X117013973Y-93711055D01*
X116986996Y-93564068D01*
X116989083Y-93414648D01*
X117020151Y-93268481D01*
X117079022Y-93131126D01*
X117163448Y-93007825D01*
X117270218Y-92903268D01*
X117395259Y-92821443D01*
X117533814Y-92765463D01*
X117680600Y-92737462D01*
X117830036Y-92738506D01*
X117830036Y-92738506D01*
G37*
G36*
X120330036Y-92738506D02*
X120476422Y-92768555D01*
X120614179Y-92826462D01*
X120738068Y-92910026D01*
X120843368Y-93016064D01*
X120926066Y-93140534D01*
X120983008Y-93278688D01*
X121011967Y-93424938D01*
X121011967Y-93424948D01*
X121012033Y-93425282D01*
X121009649Y-93595966D01*
X121009573Y-93596300D01*
X121009573Y-93596311D01*
X120976544Y-93741688D01*
X120915763Y-93878205D01*
X120829624Y-94000316D01*
X120721402Y-94103374D01*
X120595233Y-94183443D01*
X120455908Y-94237484D01*
X120308745Y-94263432D01*
X120159342Y-94260303D01*
X120013387Y-94228213D01*
X119876450Y-94168386D01*
X119753742Y-94083102D01*
X119649935Y-93975606D01*
X119568983Y-93849995D01*
X119513973Y-93711055D01*
X119486996Y-93564068D01*
X119489083Y-93414648D01*
X119520151Y-93268481D01*
X119579022Y-93131126D01*
X119663448Y-93007825D01*
X119770218Y-92903268D01*
X119895259Y-92821443D01*
X120033814Y-92765463D01*
X120180600Y-92737462D01*
X120330036Y-92738506D01*
X120330036Y-92738506D01*
G37*
G36*
X98610760Y-90470473D02*
X98610770Y-90470476D01*
X98610808Y-90470480D01*
X98750637Y-90513764D01*
X98879395Y-90583383D01*
X98992178Y-90676685D01*
X99084691Y-90790117D01*
X99153410Y-90919358D01*
X99195716Y-91059485D01*
X99210000Y-91205161D01*
X99210000Y-91714839D01*
X99209927Y-91725311D01*
X99193611Y-91870773D01*
X99149352Y-92010295D01*
X99078835Y-92138564D01*
X98984748Y-92250694D01*
X98870672Y-92342412D01*
X98740955Y-92410227D01*
X98600536Y-92451554D01*
X98600507Y-92451557D01*
X98600489Y-92451562D01*
X98454767Y-92464824D01*
X98309240Y-92449527D01*
X98309230Y-92449524D01*
X98309192Y-92449520D01*
X98169363Y-92406236D01*
X98040605Y-92336617D01*
X97927822Y-92243315D01*
X97835309Y-92129883D01*
X97766590Y-92000642D01*
X97724284Y-91860515D01*
X97710000Y-91714839D01*
X97710000Y-91205161D01*
X97710073Y-91194689D01*
X97726389Y-91049227D01*
X97770648Y-90909705D01*
X97841165Y-90781436D01*
X97935252Y-90669306D01*
X98049328Y-90577588D01*
X98179045Y-90509773D01*
X98319464Y-90468446D01*
X98319493Y-90468443D01*
X98319511Y-90468438D01*
X98465233Y-90455176D01*
X98610760Y-90470473D01*
X98610760Y-90470473D01*
G37*
G36*
X108134531Y-90600597D02*
X108307427Y-90636088D01*
X108470132Y-90704483D01*
X108616458Y-90803180D01*
X108740828Y-90928422D01*
X108838502Y-91075433D01*
X108905757Y-91238608D01*
X108939973Y-91411407D01*
X108939973Y-91411416D01*
X108940039Y-91411750D01*
X108937224Y-91613346D01*
X108937148Y-91613680D01*
X108937148Y-91613691D01*
X108898123Y-91785459D01*
X108826334Y-91946699D01*
X108724592Y-92090927D01*
X108596778Y-92212644D01*
X108447755Y-92307216D01*
X108283199Y-92371043D01*
X108109383Y-92401692D01*
X107932923Y-92397996D01*
X107760536Y-92360094D01*
X107598800Y-92289433D01*
X107453869Y-92188703D01*
X107331260Y-92061738D01*
X107235651Y-91913382D01*
X107170676Y-91749277D01*
X107138814Y-91575672D01*
X107141279Y-91399191D01*
X107177974Y-91226552D01*
X107247506Y-91064322D01*
X107347222Y-90918691D01*
X107473328Y-90795198D01*
X107621015Y-90698555D01*
X107784663Y-90632437D01*
X107958032Y-90599365D01*
X108134531Y-90600597D01*
X108134531Y-90600597D01*
G37*
G36*
X106400000Y-92400000D02*
X104600000Y-92400000D01*
X104600000Y-90600000D01*
X106400000Y-90600000D01*
X106400000Y-92400000D01*
X106400000Y-92400000D01*
G37*
G36*
X117830036Y-90738506D02*
X117976422Y-90768555D01*
X118114179Y-90826462D01*
X118238068Y-90910026D01*
X118343368Y-91016064D01*
X118426066Y-91140534D01*
X118483008Y-91278688D01*
X118511967Y-91424938D01*
X118511967Y-91424948D01*
X118512033Y-91425282D01*
X118509649Y-91595966D01*
X118509573Y-91596300D01*
X118509573Y-91596311D01*
X118476544Y-91741688D01*
X118415763Y-91878205D01*
X118329624Y-92000316D01*
X118221402Y-92103374D01*
X118095233Y-92183443D01*
X117955908Y-92237484D01*
X117808745Y-92263432D01*
X117659342Y-92260303D01*
X117513387Y-92228213D01*
X117376450Y-92168386D01*
X117253742Y-92083102D01*
X117149935Y-91975606D01*
X117068983Y-91849995D01*
X117013973Y-91711055D01*
X116986996Y-91564068D01*
X116989083Y-91414648D01*
X117020151Y-91268481D01*
X117079022Y-91131126D01*
X117163448Y-91007825D01*
X117270218Y-90903268D01*
X117395259Y-90821443D01*
X117533814Y-90765463D01*
X117680600Y-90737462D01*
X117830036Y-90738506D01*
X117830036Y-90738506D01*
G37*
G36*
X120330036Y-90738506D02*
X120476422Y-90768555D01*
X120614179Y-90826462D01*
X120738068Y-90910026D01*
X120843368Y-91016064D01*
X120926066Y-91140534D01*
X120983008Y-91278688D01*
X121011967Y-91424938D01*
X121011967Y-91424948D01*
X121012033Y-91425282D01*
X121009649Y-91595966D01*
X121009573Y-91596300D01*
X121009573Y-91596311D01*
X120976544Y-91741688D01*
X120915763Y-91878205D01*
X120829624Y-92000316D01*
X120721402Y-92103374D01*
X120595233Y-92183443D01*
X120455908Y-92237484D01*
X120308745Y-92263432D01*
X120159342Y-92260303D01*
X120013387Y-92228213D01*
X119876450Y-92168386D01*
X119753742Y-92083102D01*
X119649935Y-91975606D01*
X119568983Y-91849995D01*
X119513973Y-91711055D01*
X119486996Y-91564068D01*
X119489083Y-91414648D01*
X119520151Y-91268481D01*
X119579022Y-91131126D01*
X119663448Y-91007825D01*
X119770218Y-90903268D01*
X119895259Y-90821443D01*
X120033814Y-90765463D01*
X120180600Y-90737462D01*
X120330036Y-90738506D01*
X120330036Y-90738506D01*
G37*
G36*
X119157551Y-87000997D02*
X119445710Y-87060148D01*
X119716888Y-87174140D01*
X119960766Y-87338638D01*
X120168042Y-87547366D01*
X120330834Y-87792387D01*
X120442928Y-88064350D01*
X120499999Y-88352574D01*
X120499999Y-88352588D01*
X120500064Y-88352917D01*
X120495373Y-88688910D01*
X120495297Y-88689244D01*
X120495297Y-88689255D01*
X120430203Y-88975764D01*
X120310554Y-89244500D01*
X120140992Y-89484872D01*
X119927959Y-89687740D01*
X119679591Y-89845358D01*
X119405332Y-89951738D01*
X119115638Y-90002818D01*
X118821537Y-89996658D01*
X118534229Y-89933489D01*
X118264672Y-89815722D01*
X118023112Y-89647834D01*
X117818768Y-89436230D01*
X117659419Y-89188968D01*
X117551129Y-88915459D01*
X117498025Y-88626121D01*
X117502133Y-88331986D01*
X117563293Y-88044252D01*
X117679178Y-87773872D01*
X117845372Y-87531152D01*
X118055547Y-87325333D01*
X118301692Y-87164260D01*
X118574438Y-87054063D01*
X118863390Y-86998943D01*
X119157551Y-87000997D01*
X119157551Y-87000997D01*
G37*
G36*
X100830036Y-86238506D02*
X100976422Y-86268555D01*
X101114179Y-86326462D01*
X101238068Y-86410026D01*
X101343368Y-86516064D01*
X101426066Y-86640534D01*
X101483008Y-86778688D01*
X101511967Y-86924938D01*
X101511967Y-86924948D01*
X101512033Y-86925282D01*
X101509649Y-87095966D01*
X101509573Y-87096300D01*
X101509573Y-87096311D01*
X101476544Y-87241688D01*
X101415763Y-87378205D01*
X101329624Y-87500316D01*
X101221402Y-87603374D01*
X101095233Y-87683443D01*
X100955908Y-87737484D01*
X100808745Y-87763432D01*
X100659342Y-87760303D01*
X100513387Y-87728213D01*
X100376450Y-87668386D01*
X100253742Y-87583102D01*
X100149935Y-87475606D01*
X100068983Y-87349995D01*
X100013973Y-87211055D01*
X99986996Y-87064068D01*
X99989083Y-86914648D01*
X100020151Y-86768481D01*
X100079022Y-86631126D01*
X100163448Y-86507825D01*
X100270218Y-86403268D01*
X100395259Y-86321443D01*
X100533814Y-86265463D01*
X100680600Y-86237462D01*
X100830036Y-86238506D01*
X100830036Y-86238506D01*
G37*
G36*
X95830036Y-86238506D02*
X95976422Y-86268555D01*
X96114179Y-86326462D01*
X96238068Y-86410026D01*
X96343368Y-86516064D01*
X96426066Y-86640534D01*
X96483008Y-86778688D01*
X96511967Y-86924938D01*
X96511967Y-86924948D01*
X96512033Y-86925282D01*
X96509649Y-87095966D01*
X96509573Y-87096300D01*
X96509573Y-87096311D01*
X96476544Y-87241688D01*
X96415763Y-87378205D01*
X96329624Y-87500316D01*
X96221402Y-87603374D01*
X96095233Y-87683443D01*
X95955908Y-87737484D01*
X95808745Y-87763432D01*
X95659342Y-87760303D01*
X95513387Y-87728213D01*
X95376450Y-87668386D01*
X95253742Y-87583102D01*
X95149935Y-87475606D01*
X95068983Y-87349995D01*
X95013973Y-87211055D01*
X94986996Y-87064068D01*
X94989083Y-86914648D01*
X95020151Y-86768481D01*
X95079022Y-86631126D01*
X95163448Y-86507825D01*
X95270218Y-86403268D01*
X95395259Y-86321443D01*
X95533814Y-86265463D01*
X95680600Y-86237462D01*
X95830036Y-86238506D01*
X95830036Y-86238506D01*
G37*
G36*
X100850000Y-82640000D02*
X99150000Y-82640000D01*
X99150000Y-80940000D01*
X100850000Y-80940000D01*
X100850000Y-82640000D01*
X100850000Y-82640000D01*
G37*
G36*
X97470261Y-80940043D02*
X97475981Y-80940083D01*
X97640838Y-80958575D01*
X97798964Y-81008735D01*
X97944335Y-81088654D01*
X98071415Y-81195286D01*
X98175363Y-81324571D01*
X98252219Y-81471584D01*
X98299057Y-81630726D01*
X98299060Y-81630756D01*
X98299065Y-81630774D01*
X98314095Y-81795932D01*
X98296760Y-81960867D01*
X98296756Y-81960881D01*
X98296752Y-81960916D01*
X98247697Y-82119388D01*
X98168795Y-82265314D01*
X98063052Y-82393135D01*
X97934496Y-82497983D01*
X97788023Y-82575864D01*
X97629212Y-82623812D01*
X97464113Y-82640000D01*
X97455852Y-82640000D01*
X97449739Y-82639957D01*
X97444019Y-82639917D01*
X97279162Y-82621425D01*
X97121036Y-82571265D01*
X96975665Y-82491346D01*
X96848585Y-82384714D01*
X96744637Y-82255429D01*
X96667781Y-82108416D01*
X96620943Y-81949274D01*
X96620940Y-81949244D01*
X96620935Y-81949226D01*
X96605905Y-81784068D01*
X96623240Y-81619133D01*
X96623244Y-81619119D01*
X96623248Y-81619084D01*
X96672303Y-81460612D01*
X96751205Y-81314686D01*
X96856948Y-81186865D01*
X96985504Y-81082017D01*
X97131977Y-81004136D01*
X97290788Y-80956188D01*
X97455887Y-80940000D01*
X97464148Y-80940000D01*
X97470261Y-80940043D01*
X97470261Y-80940043D01*
G37*
G36*
X110010261Y-78810043D02*
X110015981Y-78810083D01*
X110180838Y-78828575D01*
X110338964Y-78878735D01*
X110484335Y-78958654D01*
X110611415Y-79065286D01*
X110715363Y-79194571D01*
X110792219Y-79341584D01*
X110839057Y-79500726D01*
X110839060Y-79500756D01*
X110839065Y-79500774D01*
X110854095Y-79665932D01*
X110836760Y-79830867D01*
X110836756Y-79830881D01*
X110836752Y-79830916D01*
X110787697Y-79989388D01*
X110708795Y-80135314D01*
X110603052Y-80263135D01*
X110474496Y-80367983D01*
X110328023Y-80445864D01*
X110169212Y-80493812D01*
X110004113Y-80510000D01*
X109995852Y-80510000D01*
X109989739Y-80509957D01*
X109984019Y-80509917D01*
X109819162Y-80491425D01*
X109661036Y-80441265D01*
X109515665Y-80361346D01*
X109388585Y-80254714D01*
X109284637Y-80125429D01*
X109207781Y-79978416D01*
X109160943Y-79819274D01*
X109160940Y-79819244D01*
X109160935Y-79819226D01*
X109145905Y-79654068D01*
X109163240Y-79489133D01*
X109163244Y-79489119D01*
X109163248Y-79489084D01*
X109212303Y-79330612D01*
X109291205Y-79184686D01*
X109396948Y-79056865D01*
X109525504Y-78952017D01*
X109671977Y-78874136D01*
X109830788Y-78826188D01*
X109995887Y-78810000D01*
X110004148Y-78810000D01*
X110010261Y-78810043D01*
X110010261Y-78810043D01*
G37*
G36*
X100010261Y-78400043D02*
X100015981Y-78400083D01*
X100180838Y-78418575D01*
X100338964Y-78468735D01*
X100484335Y-78548654D01*
X100611415Y-78655286D01*
X100715363Y-78784571D01*
X100792219Y-78931584D01*
X100839057Y-79090726D01*
X100839060Y-79090756D01*
X100839065Y-79090774D01*
X100854095Y-79255932D01*
X100836760Y-79420867D01*
X100836756Y-79420881D01*
X100836752Y-79420916D01*
X100787697Y-79579388D01*
X100708795Y-79725314D01*
X100603052Y-79853135D01*
X100474496Y-79957983D01*
X100328023Y-80035864D01*
X100169212Y-80083812D01*
X100004113Y-80100000D01*
X99995852Y-80100000D01*
X99989739Y-80099957D01*
X99984019Y-80099917D01*
X99819162Y-80081425D01*
X99661036Y-80031265D01*
X99515665Y-79951346D01*
X99388585Y-79844714D01*
X99284637Y-79715429D01*
X99207781Y-79568416D01*
X99160943Y-79409274D01*
X99160940Y-79409244D01*
X99160935Y-79409226D01*
X99145905Y-79244068D01*
X99163240Y-79079133D01*
X99163244Y-79079119D01*
X99163248Y-79079084D01*
X99212303Y-78920612D01*
X99291205Y-78774686D01*
X99396948Y-78646865D01*
X99525504Y-78542017D01*
X99671977Y-78464136D01*
X99830788Y-78416188D01*
X99995887Y-78400000D01*
X100004148Y-78400000D01*
X100010261Y-78400043D01*
X100010261Y-78400043D01*
G37*
G36*
X97470261Y-78400043D02*
X97475981Y-78400083D01*
X97640838Y-78418575D01*
X97798964Y-78468735D01*
X97944335Y-78548654D01*
X98071415Y-78655286D01*
X98175363Y-78784571D01*
X98252219Y-78931584D01*
X98299057Y-79090726D01*
X98299060Y-79090756D01*
X98299065Y-79090774D01*
X98314095Y-79255932D01*
X98296760Y-79420867D01*
X98296756Y-79420881D01*
X98296752Y-79420916D01*
X98247697Y-79579388D01*
X98168795Y-79725314D01*
X98063052Y-79853135D01*
X97934496Y-79957983D01*
X97788023Y-80035864D01*
X97629212Y-80083812D01*
X97464113Y-80100000D01*
X97455852Y-80100000D01*
X97449739Y-80099957D01*
X97444019Y-80099917D01*
X97279162Y-80081425D01*
X97121036Y-80031265D01*
X96975665Y-79951346D01*
X96848585Y-79844714D01*
X96744637Y-79715429D01*
X96667781Y-79568416D01*
X96620943Y-79409274D01*
X96620940Y-79409244D01*
X96620935Y-79409226D01*
X96605905Y-79244068D01*
X96623240Y-79079133D01*
X96623244Y-79079119D01*
X96623248Y-79079084D01*
X96672303Y-78920612D01*
X96751205Y-78774686D01*
X96856948Y-78646865D01*
X96985504Y-78542017D01*
X97131977Y-78464136D01*
X97290788Y-78416188D01*
X97455887Y-78400000D01*
X97464148Y-78400000D01*
X97470261Y-78400043D01*
X97470261Y-78400043D01*
G37*
G36*
X110010261Y-76270043D02*
X110015981Y-76270083D01*
X110180838Y-76288575D01*
X110338964Y-76338735D01*
X110484335Y-76418654D01*
X110611415Y-76525286D01*
X110715363Y-76654571D01*
X110792219Y-76801584D01*
X110839057Y-76960726D01*
X110839060Y-76960756D01*
X110839065Y-76960774D01*
X110854095Y-77125932D01*
X110836760Y-77290867D01*
X110836756Y-77290881D01*
X110836752Y-77290916D01*
X110787697Y-77449388D01*
X110708795Y-77595314D01*
X110603052Y-77723135D01*
X110474496Y-77827983D01*
X110328023Y-77905864D01*
X110169212Y-77953812D01*
X110004113Y-77970000D01*
X109995852Y-77970000D01*
X109989739Y-77969957D01*
X109984019Y-77969917D01*
X109819162Y-77951425D01*
X109661036Y-77901265D01*
X109515665Y-77821346D01*
X109388585Y-77714714D01*
X109284637Y-77585429D01*
X109207781Y-77438416D01*
X109160943Y-77279274D01*
X109160940Y-77279244D01*
X109160935Y-77279226D01*
X109145905Y-77114068D01*
X109163240Y-76949133D01*
X109163244Y-76949119D01*
X109163248Y-76949084D01*
X109212303Y-76790612D01*
X109291205Y-76644686D01*
X109396948Y-76516865D01*
X109525504Y-76412017D01*
X109671977Y-76334136D01*
X109830788Y-76286188D01*
X109995887Y-76270000D01*
X110004148Y-76270000D01*
X110010261Y-76270043D01*
X110010261Y-76270043D01*
G37*
G36*
X97470261Y-75860043D02*
X97475981Y-75860083D01*
X97640838Y-75878575D01*
X97798964Y-75928735D01*
X97944335Y-76008654D01*
X98071415Y-76115286D01*
X98175363Y-76244571D01*
X98252219Y-76391584D01*
X98299057Y-76550726D01*
X98299060Y-76550756D01*
X98299065Y-76550774D01*
X98314095Y-76715932D01*
X98296760Y-76880867D01*
X98296756Y-76880881D01*
X98296752Y-76880916D01*
X98247697Y-77039388D01*
X98168795Y-77185314D01*
X98063052Y-77313135D01*
X97934496Y-77417983D01*
X97788023Y-77495864D01*
X97629212Y-77543812D01*
X97464113Y-77560000D01*
X97455852Y-77560000D01*
X97449739Y-77559957D01*
X97444019Y-77559917D01*
X97279162Y-77541425D01*
X97121036Y-77491265D01*
X96975665Y-77411346D01*
X96848585Y-77304714D01*
X96744637Y-77175429D01*
X96667781Y-77028416D01*
X96620943Y-76869274D01*
X96620940Y-76869244D01*
X96620935Y-76869226D01*
X96605905Y-76704068D01*
X96623240Y-76539133D01*
X96623244Y-76539119D01*
X96623248Y-76539084D01*
X96672303Y-76380612D01*
X96751205Y-76234686D01*
X96856948Y-76106865D01*
X96985504Y-76002017D01*
X97131977Y-75924136D01*
X97290788Y-75876188D01*
X97455887Y-75860000D01*
X97464148Y-75860000D01*
X97470261Y-75860043D01*
X97470261Y-75860043D01*
G37*
G36*
X100010261Y-75860043D02*
X100015981Y-75860083D01*
X100180838Y-75878575D01*
X100338964Y-75928735D01*
X100484335Y-76008654D01*
X100611415Y-76115286D01*
X100715363Y-76244571D01*
X100792219Y-76391584D01*
X100839057Y-76550726D01*
X100839060Y-76550756D01*
X100839065Y-76550774D01*
X100854095Y-76715932D01*
X100836760Y-76880867D01*
X100836756Y-76880881D01*
X100836752Y-76880916D01*
X100787697Y-77039388D01*
X100708795Y-77185314D01*
X100603052Y-77313135D01*
X100474496Y-77417983D01*
X100328023Y-77495864D01*
X100169212Y-77543812D01*
X100004113Y-77560000D01*
X99995852Y-77560000D01*
X99989739Y-77559957D01*
X99984019Y-77559917D01*
X99819162Y-77541425D01*
X99661036Y-77491265D01*
X99515665Y-77411346D01*
X99388585Y-77304714D01*
X99284637Y-77175429D01*
X99207781Y-77028416D01*
X99160943Y-76869274D01*
X99160940Y-76869244D01*
X99160935Y-76869226D01*
X99145905Y-76704068D01*
X99163240Y-76539133D01*
X99163244Y-76539119D01*
X99163248Y-76539084D01*
X99212303Y-76380612D01*
X99291205Y-76234686D01*
X99396948Y-76106865D01*
X99525504Y-76002017D01*
X99671977Y-75924136D01*
X99830788Y-75876188D01*
X99995887Y-75860000D01*
X100004148Y-75860000D01*
X100010261Y-75860043D01*
X100010261Y-75860043D01*
G37*
G36*
X105078775Y-75750498D02*
X105222856Y-75780073D01*
X105358444Y-75837069D01*
X105480382Y-75919317D01*
X105584023Y-76023685D01*
X105665419Y-76146194D01*
X105721464Y-76282173D01*
X105749966Y-76426115D01*
X105749966Y-76426125D01*
X105750032Y-76426459D01*
X105747686Y-76594455D01*
X105747610Y-76594789D01*
X105747610Y-76594801D01*
X105715104Y-76737881D01*
X105655279Y-76872250D01*
X105570496Y-76992437D01*
X105463978Y-77093872D01*
X105339796Y-77172680D01*
X105202666Y-77225869D01*
X105057819Y-77251410D01*
X104910769Y-77248330D01*
X104767111Y-77216745D01*
X104632338Y-77157864D01*
X104511554Y-77073917D01*
X104409383Y-76968115D01*
X104329709Y-76844486D01*
X104275564Y-76707731D01*
X104249012Y-76563059D01*
X104251066Y-76415992D01*
X104281645Y-76272127D01*
X104339587Y-76136937D01*
X104422687Y-76015574D01*
X104527773Y-75912665D01*
X104650844Y-75832130D01*
X104787221Y-75777030D01*
X104931693Y-75749470D01*
X105078775Y-75750498D01*
X105078775Y-75750498D01*
G37*
G36*
X110010261Y-73730043D02*
X110015981Y-73730083D01*
X110180838Y-73748575D01*
X110338964Y-73798735D01*
X110484335Y-73878654D01*
X110611415Y-73985286D01*
X110715363Y-74114571D01*
X110792219Y-74261584D01*
X110839057Y-74420726D01*
X110839060Y-74420756D01*
X110839065Y-74420774D01*
X110854095Y-74585932D01*
X110836760Y-74750867D01*
X110836756Y-74750881D01*
X110836752Y-74750916D01*
X110787697Y-74909388D01*
X110708795Y-75055314D01*
X110603052Y-75183135D01*
X110474496Y-75287983D01*
X110328023Y-75365864D01*
X110169212Y-75413812D01*
X110004113Y-75430000D01*
X109995852Y-75430000D01*
X109989739Y-75429957D01*
X109984019Y-75429917D01*
X109819162Y-75411425D01*
X109661036Y-75361265D01*
X109515665Y-75281346D01*
X109388585Y-75174714D01*
X109284637Y-75045429D01*
X109207781Y-74898416D01*
X109160943Y-74739274D01*
X109160940Y-74739244D01*
X109160935Y-74739226D01*
X109145905Y-74574068D01*
X109163240Y-74409133D01*
X109163244Y-74409119D01*
X109163248Y-74409084D01*
X109212303Y-74250612D01*
X109291205Y-74104686D01*
X109396948Y-73976865D01*
X109525504Y-73872017D01*
X109671977Y-73794136D01*
X109830788Y-73746188D01*
X109995887Y-73730000D01*
X110004148Y-73730000D01*
X110010261Y-73730043D01*
X110010261Y-73730043D01*
G37*
G36*
X110010261Y-71190043D02*
X110015981Y-71190083D01*
X110180838Y-71208575D01*
X110338964Y-71258735D01*
X110484335Y-71338654D01*
X110611415Y-71445286D01*
X110715363Y-71574571D01*
X110792219Y-71721584D01*
X110839057Y-71880726D01*
X110839060Y-71880756D01*
X110839065Y-71880774D01*
X110854095Y-72045932D01*
X110836760Y-72210867D01*
X110836756Y-72210881D01*
X110836752Y-72210916D01*
X110787697Y-72369388D01*
X110708795Y-72515314D01*
X110603052Y-72643135D01*
X110474496Y-72747983D01*
X110328023Y-72825864D01*
X110169212Y-72873812D01*
X110004113Y-72890000D01*
X109995852Y-72890000D01*
X109989739Y-72889957D01*
X109984019Y-72889917D01*
X109819162Y-72871425D01*
X109661036Y-72821265D01*
X109515665Y-72741346D01*
X109388585Y-72634714D01*
X109284637Y-72505429D01*
X109207781Y-72358416D01*
X109160943Y-72199274D01*
X109160940Y-72199244D01*
X109160935Y-72199226D01*
X109145905Y-72034068D01*
X109163240Y-71869133D01*
X109163244Y-71869119D01*
X109163248Y-71869084D01*
X109212303Y-71710612D01*
X109291205Y-71564686D01*
X109396948Y-71436865D01*
X109525504Y-71332017D01*
X109671977Y-71254136D01*
X109830788Y-71206188D01*
X109995887Y-71190000D01*
X110004148Y-71190000D01*
X110010261Y-71190043D01*
X110010261Y-71190043D01*
G37*
G36*
X105078775Y-70870498D02*
X105222856Y-70900073D01*
X105358444Y-70957069D01*
X105480382Y-71039317D01*
X105584023Y-71143685D01*
X105665419Y-71266194D01*
X105721464Y-71402173D01*
X105749966Y-71546115D01*
X105749966Y-71546125D01*
X105750032Y-71546459D01*
X105747686Y-71714455D01*
X105747610Y-71714789D01*
X105747610Y-71714801D01*
X105715104Y-71857881D01*
X105655279Y-71992250D01*
X105570496Y-72112437D01*
X105463978Y-72213872D01*
X105339796Y-72292680D01*
X105202666Y-72345869D01*
X105057819Y-72371410D01*
X104910769Y-72368330D01*
X104767111Y-72336745D01*
X104632338Y-72277864D01*
X104511554Y-72193917D01*
X104409383Y-72088115D01*
X104329709Y-71964486D01*
X104275564Y-71827731D01*
X104249012Y-71683059D01*
X104251066Y-71535992D01*
X104281645Y-71392127D01*
X104339587Y-71256937D01*
X104422687Y-71135574D01*
X104527773Y-71032665D01*
X104650844Y-70952130D01*
X104787221Y-70897030D01*
X104931693Y-70869470D01*
X105078775Y-70870498D01*
X105078775Y-70870498D01*
G37*
G36*
X97630867Y-70663240D02*
X97630881Y-70663244D01*
X97630916Y-70663248D01*
X97789388Y-70712303D01*
X97935314Y-70791205D01*
X98063135Y-70896948D01*
X98167983Y-71025504D01*
X98245864Y-71171977D01*
X98293812Y-71330788D01*
X98310000Y-71495887D01*
X98310000Y-71504113D01*
X98309917Y-71515981D01*
X98291425Y-71680838D01*
X98241265Y-71838964D01*
X98161346Y-71984335D01*
X98054714Y-72111415D01*
X97925429Y-72215363D01*
X97778416Y-72292219D01*
X97619274Y-72339057D01*
X97619244Y-72339060D01*
X97619226Y-72339065D01*
X97454068Y-72354095D01*
X97289133Y-72336760D01*
X97289119Y-72336756D01*
X97289084Y-72336752D01*
X97130612Y-72287697D01*
X96984686Y-72208795D01*
X96856865Y-72103052D01*
X96752017Y-71974496D01*
X96674136Y-71828023D01*
X96626188Y-71669212D01*
X96610000Y-71504113D01*
X96610000Y-71495887D01*
X96610083Y-71484019D01*
X96628575Y-71319162D01*
X96678735Y-71161036D01*
X96758654Y-71015665D01*
X96865286Y-70888585D01*
X96994571Y-70784637D01*
X97141584Y-70707781D01*
X97300726Y-70660943D01*
X97300756Y-70660940D01*
X97300774Y-70660935D01*
X97465932Y-70645905D01*
X97630867Y-70663240D01*
X97630867Y-70663240D01*
G37*
G36*
X100850000Y-72350000D02*
X99150000Y-72350000D01*
X99150000Y-70650000D01*
X100850000Y-70650000D01*
X100850000Y-72350000D01*
X100850000Y-72350000D01*
G37*
G36*
X110850000Y-70350000D02*
X109150000Y-70350000D01*
X109150000Y-68650000D01*
X110850000Y-68650000D01*
X110850000Y-70350000D01*
X110850000Y-70350000D01*
G37*
G36*
X102625000Y-66925000D02*
X101775000Y-66925000D01*
X101775000Y-66075000D01*
X102625000Y-66075000D01*
X102625000Y-66925000D01*
X102625000Y-66925000D01*
G37*
M02*
