M48
METRIC,TZ
T1C0.400
T2C0.500
T3C0.762
T4C0.800
T5C0.900
T6C1.000
T7C2.300
T8C1.800
%
G90
G05
T1
X113961Y-81744
X114397Y-91890
X114544Y-72622
X115315Y-71484
X118212Y-74176
X118400Y-76728
X118980Y-65980
X119005Y-73726
X120800Y-72622
X123582Y-70779
X124179Y-73476
X125700Y-67058
X126690Y-68401
X128868Y-84084
X130149Y-68570
X131379Y-64649
X132700Y-87337
X132991Y-81276
X133034Y-86442
X133973Y-85595
X141574Y-71747
T2
X102200Y-66500
T3
X95750Y-87000
X100750Y-87000
X117750Y-91500
X117750Y-93500
X117750Y-95500
X117750Y-97500
X117750Y-99500
X120250Y-91500
X120250Y-93500
X120250Y-95500
X120250Y-97500
X120250Y-99500
T4
X95920Y-94000
X98460Y-91460
X101000Y-94000
X105000Y-71620
X105000Y-76500
T5
X105460Y-107500
X105500Y-91500
X105500Y-99500
X108000Y-107500
X108040Y-91500
X108040Y-99500
T6
X97460Y-71500
X97460Y-76710
X97460Y-79250
X97460Y-81790
X100000Y-71500
X100000Y-76710
X100000Y-79250
X100000Y-81790
X110000Y-69500
X110000Y-72040
X110000Y-74580
X110000Y-77120
X110000Y-79660
X115410Y-106530
X117950Y-106530
X119980Y-106530
X122520Y-106530
T7
X111850Y-109200
X125570Y-109200
T8
X119000Y-88500
X119000Y-102500
T0
M30
