G04 #@! TF.FileFunction,Soldermask,Top*
%FSLAX46Y46*%
G04 Gerber Fmt 4.6, Leading zero omitted, Abs format (unit mm)*
G04 Created by KiCad (PCBNEW 4.0.7) date Sat Jan 27 20:56:11 2018*
%MOMM*%
%LPD*%
G01*
G04 APERTURE LIST*
%ADD10C,0.100000*%
G04 APERTURE END LIST*
D10*
G36*
X112007551Y-107700997D02*
X112295710Y-107760148D01*
X112566888Y-107874140D01*
X112810766Y-108038638D01*
X113018042Y-108247366D01*
X113180834Y-108492387D01*
X113292928Y-108764350D01*
X113349999Y-109052574D01*
X113349999Y-109052588D01*
X113350064Y-109052917D01*
X113345373Y-109388910D01*
X113345297Y-109389244D01*
X113345297Y-109389255D01*
X113280203Y-109675764D01*
X113160554Y-109944500D01*
X112990992Y-110184872D01*
X112777959Y-110387740D01*
X112529591Y-110545358D01*
X112255332Y-110651738D01*
X111965638Y-110702818D01*
X111671537Y-110696658D01*
X111384229Y-110633489D01*
X111114672Y-110515722D01*
X110873112Y-110347834D01*
X110668768Y-110136230D01*
X110509419Y-109888968D01*
X110401129Y-109615459D01*
X110348025Y-109326121D01*
X110352133Y-109031986D01*
X110413293Y-108744252D01*
X110529178Y-108473872D01*
X110695372Y-108231152D01*
X110905547Y-108025333D01*
X111151692Y-107864260D01*
X111424438Y-107754063D01*
X111713390Y-107698943D01*
X112007551Y-107700997D01*
X112007551Y-107700997D01*
G37*
G36*
X125727551Y-107700997D02*
X126015710Y-107760148D01*
X126286888Y-107874140D01*
X126530766Y-108038638D01*
X126738042Y-108247366D01*
X126900834Y-108492387D01*
X127012928Y-108764350D01*
X127069999Y-109052574D01*
X127069999Y-109052588D01*
X127070064Y-109052917D01*
X127065373Y-109388910D01*
X127065297Y-109389244D01*
X127065297Y-109389255D01*
X127000203Y-109675764D01*
X126880554Y-109944500D01*
X126710992Y-110184872D01*
X126497959Y-110387740D01*
X126249591Y-110545358D01*
X125975332Y-110651738D01*
X125685638Y-110702818D01*
X125391537Y-110696658D01*
X125104229Y-110633489D01*
X124834672Y-110515722D01*
X124593112Y-110347834D01*
X124388768Y-110136230D01*
X124229419Y-109888968D01*
X124121129Y-109615459D01*
X124068025Y-109326121D01*
X124072133Y-109031986D01*
X124133293Y-108744252D01*
X124249178Y-108473872D01*
X124415372Y-108231152D01*
X124625547Y-108025333D01*
X124871692Y-107864260D01*
X125144438Y-107754063D01*
X125433390Y-107698943D01*
X125727551Y-107700997D01*
X125727551Y-107700997D01*
G37*
G36*
X97300000Y-110000000D02*
X95700000Y-110000000D01*
X95700000Y-109000000D01*
X97300000Y-109000000D01*
X97300000Y-110000000D01*
X97300000Y-110000000D01*
G37*
G36*
X102660000Y-108779200D02*
X101339200Y-108779200D01*
X101339200Y-108220400D01*
X102660000Y-108220400D01*
X102660000Y-108779200D01*
X102660000Y-108779200D01*
G37*
G36*
X99916800Y-108779200D02*
X98596000Y-108779200D01*
X98596000Y-108220400D01*
X99916800Y-108220400D01*
X99916800Y-108779200D01*
X99916800Y-108779200D01*
G37*
G36*
X108094531Y-106600597D02*
X108267427Y-106636088D01*
X108430132Y-106704483D01*
X108576458Y-106803180D01*
X108700828Y-106928422D01*
X108798502Y-107075433D01*
X108865757Y-107238608D01*
X108899973Y-107411407D01*
X108899973Y-107411416D01*
X108900039Y-107411750D01*
X108897224Y-107613346D01*
X108897148Y-107613680D01*
X108897148Y-107613691D01*
X108858123Y-107785459D01*
X108786334Y-107946699D01*
X108684592Y-108090927D01*
X108556778Y-108212644D01*
X108407755Y-108307216D01*
X108243199Y-108371043D01*
X108069383Y-108401692D01*
X107892923Y-108397996D01*
X107720536Y-108360094D01*
X107558800Y-108289433D01*
X107413869Y-108188703D01*
X107291260Y-108061738D01*
X107195651Y-107913382D01*
X107130676Y-107749277D01*
X107098814Y-107575672D01*
X107101279Y-107399191D01*
X107137974Y-107226552D01*
X107207506Y-107064322D01*
X107307222Y-106918691D01*
X107433328Y-106795198D01*
X107581015Y-106698555D01*
X107744663Y-106632437D01*
X107918032Y-106599365D01*
X108094531Y-106600597D01*
X108094531Y-106600597D01*
G37*
G36*
X106360000Y-108400000D02*
X104560000Y-108400000D01*
X104560000Y-106600000D01*
X106360000Y-106600000D01*
X106360000Y-108400000D01*
X106360000Y-108400000D01*
G37*
G36*
X102660000Y-107839400D02*
X101339200Y-107839400D01*
X101339200Y-107280600D01*
X102660000Y-107280600D01*
X102660000Y-107839400D01*
X102660000Y-107839400D01*
G37*
G36*
X115488775Y-105780498D02*
X115632856Y-105810073D01*
X115768444Y-105867069D01*
X115890382Y-105949317D01*
X115994023Y-106053685D01*
X116075419Y-106176194D01*
X116131464Y-106312173D01*
X116159966Y-106456115D01*
X116159966Y-106456125D01*
X116160032Y-106456459D01*
X116157686Y-106624455D01*
X116157610Y-106624789D01*
X116157610Y-106624801D01*
X116125104Y-106767881D01*
X116065279Y-106902250D01*
X115980496Y-107022437D01*
X115873978Y-107123872D01*
X115749796Y-107202680D01*
X115612666Y-107255869D01*
X115467819Y-107281410D01*
X115320769Y-107278330D01*
X115177111Y-107246745D01*
X115042338Y-107187864D01*
X114921554Y-107103917D01*
X114819383Y-106998115D01*
X114739709Y-106874486D01*
X114685564Y-106737731D01*
X114659012Y-106593059D01*
X114661066Y-106445992D01*
X114691645Y-106302127D01*
X114749587Y-106166937D01*
X114832687Y-106045574D01*
X114937773Y-105942665D01*
X115060844Y-105862130D01*
X115197221Y-105807030D01*
X115341693Y-105779470D01*
X115488775Y-105780498D01*
X115488775Y-105780498D01*
G37*
G36*
X118028775Y-105780498D02*
X118172856Y-105810073D01*
X118308444Y-105867069D01*
X118430382Y-105949317D01*
X118534023Y-106053685D01*
X118615419Y-106176194D01*
X118671464Y-106312173D01*
X118699966Y-106456115D01*
X118699966Y-106456125D01*
X118700032Y-106456459D01*
X118697686Y-106624455D01*
X118697610Y-106624789D01*
X118697610Y-106624801D01*
X118665104Y-106767881D01*
X118605279Y-106902250D01*
X118520496Y-107022437D01*
X118413978Y-107123872D01*
X118289796Y-107202680D01*
X118152666Y-107255869D01*
X118007819Y-107281410D01*
X117860769Y-107278330D01*
X117717111Y-107246745D01*
X117582338Y-107187864D01*
X117461554Y-107103917D01*
X117359383Y-106998115D01*
X117279709Y-106874486D01*
X117225564Y-106737731D01*
X117199012Y-106593059D01*
X117201066Y-106445992D01*
X117231645Y-106302127D01*
X117289587Y-106166937D01*
X117372687Y-106045574D01*
X117477773Y-105942665D01*
X117600844Y-105862130D01*
X117737221Y-105807030D01*
X117881693Y-105779470D01*
X118028775Y-105780498D01*
X118028775Y-105780498D01*
G37*
G36*
X120058775Y-105780498D02*
X120202856Y-105810073D01*
X120338444Y-105867069D01*
X120460382Y-105949317D01*
X120564023Y-106053685D01*
X120645419Y-106176194D01*
X120701464Y-106312173D01*
X120729966Y-106456115D01*
X120729966Y-106456125D01*
X120730032Y-106456459D01*
X120727686Y-106624455D01*
X120727610Y-106624789D01*
X120727610Y-106624801D01*
X120695104Y-106767881D01*
X120635279Y-106902250D01*
X120550496Y-107022437D01*
X120443978Y-107123872D01*
X120319796Y-107202680D01*
X120182666Y-107255869D01*
X120037819Y-107281410D01*
X119890769Y-107278330D01*
X119747111Y-107246745D01*
X119612338Y-107187864D01*
X119491554Y-107103917D01*
X119389383Y-106998115D01*
X119309709Y-106874486D01*
X119255564Y-106737731D01*
X119229012Y-106593059D01*
X119231066Y-106445992D01*
X119261645Y-106302127D01*
X119319587Y-106166937D01*
X119402687Y-106045574D01*
X119507773Y-105942665D01*
X119630844Y-105862130D01*
X119767221Y-105807030D01*
X119911693Y-105779470D01*
X120058775Y-105780498D01*
X120058775Y-105780498D01*
G37*
G36*
X122598775Y-105780498D02*
X122742856Y-105810073D01*
X122878444Y-105867069D01*
X123000382Y-105949317D01*
X123104023Y-106053685D01*
X123185419Y-106176194D01*
X123241464Y-106312173D01*
X123269966Y-106456115D01*
X123269966Y-106456125D01*
X123270032Y-106456459D01*
X123267686Y-106624455D01*
X123267610Y-106624789D01*
X123267610Y-106624801D01*
X123235104Y-106767881D01*
X123175279Y-106902250D01*
X123090496Y-107022437D01*
X122983978Y-107123872D01*
X122859796Y-107202680D01*
X122722666Y-107255869D01*
X122577819Y-107281410D01*
X122430769Y-107278330D01*
X122287111Y-107246745D01*
X122152338Y-107187864D01*
X122031554Y-107103917D01*
X121929383Y-106998115D01*
X121849709Y-106874486D01*
X121795564Y-106737731D01*
X121769012Y-106593059D01*
X121771066Y-106445992D01*
X121801645Y-106302127D01*
X121859587Y-106166937D01*
X121942687Y-106045574D01*
X122047773Y-105942665D01*
X122170844Y-105862130D01*
X122307221Y-105807030D01*
X122451693Y-105779470D01*
X122598775Y-105780498D01*
X122598775Y-105780498D01*
G37*
G36*
X97300000Y-107000000D02*
X95700000Y-107000000D01*
X95700000Y-106000000D01*
X97300000Y-106000000D01*
X97300000Y-107000000D01*
X97300000Y-107000000D01*
G37*
G36*
X99916800Y-106899600D02*
X98596000Y-106899600D01*
X98596000Y-106340800D01*
X99916800Y-106340800D01*
X99916800Y-106899600D01*
X99916800Y-106899600D01*
G37*
G36*
X102660000Y-106899600D02*
X101339200Y-106899600D01*
X101339200Y-106340800D01*
X102660000Y-106340800D01*
X102660000Y-106899600D01*
X102660000Y-106899600D01*
G37*
G36*
X128000000Y-104450000D02*
X127000000Y-104450000D01*
X127000000Y-101650000D01*
X128000000Y-101650000D01*
X128000000Y-104450000D01*
X128000000Y-104450000D01*
G37*
G36*
X141650000Y-104450000D02*
X140350000Y-104450000D01*
X140350000Y-102550000D01*
X141650000Y-102550000D01*
X141650000Y-104450000D01*
X141650000Y-104450000D01*
G37*
G36*
X113350000Y-104400000D02*
X111650000Y-104400000D01*
X111650000Y-103500000D01*
X113350000Y-103500000D01*
X113350000Y-104400000D01*
X113350000Y-104400000D01*
G37*
G36*
X98300000Y-104100000D02*
X97400000Y-104100000D01*
X97400000Y-102900000D01*
X98300000Y-102900000D01*
X98300000Y-104100000D01*
X98300000Y-104100000D01*
G37*
G36*
X101600000Y-104100000D02*
X100700000Y-104100000D01*
X100700000Y-102900000D01*
X101600000Y-102900000D01*
X101600000Y-104100000D01*
X101600000Y-104100000D01*
G37*
G36*
X119157551Y-101000997D02*
X119445710Y-101060148D01*
X119716888Y-101174140D01*
X119960766Y-101338638D01*
X120168042Y-101547366D01*
X120330834Y-101792387D01*
X120442928Y-102064350D01*
X120499999Y-102352574D01*
X120499999Y-102352588D01*
X120500064Y-102352917D01*
X120495373Y-102688910D01*
X120495297Y-102689244D01*
X120495297Y-102689255D01*
X120430203Y-102975764D01*
X120310554Y-103244500D01*
X120140992Y-103484872D01*
X119927959Y-103687740D01*
X119679591Y-103845358D01*
X119405332Y-103951738D01*
X119115638Y-104002818D01*
X118821537Y-103996658D01*
X118534229Y-103933489D01*
X118264672Y-103815722D01*
X118023112Y-103647834D01*
X117818768Y-103436230D01*
X117659419Y-103188968D01*
X117551129Y-102915459D01*
X117498025Y-102626121D01*
X117502133Y-102331986D01*
X117563293Y-102044252D01*
X117679178Y-101773872D01*
X117845372Y-101531152D01*
X118055547Y-101325333D01*
X118301692Y-101164260D01*
X118574438Y-101054063D01*
X118863390Y-100998943D01*
X119157551Y-101000997D01*
X119157551Y-101000997D01*
G37*
G36*
X113350000Y-101500000D02*
X111650000Y-101500000D01*
X111650000Y-100600000D01*
X113350000Y-100600000D01*
X113350000Y-101500000D01*
X113350000Y-101500000D01*
G37*
G36*
X102800000Y-101000000D02*
X101200000Y-101000000D01*
X101200000Y-100000000D01*
X102800000Y-100000000D01*
X102800000Y-101000000D01*
X102800000Y-101000000D01*
G37*
G36*
X108134531Y-98600597D02*
X108307427Y-98636088D01*
X108470132Y-98704483D01*
X108616458Y-98803180D01*
X108740828Y-98928422D01*
X108838502Y-99075433D01*
X108905757Y-99238608D01*
X108939973Y-99411407D01*
X108939973Y-99411416D01*
X108940039Y-99411750D01*
X108937224Y-99613346D01*
X108937148Y-99613680D01*
X108937148Y-99613691D01*
X108898123Y-99785459D01*
X108826334Y-99946699D01*
X108724592Y-100090927D01*
X108596778Y-100212644D01*
X108447755Y-100307216D01*
X108283199Y-100371043D01*
X108109383Y-100401692D01*
X107932923Y-100397996D01*
X107760536Y-100360094D01*
X107598800Y-100289433D01*
X107453869Y-100188703D01*
X107331260Y-100061738D01*
X107235651Y-99913382D01*
X107170676Y-99749277D01*
X107138814Y-99575672D01*
X107141279Y-99399191D01*
X107177974Y-99226552D01*
X107247506Y-99064322D01*
X107347222Y-98918691D01*
X107473328Y-98795198D01*
X107621015Y-98698555D01*
X107784663Y-98632437D01*
X107958032Y-98599365D01*
X108134531Y-98600597D01*
X108134531Y-98600597D01*
G37*
G36*
X106400000Y-100400000D02*
X104600000Y-100400000D01*
X104600000Y-98600000D01*
X106400000Y-98600000D01*
X106400000Y-100400000D01*
X106400000Y-100400000D01*
G37*
G36*
X117830036Y-98738506D02*
X117976422Y-98768555D01*
X118114179Y-98826462D01*
X118238068Y-98910026D01*
X118343368Y-99016064D01*
X118426066Y-99140534D01*
X118483008Y-99278688D01*
X118511967Y-99424938D01*
X118511967Y-99424948D01*
X118512033Y-99425282D01*
X118509649Y-99595966D01*
X118509573Y-99596300D01*
X118509573Y-99596311D01*
X118476544Y-99741688D01*
X118415763Y-99878205D01*
X118329624Y-100000316D01*
X118221402Y-100103374D01*
X118095233Y-100183443D01*
X117955908Y-100237484D01*
X117808745Y-100263432D01*
X117659342Y-100260303D01*
X117513387Y-100228213D01*
X117376450Y-100168386D01*
X117253742Y-100083102D01*
X117149935Y-99975606D01*
X117068983Y-99849995D01*
X117013973Y-99711055D01*
X116986996Y-99564068D01*
X116989083Y-99414648D01*
X117020151Y-99268481D01*
X117079022Y-99131126D01*
X117163448Y-99007825D01*
X117270218Y-98903268D01*
X117395259Y-98821443D01*
X117533814Y-98765463D01*
X117680600Y-98737462D01*
X117830036Y-98738506D01*
X117830036Y-98738506D01*
G37*
G36*
X120330036Y-98738506D02*
X120476422Y-98768555D01*
X120614179Y-98826462D01*
X120738068Y-98910026D01*
X120843368Y-99016064D01*
X120926066Y-99140534D01*
X120983008Y-99278688D01*
X121011967Y-99424938D01*
X121011967Y-99424948D01*
X121012033Y-99425282D01*
X121009649Y-99595966D01*
X121009573Y-99596300D01*
X121009573Y-99596311D01*
X120976544Y-99741688D01*
X120915763Y-99878205D01*
X120829624Y-100000316D01*
X120721402Y-100103374D01*
X120595233Y-100183443D01*
X120455908Y-100237484D01*
X120308745Y-100263432D01*
X120159342Y-100260303D01*
X120013387Y-100228213D01*
X119876450Y-100168386D01*
X119753742Y-100083102D01*
X119649935Y-99975606D01*
X119568983Y-99849995D01*
X119513973Y-99711055D01*
X119486996Y-99564068D01*
X119489083Y-99414648D01*
X119520151Y-99268481D01*
X119579022Y-99131126D01*
X119663448Y-99007825D01*
X119770218Y-98903268D01*
X119895259Y-98821443D01*
X120033814Y-98765463D01*
X120180600Y-98737462D01*
X120330036Y-98738506D01*
X120330036Y-98738506D01*
G37*
G36*
X97300000Y-100150000D02*
X96500000Y-100150000D01*
X96500000Y-99250000D01*
X97300000Y-99250000D01*
X97300000Y-100150000D01*
X97300000Y-100150000D01*
G37*
G36*
X128000000Y-99300000D02*
X127000000Y-99300000D01*
X127000000Y-98500000D01*
X128000000Y-98500000D01*
X128000000Y-99300000D01*
X128000000Y-99300000D01*
G37*
G36*
X113350000Y-98400000D02*
X111650000Y-98400000D01*
X111650000Y-97500000D01*
X113350000Y-97500000D01*
X113350000Y-98400000D01*
X113350000Y-98400000D01*
G37*
G36*
X117830036Y-96738506D02*
X117976422Y-96768555D01*
X118114179Y-96826462D01*
X118238068Y-96910026D01*
X118343368Y-97016064D01*
X118426066Y-97140534D01*
X118483008Y-97278688D01*
X118511967Y-97424938D01*
X118511967Y-97424948D01*
X118512033Y-97425282D01*
X118509649Y-97595966D01*
X118509573Y-97596300D01*
X118509573Y-97596311D01*
X118476544Y-97741688D01*
X118415763Y-97878205D01*
X118329624Y-98000316D01*
X118221402Y-98103374D01*
X118095233Y-98183443D01*
X117955908Y-98237484D01*
X117808745Y-98263432D01*
X117659342Y-98260303D01*
X117513387Y-98228213D01*
X117376450Y-98168386D01*
X117253742Y-98083102D01*
X117149935Y-97975606D01*
X117068983Y-97849995D01*
X117013973Y-97711055D01*
X116986996Y-97564068D01*
X116989083Y-97414648D01*
X117020151Y-97268481D01*
X117079022Y-97131126D01*
X117163448Y-97007825D01*
X117270218Y-96903268D01*
X117395259Y-96821443D01*
X117533814Y-96765463D01*
X117680600Y-96737462D01*
X117830036Y-96738506D01*
X117830036Y-96738506D01*
G37*
G36*
X120330036Y-96738506D02*
X120476422Y-96768555D01*
X120614179Y-96826462D01*
X120738068Y-96910026D01*
X120843368Y-97016064D01*
X120926066Y-97140534D01*
X120983008Y-97278688D01*
X121011967Y-97424938D01*
X121011967Y-97424948D01*
X121012033Y-97425282D01*
X121009649Y-97595966D01*
X121009573Y-97596300D01*
X121009573Y-97596311D01*
X120976544Y-97741688D01*
X120915763Y-97878205D01*
X120829624Y-98000316D01*
X120721402Y-98103374D01*
X120595233Y-98183443D01*
X120455908Y-98237484D01*
X120308745Y-98263432D01*
X120159342Y-98260303D01*
X120013387Y-98228213D01*
X119876450Y-98168386D01*
X119753742Y-98083102D01*
X119649935Y-97975606D01*
X119568983Y-97849995D01*
X119513973Y-97711055D01*
X119486996Y-97564068D01*
X119489083Y-97414648D01*
X119520151Y-97268481D01*
X119579022Y-97131126D01*
X119663448Y-97007825D01*
X119770218Y-96903268D01*
X119895259Y-96821443D01*
X120033814Y-96765463D01*
X120180600Y-96737462D01*
X120330036Y-96738506D01*
X120330036Y-96738506D01*
G37*
G36*
X98650000Y-98150000D02*
X97850000Y-98150000D01*
X97850000Y-97250000D01*
X98650000Y-97250000D01*
X98650000Y-98150000D01*
X98650000Y-98150000D01*
G37*
G36*
X95950000Y-98150000D02*
X95150000Y-98150000D01*
X95150000Y-97250000D01*
X95950000Y-97250000D01*
X95950000Y-98150000D01*
X95950000Y-98150000D01*
G37*
G36*
X102800000Y-98000000D02*
X101200000Y-98000000D01*
X101200000Y-97000000D01*
X102800000Y-97000000D01*
X102800000Y-98000000D01*
X102800000Y-98000000D01*
G37*
G36*
X117830036Y-94738506D02*
X117976422Y-94768555D01*
X118114179Y-94826462D01*
X118238068Y-94910026D01*
X118343368Y-95016064D01*
X118426066Y-95140534D01*
X118483008Y-95278688D01*
X118511967Y-95424938D01*
X118511967Y-95424948D01*
X118512033Y-95425282D01*
X118509649Y-95595966D01*
X118509573Y-95596300D01*
X118509573Y-95596311D01*
X118476544Y-95741688D01*
X118415763Y-95878205D01*
X118329624Y-96000316D01*
X118221402Y-96103374D01*
X118095233Y-96183443D01*
X117955908Y-96237484D01*
X117808745Y-96263432D01*
X117659342Y-96260303D01*
X117513387Y-96228213D01*
X117376450Y-96168386D01*
X117253742Y-96083102D01*
X117149935Y-95975606D01*
X117068983Y-95849995D01*
X117013973Y-95711055D01*
X116986996Y-95564068D01*
X116989083Y-95414648D01*
X117020151Y-95268481D01*
X117079022Y-95131126D01*
X117163448Y-95007825D01*
X117270218Y-94903268D01*
X117395259Y-94821443D01*
X117533814Y-94765463D01*
X117680600Y-94737462D01*
X117830036Y-94738506D01*
X117830036Y-94738506D01*
G37*
G36*
X120330036Y-94738506D02*
X120476422Y-94768555D01*
X120614179Y-94826462D01*
X120738068Y-94910026D01*
X120843368Y-95016064D01*
X120926066Y-95140534D01*
X120983008Y-95278688D01*
X121011967Y-95424938D01*
X121011967Y-95424948D01*
X121012033Y-95425282D01*
X121009649Y-95595966D01*
X121009573Y-95596300D01*
X121009573Y-95596311D01*
X120976544Y-95741688D01*
X120915763Y-95878205D01*
X120829624Y-96000316D01*
X120721402Y-96103374D01*
X120595233Y-96183443D01*
X120455908Y-96237484D01*
X120308745Y-96263432D01*
X120159342Y-96260303D01*
X120013387Y-96228213D01*
X119876450Y-96168386D01*
X119753742Y-96083102D01*
X119649935Y-95975606D01*
X119568983Y-95849995D01*
X119513973Y-95711055D01*
X119486996Y-95564068D01*
X119489083Y-95414648D01*
X119520151Y-95268481D01*
X119579022Y-95131126D01*
X119663448Y-95007825D01*
X119770218Y-94903268D01*
X119895259Y-94821443D01*
X120033814Y-94765463D01*
X120180600Y-94737462D01*
X120330036Y-94738506D01*
X120330036Y-94738506D01*
G37*
G36*
X113350000Y-95500000D02*
X111650000Y-95500000D01*
X111650000Y-94600000D01*
X113350000Y-94600000D01*
X113350000Y-95500000D01*
X113350000Y-95500000D01*
G37*
G36*
X101260852Y-93250042D02*
X101265311Y-93250073D01*
X101410773Y-93266389D01*
X101550295Y-93310648D01*
X101678564Y-93381165D01*
X101790694Y-93475252D01*
X101882412Y-93589328D01*
X101950227Y-93719045D01*
X101991554Y-93859464D01*
X101991557Y-93859493D01*
X101991562Y-93859511D01*
X102004824Y-94005233D01*
X101989527Y-94150760D01*
X101989524Y-94150770D01*
X101989520Y-94150808D01*
X101946236Y-94290637D01*
X101876617Y-94419395D01*
X101783315Y-94532178D01*
X101669883Y-94624691D01*
X101540642Y-94693410D01*
X101400515Y-94735716D01*
X101254839Y-94750000D01*
X100745125Y-94750000D01*
X100739148Y-94749958D01*
X100734689Y-94749927D01*
X100589227Y-94733611D01*
X100449705Y-94689352D01*
X100321436Y-94618835D01*
X100209306Y-94524748D01*
X100117588Y-94410672D01*
X100049773Y-94280955D01*
X100008446Y-94140536D01*
X100008443Y-94140507D01*
X100008438Y-94140489D01*
X99995176Y-93994767D01*
X100010473Y-93849240D01*
X100010476Y-93849230D01*
X100010480Y-93849192D01*
X100053764Y-93709363D01*
X100123383Y-93580605D01*
X100216685Y-93467822D01*
X100330117Y-93375309D01*
X100459358Y-93306590D01*
X100599485Y-93264284D01*
X100745161Y-93250000D01*
X101254875Y-93250000D01*
X101260852Y-93250042D01*
X101260852Y-93250042D01*
G37*
G36*
X96920000Y-94750000D02*
X94920000Y-94750000D01*
X94920000Y-93250000D01*
X96920000Y-93250000D01*
X96920000Y-94750000D01*
X96920000Y-94750000D01*
G37*
G36*
X120330036Y-92738506D02*
X120476422Y-92768555D01*
X120614179Y-92826462D01*
X120738068Y-92910026D01*
X120843368Y-93016064D01*
X120926066Y-93140534D01*
X120983008Y-93278688D01*
X121011967Y-93424938D01*
X121011967Y-93424948D01*
X121012033Y-93425282D01*
X121009649Y-93595966D01*
X121009573Y-93596300D01*
X121009573Y-93596311D01*
X120976544Y-93741688D01*
X120915763Y-93878205D01*
X120829624Y-94000316D01*
X120721402Y-94103374D01*
X120595233Y-94183443D01*
X120455908Y-94237484D01*
X120308745Y-94263432D01*
X120159342Y-94260303D01*
X120013387Y-94228213D01*
X119876450Y-94168386D01*
X119753742Y-94083102D01*
X119649935Y-93975606D01*
X119568983Y-93849995D01*
X119513973Y-93711055D01*
X119486996Y-93564068D01*
X119489083Y-93414648D01*
X119520151Y-93268481D01*
X119579022Y-93131126D01*
X119663448Y-93007825D01*
X119770218Y-92903268D01*
X119895259Y-92821443D01*
X120033814Y-92765463D01*
X120180600Y-92737462D01*
X120330036Y-92738506D01*
X120330036Y-92738506D01*
G37*
G36*
X117830036Y-92738506D02*
X117976422Y-92768555D01*
X118114179Y-92826462D01*
X118238068Y-92910026D01*
X118343368Y-93016064D01*
X118426066Y-93140534D01*
X118483008Y-93278688D01*
X118511967Y-93424938D01*
X118511967Y-93424948D01*
X118512033Y-93425282D01*
X118509649Y-93595966D01*
X118509573Y-93596300D01*
X118509573Y-93596311D01*
X118476544Y-93741688D01*
X118415763Y-93878205D01*
X118329624Y-94000316D01*
X118221402Y-94103374D01*
X118095233Y-94183443D01*
X117955908Y-94237484D01*
X117808745Y-94263432D01*
X117659342Y-94260303D01*
X117513387Y-94228213D01*
X117376450Y-94168386D01*
X117253742Y-94083102D01*
X117149935Y-93975606D01*
X117068983Y-93849995D01*
X117013973Y-93711055D01*
X116986996Y-93564068D01*
X116989083Y-93414648D01*
X117020151Y-93268481D01*
X117079022Y-93131126D01*
X117163448Y-93007825D01*
X117270218Y-92903268D01*
X117395259Y-92821443D01*
X117533814Y-92765463D01*
X117680600Y-92737462D01*
X117830036Y-92738506D01*
X117830036Y-92738506D01*
G37*
G36*
X128000000Y-93300000D02*
X127000000Y-93300000D01*
X127000000Y-92100000D01*
X128000000Y-92100000D01*
X128000000Y-93300000D01*
X128000000Y-93300000D01*
G37*
G36*
X98610760Y-90470473D02*
X98610770Y-90470476D01*
X98610808Y-90470480D01*
X98750637Y-90513764D01*
X98879395Y-90583383D01*
X98992178Y-90676685D01*
X99084691Y-90790117D01*
X99153410Y-90919358D01*
X99195716Y-91059485D01*
X99210000Y-91205161D01*
X99210000Y-91714839D01*
X99209927Y-91725311D01*
X99193611Y-91870773D01*
X99149352Y-92010295D01*
X99078835Y-92138564D01*
X98984748Y-92250694D01*
X98870672Y-92342412D01*
X98740955Y-92410227D01*
X98600536Y-92451554D01*
X98600507Y-92451557D01*
X98600489Y-92451562D01*
X98454767Y-92464824D01*
X98309240Y-92449527D01*
X98309230Y-92449524D01*
X98309192Y-92449520D01*
X98169363Y-92406236D01*
X98040605Y-92336617D01*
X97927822Y-92243315D01*
X97835309Y-92129883D01*
X97766590Y-92000642D01*
X97724284Y-91860515D01*
X97710000Y-91714839D01*
X97710000Y-91205161D01*
X97710073Y-91194689D01*
X97726389Y-91049227D01*
X97770648Y-90909705D01*
X97841165Y-90781436D01*
X97935252Y-90669306D01*
X98049328Y-90577588D01*
X98179045Y-90509773D01*
X98319464Y-90468446D01*
X98319493Y-90468443D01*
X98319511Y-90468438D01*
X98465233Y-90455176D01*
X98610760Y-90470473D01*
X98610760Y-90470473D01*
G37*
G36*
X108134531Y-90600597D02*
X108307427Y-90636088D01*
X108470132Y-90704483D01*
X108616458Y-90803180D01*
X108740828Y-90928422D01*
X108838502Y-91075433D01*
X108905757Y-91238608D01*
X108939973Y-91411407D01*
X108939973Y-91411416D01*
X108940039Y-91411750D01*
X108937224Y-91613346D01*
X108937148Y-91613680D01*
X108937148Y-91613691D01*
X108898123Y-91785459D01*
X108826334Y-91946699D01*
X108724592Y-92090927D01*
X108596778Y-92212644D01*
X108447755Y-92307216D01*
X108283199Y-92371043D01*
X108109383Y-92401692D01*
X107932923Y-92397996D01*
X107760536Y-92360094D01*
X107598800Y-92289433D01*
X107453869Y-92188703D01*
X107331260Y-92061738D01*
X107235651Y-91913382D01*
X107170676Y-91749277D01*
X107138814Y-91575672D01*
X107141279Y-91399191D01*
X107177974Y-91226552D01*
X107247506Y-91064322D01*
X107347222Y-90918691D01*
X107473328Y-90795198D01*
X107621015Y-90698555D01*
X107784663Y-90632437D01*
X107958032Y-90599365D01*
X108134531Y-90600597D01*
X108134531Y-90600597D01*
G37*
G36*
X113350000Y-92400000D02*
X111650000Y-92400000D01*
X111650000Y-91500000D01*
X113350000Y-91500000D01*
X113350000Y-92400000D01*
X113350000Y-92400000D01*
G37*
G36*
X106400000Y-92400000D02*
X104600000Y-92400000D01*
X104600000Y-90600000D01*
X106400000Y-90600000D01*
X106400000Y-92400000D01*
X106400000Y-92400000D01*
G37*
G36*
X117830036Y-90738506D02*
X117976422Y-90768555D01*
X118114179Y-90826462D01*
X118238068Y-90910026D01*
X118343368Y-91016064D01*
X118426066Y-91140534D01*
X118483008Y-91278688D01*
X118511967Y-91424938D01*
X118511967Y-91424948D01*
X118512033Y-91425282D01*
X118509649Y-91595966D01*
X118509573Y-91596300D01*
X118509573Y-91596311D01*
X118476544Y-91741688D01*
X118415763Y-91878205D01*
X118329624Y-92000316D01*
X118221402Y-92103374D01*
X118095233Y-92183443D01*
X117955908Y-92237484D01*
X117808745Y-92263432D01*
X117659342Y-92260303D01*
X117513387Y-92228213D01*
X117376450Y-92168386D01*
X117253742Y-92083102D01*
X117149935Y-91975606D01*
X117068983Y-91849995D01*
X117013973Y-91711055D01*
X116986996Y-91564068D01*
X116989083Y-91414648D01*
X117020151Y-91268481D01*
X117079022Y-91131126D01*
X117163448Y-91007825D01*
X117270218Y-90903268D01*
X117395259Y-90821443D01*
X117533814Y-90765463D01*
X117680600Y-90737462D01*
X117830036Y-90738506D01*
X117830036Y-90738506D01*
G37*
G36*
X120330036Y-90738506D02*
X120476422Y-90768555D01*
X120614179Y-90826462D01*
X120738068Y-90910026D01*
X120843368Y-91016064D01*
X120926066Y-91140534D01*
X120983008Y-91278688D01*
X121011967Y-91424938D01*
X121011967Y-91424948D01*
X121012033Y-91425282D01*
X121009649Y-91595966D01*
X121009573Y-91596300D01*
X121009573Y-91596311D01*
X120976544Y-91741688D01*
X120915763Y-91878205D01*
X120829624Y-92000316D01*
X120721402Y-92103374D01*
X120595233Y-92183443D01*
X120455908Y-92237484D01*
X120308745Y-92263432D01*
X120159342Y-92260303D01*
X120013387Y-92228213D01*
X119876450Y-92168386D01*
X119753742Y-92083102D01*
X119649935Y-91975606D01*
X119568983Y-91849995D01*
X119513973Y-91711055D01*
X119486996Y-91564068D01*
X119489083Y-91414648D01*
X119520151Y-91268481D01*
X119579022Y-91131126D01*
X119663448Y-91007825D01*
X119770218Y-90903268D01*
X119895259Y-90821443D01*
X120033814Y-90765463D01*
X120180600Y-90737462D01*
X120330036Y-90738506D01*
X120330036Y-90738506D01*
G37*
G36*
X119157551Y-87000997D02*
X119445710Y-87060148D01*
X119716888Y-87174140D01*
X119960766Y-87338638D01*
X120168042Y-87547366D01*
X120330834Y-87792387D01*
X120442928Y-88064350D01*
X120499999Y-88352574D01*
X120499999Y-88352588D01*
X120500064Y-88352917D01*
X120495373Y-88688910D01*
X120495297Y-88689244D01*
X120495297Y-88689255D01*
X120430203Y-88975764D01*
X120310554Y-89244500D01*
X120140992Y-89484872D01*
X119927959Y-89687740D01*
X119679591Y-89845358D01*
X119405332Y-89951738D01*
X119115638Y-90002818D01*
X118821537Y-89996658D01*
X118534229Y-89933489D01*
X118264672Y-89815722D01*
X118023112Y-89647834D01*
X117818768Y-89436230D01*
X117659419Y-89188968D01*
X117551129Y-88915459D01*
X117498025Y-88626121D01*
X117502133Y-88331986D01*
X117563293Y-88044252D01*
X117679178Y-87773872D01*
X117845372Y-87531152D01*
X118055547Y-87325333D01*
X118301692Y-87164260D01*
X118574438Y-87054063D01*
X118863390Y-86998943D01*
X119157551Y-87000997D01*
X119157551Y-87000997D01*
G37*
G36*
X113350000Y-89500000D02*
X111650000Y-89500000D01*
X111650000Y-88600000D01*
X113350000Y-88600000D01*
X113350000Y-89500000D01*
X113350000Y-89500000D01*
G37*
G36*
X133050000Y-89000000D02*
X132350000Y-89000000D01*
X132350000Y-87800000D01*
X133050000Y-87800000D01*
X133050000Y-89000000D01*
X133050000Y-89000000D01*
G37*
G36*
X128800000Y-89000000D02*
X128100000Y-89000000D01*
X128100000Y-87800000D01*
X128800000Y-87800000D01*
X128800000Y-89000000D01*
X128800000Y-89000000D01*
G37*
G36*
X130850000Y-89000000D02*
X130150000Y-89000000D01*
X130150000Y-87800000D01*
X130850000Y-87800000D01*
X130850000Y-89000000D01*
X130850000Y-89000000D01*
G37*
G36*
X131950000Y-89000000D02*
X131250000Y-89000000D01*
X131250000Y-87800000D01*
X131950000Y-87800000D01*
X131950000Y-89000000D01*
X131950000Y-89000000D01*
G37*
G36*
X134150000Y-89000000D02*
X133450000Y-89000000D01*
X133450000Y-87800000D01*
X134150000Y-87800000D01*
X134150000Y-89000000D01*
X134150000Y-89000000D01*
G37*
G36*
X135250000Y-89000000D02*
X134550000Y-89000000D01*
X134550000Y-87800000D01*
X135250000Y-87800000D01*
X135250000Y-89000000D01*
X135250000Y-89000000D01*
G37*
G36*
X137450000Y-89000000D02*
X136750000Y-89000000D01*
X136750000Y-87800000D01*
X137450000Y-87800000D01*
X137450000Y-89000000D01*
X137450000Y-89000000D01*
G37*
G36*
X139150000Y-89000000D02*
X138150000Y-89000000D01*
X138150000Y-87800000D01*
X139150000Y-87800000D01*
X139150000Y-89000000D01*
X139150000Y-89000000D01*
G37*
G36*
X136350000Y-89000000D02*
X135650000Y-89000000D01*
X135650000Y-87800000D01*
X136350000Y-87800000D01*
X136350000Y-89000000D01*
X136350000Y-89000000D01*
G37*
G36*
X129750000Y-89000000D02*
X129050000Y-89000000D01*
X129050000Y-87800000D01*
X129750000Y-87800000D01*
X129750000Y-89000000D01*
X129750000Y-89000000D01*
G37*
G36*
X100830036Y-86238506D02*
X100976422Y-86268555D01*
X101114179Y-86326462D01*
X101238068Y-86410026D01*
X101343368Y-86516064D01*
X101426066Y-86640534D01*
X101483008Y-86778688D01*
X101511967Y-86924938D01*
X101511967Y-86924948D01*
X101512033Y-86925282D01*
X101509649Y-87095966D01*
X101509573Y-87096300D01*
X101509573Y-87096311D01*
X101476544Y-87241688D01*
X101415763Y-87378205D01*
X101329624Y-87500316D01*
X101221402Y-87603374D01*
X101095233Y-87683443D01*
X100955908Y-87737484D01*
X100808745Y-87763432D01*
X100659342Y-87760303D01*
X100513387Y-87728213D01*
X100376450Y-87668386D01*
X100253742Y-87583102D01*
X100149935Y-87475606D01*
X100068983Y-87349995D01*
X100013973Y-87211055D01*
X99986996Y-87064068D01*
X99989083Y-86914648D01*
X100020151Y-86768481D01*
X100079022Y-86631126D01*
X100163448Y-86507825D01*
X100270218Y-86403268D01*
X100395259Y-86321443D01*
X100533814Y-86265463D01*
X100680600Y-86237462D01*
X100830036Y-86238506D01*
X100830036Y-86238506D01*
G37*
G36*
X95830036Y-86238506D02*
X95976422Y-86268555D01*
X96114179Y-86326462D01*
X96238068Y-86410026D01*
X96343368Y-86516064D01*
X96426066Y-86640534D01*
X96483008Y-86778688D01*
X96511967Y-86924938D01*
X96511967Y-86924948D01*
X96512033Y-86925282D01*
X96509649Y-87095966D01*
X96509573Y-87096300D01*
X96509573Y-87096311D01*
X96476544Y-87241688D01*
X96415763Y-87378205D01*
X96329624Y-87500316D01*
X96221402Y-87603374D01*
X96095233Y-87683443D01*
X95955908Y-87737484D01*
X95808745Y-87763432D01*
X95659342Y-87760303D01*
X95513387Y-87728213D01*
X95376450Y-87668386D01*
X95253742Y-87583102D01*
X95149935Y-87475606D01*
X95068983Y-87349995D01*
X95013973Y-87211055D01*
X94986996Y-87064068D01*
X94989083Y-86914648D01*
X95020151Y-86768481D01*
X95079022Y-86631126D01*
X95163448Y-86507825D01*
X95270218Y-86403268D01*
X95395259Y-86321443D01*
X95533814Y-86265463D01*
X95680600Y-86237462D01*
X95830036Y-86238506D01*
X95830036Y-86238506D01*
G37*
G36*
X110500000Y-87300000D02*
X109500000Y-87300000D01*
X109500000Y-85700000D01*
X110500000Y-85700000D01*
X110500000Y-87300000D01*
X110500000Y-87300000D01*
G37*
G36*
X107500000Y-87300000D02*
X106500000Y-87300000D01*
X106500000Y-85700000D01*
X107500000Y-85700000D01*
X107500000Y-87300000D01*
X107500000Y-87300000D01*
G37*
G36*
X128400000Y-83850000D02*
X127500000Y-83850000D01*
X127500000Y-82150000D01*
X128400000Y-82150000D01*
X128400000Y-83850000D01*
X128400000Y-83850000D01*
G37*
G36*
X134000000Y-83850000D02*
X133100000Y-83850000D01*
X133100000Y-82150000D01*
X134000000Y-82150000D01*
X134000000Y-83850000D01*
X134000000Y-83850000D01*
G37*
G36*
X125500000Y-83850000D02*
X124600000Y-83850000D01*
X124600000Y-82150000D01*
X125500000Y-82150000D01*
X125500000Y-83850000D01*
X125500000Y-83850000D01*
G37*
G36*
X136900000Y-83850000D02*
X136000000Y-83850000D01*
X136000000Y-82150000D01*
X136900000Y-82150000D01*
X136900000Y-83850000D01*
X136900000Y-83850000D01*
G37*
G36*
X120000000Y-83800000D02*
X119000000Y-83800000D01*
X119000000Y-82200000D01*
X120000000Y-82200000D01*
X120000000Y-83800000D01*
X120000000Y-83800000D01*
G37*
G36*
X117000000Y-83800000D02*
X116000000Y-83800000D01*
X116000000Y-82200000D01*
X117000000Y-82200000D01*
X117000000Y-83800000D01*
X117000000Y-83800000D01*
G37*
G36*
X107500000Y-83800000D02*
X106500000Y-83800000D01*
X106500000Y-82200000D01*
X107500000Y-82200000D01*
X107500000Y-83800000D01*
X107500000Y-83800000D01*
G37*
G36*
X110500000Y-83800000D02*
X109500000Y-83800000D01*
X109500000Y-82200000D01*
X110500000Y-82200000D01*
X110500000Y-83800000D01*
X110500000Y-83800000D01*
G37*
G36*
X97470261Y-80940043D02*
X97475981Y-80940083D01*
X97640838Y-80958575D01*
X97798964Y-81008735D01*
X97944335Y-81088654D01*
X98071415Y-81195286D01*
X98175363Y-81324571D01*
X98252219Y-81471584D01*
X98299057Y-81630726D01*
X98299060Y-81630756D01*
X98299065Y-81630774D01*
X98314095Y-81795932D01*
X98296760Y-81960867D01*
X98296756Y-81960881D01*
X98296752Y-81960916D01*
X98247697Y-82119388D01*
X98168795Y-82265314D01*
X98063052Y-82393135D01*
X97934496Y-82497983D01*
X97788023Y-82575864D01*
X97629212Y-82623812D01*
X97464113Y-82640000D01*
X97455852Y-82640000D01*
X97449739Y-82639957D01*
X97444019Y-82639917D01*
X97279162Y-82621425D01*
X97121036Y-82571265D01*
X96975665Y-82491346D01*
X96848585Y-82384714D01*
X96744637Y-82255429D01*
X96667781Y-82108416D01*
X96620943Y-81949274D01*
X96620940Y-81949244D01*
X96620935Y-81949226D01*
X96605905Y-81784068D01*
X96623240Y-81619133D01*
X96623244Y-81619119D01*
X96623248Y-81619084D01*
X96672303Y-81460612D01*
X96751205Y-81314686D01*
X96856948Y-81186865D01*
X96985504Y-81082017D01*
X97131977Y-81004136D01*
X97290788Y-80956188D01*
X97455887Y-80940000D01*
X97464148Y-80940000D01*
X97470261Y-80940043D01*
X97470261Y-80940043D01*
G37*
G36*
X100850000Y-82640000D02*
X99150000Y-82640000D01*
X99150000Y-80940000D01*
X100850000Y-80940000D01*
X100850000Y-82640000D01*
X100850000Y-82640000D01*
G37*
G36*
X114050000Y-81250000D02*
X112450000Y-81250000D01*
X112450000Y-80250000D01*
X114050000Y-80250000D01*
X114050000Y-81250000D01*
X114050000Y-81250000D01*
G37*
G36*
X110010261Y-78810043D02*
X110015981Y-78810083D01*
X110180838Y-78828575D01*
X110338964Y-78878735D01*
X110484335Y-78958654D01*
X110611415Y-79065286D01*
X110715363Y-79194571D01*
X110792219Y-79341584D01*
X110839057Y-79500726D01*
X110839060Y-79500756D01*
X110839065Y-79500774D01*
X110854095Y-79665932D01*
X110836760Y-79830867D01*
X110836756Y-79830881D01*
X110836752Y-79830916D01*
X110787697Y-79989388D01*
X110708795Y-80135314D01*
X110603052Y-80263135D01*
X110474496Y-80367983D01*
X110328023Y-80445864D01*
X110169212Y-80493812D01*
X110004113Y-80510000D01*
X109995852Y-80510000D01*
X109989739Y-80509957D01*
X109984019Y-80509917D01*
X109819162Y-80491425D01*
X109661036Y-80441265D01*
X109515665Y-80361346D01*
X109388585Y-80254714D01*
X109284637Y-80125429D01*
X109207781Y-79978416D01*
X109160943Y-79819274D01*
X109160940Y-79819244D01*
X109160935Y-79819226D01*
X109145905Y-79654068D01*
X109163240Y-79489133D01*
X109163244Y-79489119D01*
X109163248Y-79489084D01*
X109212303Y-79330612D01*
X109291205Y-79184686D01*
X109396948Y-79056865D01*
X109525504Y-78952017D01*
X109671977Y-78874136D01*
X109830788Y-78826188D01*
X109995887Y-78810000D01*
X110004148Y-78810000D01*
X110010261Y-78810043D01*
X110010261Y-78810043D01*
G37*
G36*
X100010261Y-78400043D02*
X100015981Y-78400083D01*
X100180838Y-78418575D01*
X100338964Y-78468735D01*
X100484335Y-78548654D01*
X100611415Y-78655286D01*
X100715363Y-78784571D01*
X100792219Y-78931584D01*
X100839057Y-79090726D01*
X100839060Y-79090756D01*
X100839065Y-79090774D01*
X100854095Y-79255932D01*
X100836760Y-79420867D01*
X100836756Y-79420881D01*
X100836752Y-79420916D01*
X100787697Y-79579388D01*
X100708795Y-79725314D01*
X100603052Y-79853135D01*
X100474496Y-79957983D01*
X100328023Y-80035864D01*
X100169212Y-80083812D01*
X100004113Y-80100000D01*
X99995852Y-80100000D01*
X99989739Y-80099957D01*
X99984019Y-80099917D01*
X99819162Y-80081425D01*
X99661036Y-80031265D01*
X99515665Y-79951346D01*
X99388585Y-79844714D01*
X99284637Y-79715429D01*
X99207781Y-79568416D01*
X99160943Y-79409274D01*
X99160940Y-79409244D01*
X99160935Y-79409226D01*
X99145905Y-79244068D01*
X99163240Y-79079133D01*
X99163244Y-79079119D01*
X99163248Y-79079084D01*
X99212303Y-78920612D01*
X99291205Y-78774686D01*
X99396948Y-78646865D01*
X99525504Y-78542017D01*
X99671977Y-78464136D01*
X99830788Y-78416188D01*
X99995887Y-78400000D01*
X100004148Y-78400000D01*
X100010261Y-78400043D01*
X100010261Y-78400043D01*
G37*
G36*
X97470261Y-78400043D02*
X97475981Y-78400083D01*
X97640838Y-78418575D01*
X97798964Y-78468735D01*
X97944335Y-78548654D01*
X98071415Y-78655286D01*
X98175363Y-78784571D01*
X98252219Y-78931584D01*
X98299057Y-79090726D01*
X98299060Y-79090756D01*
X98299065Y-79090774D01*
X98314095Y-79255932D01*
X98296760Y-79420867D01*
X98296756Y-79420881D01*
X98296752Y-79420916D01*
X98247697Y-79579388D01*
X98168795Y-79725314D01*
X98063052Y-79853135D01*
X97934496Y-79957983D01*
X97788023Y-80035864D01*
X97629212Y-80083812D01*
X97464113Y-80100000D01*
X97455852Y-80100000D01*
X97449739Y-80099957D01*
X97444019Y-80099917D01*
X97279162Y-80081425D01*
X97121036Y-80031265D01*
X96975665Y-79951346D01*
X96848585Y-79844714D01*
X96744637Y-79715429D01*
X96667781Y-79568416D01*
X96620943Y-79409274D01*
X96620940Y-79409244D01*
X96620935Y-79409226D01*
X96605905Y-79244068D01*
X96623240Y-79079133D01*
X96623244Y-79079119D01*
X96623248Y-79079084D01*
X96672303Y-78920612D01*
X96751205Y-78774686D01*
X96856948Y-78646865D01*
X96985504Y-78542017D01*
X97131977Y-78464136D01*
X97290788Y-78416188D01*
X97455887Y-78400000D01*
X97464148Y-78400000D01*
X97470261Y-78400043D01*
X97470261Y-78400043D01*
G37*
G36*
X123475000Y-78800000D02*
X122925000Y-78800000D01*
X122925000Y-77200000D01*
X123475000Y-77200000D01*
X123475000Y-78800000D01*
X123475000Y-78800000D01*
G37*
G36*
X124275000Y-78800000D02*
X123725000Y-78800000D01*
X123725000Y-77200000D01*
X124275000Y-77200000D01*
X124275000Y-78800000D01*
X124275000Y-78800000D01*
G37*
G36*
X122675000Y-78800000D02*
X122125000Y-78800000D01*
X122125000Y-77200000D01*
X122675000Y-77200000D01*
X122675000Y-78800000D01*
X122675000Y-78800000D01*
G37*
G36*
X121875000Y-78800000D02*
X121325000Y-78800000D01*
X121325000Y-77200000D01*
X121875000Y-77200000D01*
X121875000Y-78800000D01*
X121875000Y-78800000D01*
G37*
G36*
X121075000Y-78800000D02*
X120525000Y-78800000D01*
X120525000Y-77200000D01*
X121075000Y-77200000D01*
X121075000Y-78800000D01*
X121075000Y-78800000D01*
G37*
G36*
X120275000Y-78800000D02*
X119725000Y-78800000D01*
X119725000Y-77200000D01*
X120275000Y-77200000D01*
X120275000Y-78800000D01*
X120275000Y-78800000D01*
G37*
G36*
X119475000Y-78800000D02*
X118925000Y-78800000D01*
X118925000Y-77200000D01*
X119475000Y-77200000D01*
X119475000Y-78800000D01*
X119475000Y-78800000D01*
G37*
G36*
X118675000Y-78800000D02*
X118125000Y-78800000D01*
X118125000Y-77200000D01*
X118675000Y-77200000D01*
X118675000Y-78800000D01*
X118675000Y-78800000D01*
G37*
G36*
X132000000Y-78350000D02*
X131100000Y-78350000D01*
X131100000Y-76650000D01*
X132000000Y-76650000D01*
X132000000Y-78350000D01*
X132000000Y-78350000D01*
G37*
G36*
X139000000Y-78350000D02*
X138100000Y-78350000D01*
X138100000Y-76650000D01*
X139000000Y-76650000D01*
X139000000Y-78350000D01*
X139000000Y-78350000D01*
G37*
G36*
X141900000Y-78350000D02*
X141000000Y-78350000D01*
X141000000Y-76650000D01*
X141900000Y-76650000D01*
X141900000Y-78350000D01*
X141900000Y-78350000D01*
G37*
G36*
X134900000Y-78350000D02*
X134000000Y-78350000D01*
X134000000Y-76650000D01*
X134900000Y-76650000D01*
X134900000Y-78350000D01*
X134900000Y-78350000D01*
G37*
G36*
X114050000Y-78250000D02*
X112450000Y-78250000D01*
X112450000Y-77250000D01*
X114050000Y-77250000D01*
X114050000Y-78250000D01*
X114050000Y-78250000D01*
G37*
G36*
X110010261Y-76270043D02*
X110015981Y-76270083D01*
X110180838Y-76288575D01*
X110338964Y-76338735D01*
X110484335Y-76418654D01*
X110611415Y-76525286D01*
X110715363Y-76654571D01*
X110792219Y-76801584D01*
X110839057Y-76960726D01*
X110839060Y-76960756D01*
X110839065Y-76960774D01*
X110854095Y-77125932D01*
X110836760Y-77290867D01*
X110836756Y-77290881D01*
X110836752Y-77290916D01*
X110787697Y-77449388D01*
X110708795Y-77595314D01*
X110603052Y-77723135D01*
X110474496Y-77827983D01*
X110328023Y-77905864D01*
X110169212Y-77953812D01*
X110004113Y-77970000D01*
X109995852Y-77970000D01*
X109989739Y-77969957D01*
X109984019Y-77969917D01*
X109819162Y-77951425D01*
X109661036Y-77901265D01*
X109515665Y-77821346D01*
X109388585Y-77714714D01*
X109284637Y-77585429D01*
X109207781Y-77438416D01*
X109160943Y-77279274D01*
X109160940Y-77279244D01*
X109160935Y-77279226D01*
X109145905Y-77114068D01*
X109163240Y-76949133D01*
X109163244Y-76949119D01*
X109163248Y-76949084D01*
X109212303Y-76790612D01*
X109291205Y-76644686D01*
X109396948Y-76516865D01*
X109525504Y-76412017D01*
X109671977Y-76334136D01*
X109830788Y-76286188D01*
X109995887Y-76270000D01*
X110004148Y-76270000D01*
X110010261Y-76270043D01*
X110010261Y-76270043D01*
G37*
G36*
X100010261Y-75860043D02*
X100015981Y-75860083D01*
X100180838Y-75878575D01*
X100338964Y-75928735D01*
X100484335Y-76008654D01*
X100611415Y-76115286D01*
X100715363Y-76244571D01*
X100792219Y-76391584D01*
X100839057Y-76550726D01*
X100839060Y-76550756D01*
X100839065Y-76550774D01*
X100854095Y-76715932D01*
X100836760Y-76880867D01*
X100836756Y-76880881D01*
X100836752Y-76880916D01*
X100787697Y-77039388D01*
X100708795Y-77185314D01*
X100603052Y-77313135D01*
X100474496Y-77417983D01*
X100328023Y-77495864D01*
X100169212Y-77543812D01*
X100004113Y-77560000D01*
X99995852Y-77560000D01*
X99989739Y-77559957D01*
X99984019Y-77559917D01*
X99819162Y-77541425D01*
X99661036Y-77491265D01*
X99515665Y-77411346D01*
X99388585Y-77304714D01*
X99284637Y-77175429D01*
X99207781Y-77028416D01*
X99160943Y-76869274D01*
X99160940Y-76869244D01*
X99160935Y-76869226D01*
X99145905Y-76704068D01*
X99163240Y-76539133D01*
X99163244Y-76539119D01*
X99163248Y-76539084D01*
X99212303Y-76380612D01*
X99291205Y-76234686D01*
X99396948Y-76106865D01*
X99525504Y-76002017D01*
X99671977Y-75924136D01*
X99830788Y-75876188D01*
X99995887Y-75860000D01*
X100004148Y-75860000D01*
X100010261Y-75860043D01*
X100010261Y-75860043D01*
G37*
G36*
X97470261Y-75860043D02*
X97475981Y-75860083D01*
X97640838Y-75878575D01*
X97798964Y-75928735D01*
X97944335Y-76008654D01*
X98071415Y-76115286D01*
X98175363Y-76244571D01*
X98252219Y-76391584D01*
X98299057Y-76550726D01*
X98299060Y-76550756D01*
X98299065Y-76550774D01*
X98314095Y-76715932D01*
X98296760Y-76880867D01*
X98296756Y-76880881D01*
X98296752Y-76880916D01*
X98247697Y-77039388D01*
X98168795Y-77185314D01*
X98063052Y-77313135D01*
X97934496Y-77417983D01*
X97788023Y-77495864D01*
X97629212Y-77543812D01*
X97464113Y-77560000D01*
X97455852Y-77560000D01*
X97449739Y-77559957D01*
X97444019Y-77559917D01*
X97279162Y-77541425D01*
X97121036Y-77491265D01*
X96975665Y-77411346D01*
X96848585Y-77304714D01*
X96744637Y-77175429D01*
X96667781Y-77028416D01*
X96620943Y-76869274D01*
X96620940Y-76869244D01*
X96620935Y-76869226D01*
X96605905Y-76704068D01*
X96623240Y-76539133D01*
X96623244Y-76539119D01*
X96623248Y-76539084D01*
X96672303Y-76380612D01*
X96751205Y-76234686D01*
X96856948Y-76106865D01*
X96985504Y-76002017D01*
X97131977Y-75924136D01*
X97290788Y-75876188D01*
X97455887Y-75860000D01*
X97464148Y-75860000D01*
X97470261Y-75860043D01*
X97470261Y-75860043D01*
G37*
G36*
X105078775Y-75750498D02*
X105222856Y-75780073D01*
X105358444Y-75837069D01*
X105480382Y-75919317D01*
X105584023Y-76023685D01*
X105665419Y-76146194D01*
X105721464Y-76282173D01*
X105749966Y-76426115D01*
X105749966Y-76426125D01*
X105750032Y-76426459D01*
X105747686Y-76594455D01*
X105747610Y-76594789D01*
X105747610Y-76594801D01*
X105715104Y-76737881D01*
X105655279Y-76872250D01*
X105570496Y-76992437D01*
X105463978Y-77093872D01*
X105339796Y-77172680D01*
X105202666Y-77225869D01*
X105057819Y-77251410D01*
X104910769Y-77248330D01*
X104767111Y-77216745D01*
X104632338Y-77157864D01*
X104511554Y-77073917D01*
X104409383Y-76968115D01*
X104329709Y-76844486D01*
X104275564Y-76707731D01*
X104249012Y-76563059D01*
X104251066Y-76415992D01*
X104281645Y-76272127D01*
X104339587Y-76136937D01*
X104422687Y-76015574D01*
X104527773Y-75912665D01*
X104650844Y-75832130D01*
X104787221Y-75777030D01*
X104931693Y-75749470D01*
X105078775Y-75750498D01*
X105078775Y-75750498D01*
G37*
G36*
X126250000Y-76825000D02*
X124650000Y-76825000D01*
X124650000Y-76275000D01*
X126250000Y-76275000D01*
X126250000Y-76825000D01*
X126250000Y-76825000D01*
G37*
G36*
X117750000Y-76825000D02*
X116150000Y-76825000D01*
X116150000Y-76275000D01*
X117750000Y-76275000D01*
X117750000Y-76825000D01*
X117750000Y-76825000D01*
G37*
G36*
X126250000Y-76025000D02*
X124650000Y-76025000D01*
X124650000Y-75475000D01*
X126250000Y-75475000D01*
X126250000Y-76025000D01*
X126250000Y-76025000D01*
G37*
G36*
X117750000Y-76025000D02*
X116150000Y-76025000D01*
X116150000Y-75475000D01*
X117750000Y-75475000D01*
X117750000Y-76025000D01*
X117750000Y-76025000D01*
G37*
G36*
X110010261Y-73730043D02*
X110015981Y-73730083D01*
X110180838Y-73748575D01*
X110338964Y-73798735D01*
X110484335Y-73878654D01*
X110611415Y-73985286D01*
X110715363Y-74114571D01*
X110792219Y-74261584D01*
X110839057Y-74420726D01*
X110839060Y-74420756D01*
X110839065Y-74420774D01*
X110854095Y-74585932D01*
X110836760Y-74750867D01*
X110836756Y-74750881D01*
X110836752Y-74750916D01*
X110787697Y-74909388D01*
X110708795Y-75055314D01*
X110603052Y-75183135D01*
X110474496Y-75287983D01*
X110328023Y-75365864D01*
X110169212Y-75413812D01*
X110004113Y-75430000D01*
X109995852Y-75430000D01*
X109989739Y-75429957D01*
X109984019Y-75429917D01*
X109819162Y-75411425D01*
X109661036Y-75361265D01*
X109515665Y-75281346D01*
X109388585Y-75174714D01*
X109284637Y-75045429D01*
X109207781Y-74898416D01*
X109160943Y-74739274D01*
X109160940Y-74739244D01*
X109160935Y-74739226D01*
X109145905Y-74574068D01*
X109163240Y-74409133D01*
X109163244Y-74409119D01*
X109163248Y-74409084D01*
X109212303Y-74250612D01*
X109291205Y-74104686D01*
X109396948Y-73976865D01*
X109525504Y-73872017D01*
X109671977Y-73794136D01*
X109830788Y-73746188D01*
X109995887Y-73730000D01*
X110004148Y-73730000D01*
X110010261Y-73730043D01*
X110010261Y-73730043D01*
G37*
G36*
X126250000Y-75225000D02*
X124650000Y-75225000D01*
X124650000Y-74675000D01*
X126250000Y-74675000D01*
X126250000Y-75225000D01*
X126250000Y-75225000D01*
G37*
G36*
X117750000Y-75225000D02*
X116150000Y-75225000D01*
X116150000Y-74675000D01*
X117750000Y-74675000D01*
X117750000Y-75225000D01*
X117750000Y-75225000D01*
G37*
G36*
X114050000Y-74500000D02*
X112450000Y-74500000D01*
X112450000Y-73500000D01*
X114050000Y-73500000D01*
X114050000Y-74500000D01*
X114050000Y-74500000D01*
G37*
G36*
X117750000Y-74425000D02*
X116150000Y-74425000D01*
X116150000Y-73875000D01*
X117750000Y-73875000D01*
X117750000Y-74425000D01*
X117750000Y-74425000D01*
G37*
G36*
X126250000Y-74425000D02*
X124650000Y-74425000D01*
X124650000Y-73875000D01*
X126250000Y-73875000D01*
X126250000Y-74425000D01*
X126250000Y-74425000D01*
G37*
G36*
X132000000Y-73900000D02*
X131000000Y-73900000D01*
X131000000Y-72300000D01*
X132000000Y-72300000D01*
X132000000Y-73900000D01*
X132000000Y-73900000D01*
G37*
G36*
X142000000Y-73900000D02*
X141000000Y-73900000D01*
X141000000Y-72300000D01*
X142000000Y-72300000D01*
X142000000Y-73900000D01*
X142000000Y-73900000D01*
G37*
G36*
X139000000Y-73900000D02*
X138000000Y-73900000D01*
X138000000Y-72300000D01*
X139000000Y-72300000D01*
X139000000Y-73900000D01*
X139000000Y-73900000D01*
G37*
G36*
X135000000Y-73900000D02*
X134000000Y-73900000D01*
X134000000Y-72300000D01*
X135000000Y-72300000D01*
X135000000Y-73900000D01*
X135000000Y-73900000D01*
G37*
G36*
X117750000Y-73625000D02*
X116150000Y-73625000D01*
X116150000Y-73075000D01*
X117750000Y-73075000D01*
X117750000Y-73625000D01*
X117750000Y-73625000D01*
G37*
G36*
X126250000Y-73625000D02*
X124650000Y-73625000D01*
X124650000Y-73075000D01*
X126250000Y-73075000D01*
X126250000Y-73625000D01*
X126250000Y-73625000D01*
G37*
G36*
X110010261Y-71190043D02*
X110015981Y-71190083D01*
X110180838Y-71208575D01*
X110338964Y-71258735D01*
X110484335Y-71338654D01*
X110611415Y-71445286D01*
X110715363Y-71574571D01*
X110792219Y-71721584D01*
X110839057Y-71880726D01*
X110839060Y-71880756D01*
X110839065Y-71880774D01*
X110854095Y-72045932D01*
X110836760Y-72210867D01*
X110836756Y-72210881D01*
X110836752Y-72210916D01*
X110787697Y-72369388D01*
X110708795Y-72515314D01*
X110603052Y-72643135D01*
X110474496Y-72747983D01*
X110328023Y-72825864D01*
X110169212Y-72873812D01*
X110004113Y-72890000D01*
X109995852Y-72890000D01*
X109989739Y-72889957D01*
X109984019Y-72889917D01*
X109819162Y-72871425D01*
X109661036Y-72821265D01*
X109515665Y-72741346D01*
X109388585Y-72634714D01*
X109284637Y-72505429D01*
X109207781Y-72358416D01*
X109160943Y-72199274D01*
X109160940Y-72199244D01*
X109160935Y-72199226D01*
X109145905Y-72034068D01*
X109163240Y-71869133D01*
X109163244Y-71869119D01*
X109163248Y-71869084D01*
X109212303Y-71710612D01*
X109291205Y-71564686D01*
X109396948Y-71436865D01*
X109525504Y-71332017D01*
X109671977Y-71254136D01*
X109830788Y-71206188D01*
X109995887Y-71190000D01*
X110004148Y-71190000D01*
X110010261Y-71190043D01*
X110010261Y-71190043D01*
G37*
G36*
X126250000Y-72825000D02*
X124650000Y-72825000D01*
X124650000Y-72275000D01*
X126250000Y-72275000D01*
X126250000Y-72825000D01*
X126250000Y-72825000D01*
G37*
G36*
X117750000Y-72825000D02*
X116150000Y-72825000D01*
X116150000Y-72275000D01*
X117750000Y-72275000D01*
X117750000Y-72825000D01*
X117750000Y-72825000D01*
G37*
G36*
X105078775Y-70870498D02*
X105222856Y-70900073D01*
X105358444Y-70957069D01*
X105480382Y-71039317D01*
X105584023Y-71143685D01*
X105665419Y-71266194D01*
X105721464Y-71402173D01*
X105749966Y-71546115D01*
X105749966Y-71546125D01*
X105750032Y-71546459D01*
X105747686Y-71714455D01*
X105747610Y-71714789D01*
X105747610Y-71714801D01*
X105715104Y-71857881D01*
X105655279Y-71992250D01*
X105570496Y-72112437D01*
X105463978Y-72213872D01*
X105339796Y-72292680D01*
X105202666Y-72345869D01*
X105057819Y-72371410D01*
X104910769Y-72368330D01*
X104767111Y-72336745D01*
X104632338Y-72277864D01*
X104511554Y-72193917D01*
X104409383Y-72088115D01*
X104329709Y-71964486D01*
X104275564Y-71827731D01*
X104249012Y-71683059D01*
X104251066Y-71535992D01*
X104281645Y-71392127D01*
X104339587Y-71256937D01*
X104422687Y-71135574D01*
X104527773Y-71032665D01*
X104650844Y-70952130D01*
X104787221Y-70897030D01*
X104931693Y-70869470D01*
X105078775Y-70870498D01*
X105078775Y-70870498D01*
G37*
G36*
X97630867Y-70663240D02*
X97630881Y-70663244D01*
X97630916Y-70663248D01*
X97789388Y-70712303D01*
X97935314Y-70791205D01*
X98063135Y-70896948D01*
X98167983Y-71025504D01*
X98245864Y-71171977D01*
X98293812Y-71330788D01*
X98310000Y-71495887D01*
X98310000Y-71504113D01*
X98309917Y-71515981D01*
X98291425Y-71680838D01*
X98241265Y-71838964D01*
X98161346Y-71984335D01*
X98054714Y-72111415D01*
X97925429Y-72215363D01*
X97778416Y-72292219D01*
X97619274Y-72339057D01*
X97619244Y-72339060D01*
X97619226Y-72339065D01*
X97454068Y-72354095D01*
X97289133Y-72336760D01*
X97289119Y-72336756D01*
X97289084Y-72336752D01*
X97130612Y-72287697D01*
X96984686Y-72208795D01*
X96856865Y-72103052D01*
X96752017Y-71974496D01*
X96674136Y-71828023D01*
X96626188Y-71669212D01*
X96610000Y-71504113D01*
X96610000Y-71495887D01*
X96610083Y-71484019D01*
X96628575Y-71319162D01*
X96678735Y-71161036D01*
X96758654Y-71015665D01*
X96865286Y-70888585D01*
X96994571Y-70784637D01*
X97141584Y-70707781D01*
X97300726Y-70660943D01*
X97300756Y-70660940D01*
X97300774Y-70660935D01*
X97465932Y-70645905D01*
X97630867Y-70663240D01*
X97630867Y-70663240D01*
G37*
G36*
X100850000Y-72350000D02*
X99150000Y-72350000D01*
X99150000Y-70650000D01*
X100850000Y-70650000D01*
X100850000Y-72350000D01*
X100850000Y-72350000D01*
G37*
G36*
X117750000Y-72025000D02*
X116150000Y-72025000D01*
X116150000Y-71475000D01*
X117750000Y-71475000D01*
X117750000Y-72025000D01*
X117750000Y-72025000D01*
G37*
G36*
X126250000Y-72025000D02*
X124650000Y-72025000D01*
X124650000Y-71475000D01*
X126250000Y-71475000D01*
X126250000Y-72025000D01*
X126250000Y-72025000D01*
G37*
G36*
X114050000Y-71500000D02*
X112450000Y-71500000D01*
X112450000Y-70500000D01*
X114050000Y-70500000D01*
X114050000Y-71500000D01*
X114050000Y-71500000D01*
G37*
G36*
X126250000Y-71225000D02*
X124650000Y-71225000D01*
X124650000Y-70675000D01*
X126250000Y-70675000D01*
X126250000Y-71225000D01*
X126250000Y-71225000D01*
G37*
G36*
X117750000Y-71225000D02*
X116150000Y-71225000D01*
X116150000Y-70675000D01*
X117750000Y-70675000D01*
X117750000Y-71225000D01*
X117750000Y-71225000D01*
G37*
G36*
X133530114Y-69526000D02*
X133530128Y-69526004D01*
X133530162Y-69526008D01*
X133558127Y-69534665D01*
X133583879Y-69548588D01*
X133606436Y-69567249D01*
X133624938Y-69589935D01*
X133638682Y-69615783D01*
X133647143Y-69643809D01*
X133650000Y-69672944D01*
X133650000Y-70227131D01*
X133649999Y-70227136D01*
X133649985Y-70229150D01*
X133646722Y-70258243D01*
X133637870Y-70286147D01*
X133623767Y-70311801D01*
X133604950Y-70334227D01*
X133582134Y-70352571D01*
X133556191Y-70366134D01*
X133528107Y-70374399D01*
X133528070Y-70374402D01*
X133528061Y-70374405D01*
X133498955Y-70377055D01*
X133469886Y-70374000D01*
X133469872Y-70373996D01*
X133469838Y-70373992D01*
X133441873Y-70365335D01*
X133416121Y-70351412D01*
X133393564Y-70332751D01*
X133375062Y-70310065D01*
X133361318Y-70284217D01*
X133352857Y-70256191D01*
X133350000Y-70227056D01*
X133350000Y-69672869D01*
X133350001Y-69672864D01*
X133350015Y-69670850D01*
X133353278Y-69641757D01*
X133362130Y-69613853D01*
X133376233Y-69588199D01*
X133395050Y-69565773D01*
X133417866Y-69547429D01*
X133443809Y-69533866D01*
X133471893Y-69525601D01*
X133471930Y-69525598D01*
X133471939Y-69525595D01*
X133501045Y-69522945D01*
X133530114Y-69526000D01*
X133530114Y-69526000D01*
G37*
G36*
X133030114Y-69526000D02*
X133030128Y-69526004D01*
X133030162Y-69526008D01*
X133058127Y-69534665D01*
X133083879Y-69548588D01*
X133106436Y-69567249D01*
X133124938Y-69589935D01*
X133138682Y-69615783D01*
X133147143Y-69643809D01*
X133150000Y-69672944D01*
X133150000Y-70227131D01*
X133149999Y-70227136D01*
X133149985Y-70229150D01*
X133146722Y-70258243D01*
X133137870Y-70286147D01*
X133123767Y-70311801D01*
X133104950Y-70334227D01*
X133082134Y-70352571D01*
X133056191Y-70366134D01*
X133028107Y-70374399D01*
X133028070Y-70374402D01*
X133028061Y-70374405D01*
X132998955Y-70377055D01*
X132969886Y-70374000D01*
X132969872Y-70373996D01*
X132969838Y-70373992D01*
X132941873Y-70365335D01*
X132916121Y-70351412D01*
X132893564Y-70332751D01*
X132875062Y-70310065D01*
X132861318Y-70284217D01*
X132852857Y-70256191D01*
X132850000Y-70227056D01*
X132850000Y-69672869D01*
X132850001Y-69672864D01*
X132850015Y-69670850D01*
X132853278Y-69641757D01*
X132862130Y-69613853D01*
X132876233Y-69588199D01*
X132895050Y-69565773D01*
X132917866Y-69547429D01*
X132943809Y-69533866D01*
X132971893Y-69525601D01*
X132971930Y-69525598D01*
X132971939Y-69525595D01*
X133001045Y-69522945D01*
X133030114Y-69526000D01*
X133030114Y-69526000D01*
G37*
G36*
X132530114Y-69526000D02*
X132530128Y-69526004D01*
X132530162Y-69526008D01*
X132558127Y-69534665D01*
X132583879Y-69548588D01*
X132606436Y-69567249D01*
X132624938Y-69589935D01*
X132638682Y-69615783D01*
X132647143Y-69643809D01*
X132650000Y-69672944D01*
X132650000Y-70227131D01*
X132649999Y-70227136D01*
X132649985Y-70229150D01*
X132646722Y-70258243D01*
X132637870Y-70286147D01*
X132623767Y-70311801D01*
X132604950Y-70334227D01*
X132582134Y-70352571D01*
X132556191Y-70366134D01*
X132528107Y-70374399D01*
X132528070Y-70374402D01*
X132528061Y-70374405D01*
X132498955Y-70377055D01*
X132469886Y-70374000D01*
X132469872Y-70373996D01*
X132469838Y-70373992D01*
X132441873Y-70365335D01*
X132416121Y-70351412D01*
X132393564Y-70332751D01*
X132375062Y-70310065D01*
X132361318Y-70284217D01*
X132352857Y-70256191D01*
X132350000Y-70227056D01*
X132350000Y-69672869D01*
X132350001Y-69672864D01*
X132350015Y-69670850D01*
X132353278Y-69641757D01*
X132362130Y-69613853D01*
X132376233Y-69588199D01*
X132395050Y-69565773D01*
X132417866Y-69547429D01*
X132443809Y-69533866D01*
X132471893Y-69525601D01*
X132471930Y-69525598D01*
X132471939Y-69525595D01*
X132501045Y-69522945D01*
X132530114Y-69526000D01*
X132530114Y-69526000D01*
G37*
G36*
X132030114Y-69526000D02*
X132030128Y-69526004D01*
X132030162Y-69526008D01*
X132058127Y-69534665D01*
X132083879Y-69548588D01*
X132106436Y-69567249D01*
X132124938Y-69589935D01*
X132138682Y-69615783D01*
X132147143Y-69643809D01*
X132150000Y-69672944D01*
X132150000Y-70227131D01*
X132149999Y-70227136D01*
X132149985Y-70229150D01*
X132146722Y-70258243D01*
X132137870Y-70286147D01*
X132123767Y-70311801D01*
X132104950Y-70334227D01*
X132082134Y-70352571D01*
X132056191Y-70366134D01*
X132028107Y-70374399D01*
X132028070Y-70374402D01*
X132028061Y-70374405D01*
X131998955Y-70377055D01*
X131969886Y-70374000D01*
X131969872Y-70373996D01*
X131969838Y-70373992D01*
X131941873Y-70365335D01*
X131916121Y-70351412D01*
X131893564Y-70332751D01*
X131875062Y-70310065D01*
X131861318Y-70284217D01*
X131852857Y-70256191D01*
X131850000Y-70227056D01*
X131850000Y-69672869D01*
X131850001Y-69672864D01*
X131850015Y-69670850D01*
X131853278Y-69641757D01*
X131862130Y-69613853D01*
X131876233Y-69588199D01*
X131895050Y-69565773D01*
X131917866Y-69547429D01*
X131943809Y-69533866D01*
X131971893Y-69525601D01*
X131971930Y-69525598D01*
X131971939Y-69525595D01*
X132001045Y-69522945D01*
X132030114Y-69526000D01*
X132030114Y-69526000D01*
G37*
G36*
X135030114Y-69526000D02*
X135030128Y-69526004D01*
X135030162Y-69526008D01*
X135058127Y-69534665D01*
X135083879Y-69548588D01*
X135106436Y-69567249D01*
X135124938Y-69589935D01*
X135138682Y-69615783D01*
X135147143Y-69643809D01*
X135150000Y-69672944D01*
X135150000Y-70227131D01*
X135149999Y-70227136D01*
X135149985Y-70229150D01*
X135146722Y-70258243D01*
X135137870Y-70286147D01*
X135123767Y-70311801D01*
X135104950Y-70334227D01*
X135082134Y-70352571D01*
X135056191Y-70366134D01*
X135028107Y-70374399D01*
X135028070Y-70374402D01*
X135028061Y-70374405D01*
X134998955Y-70377055D01*
X134969886Y-70374000D01*
X134969872Y-70373996D01*
X134969838Y-70373992D01*
X134941873Y-70365335D01*
X134916121Y-70351412D01*
X134893564Y-70332751D01*
X134875062Y-70310065D01*
X134861318Y-70284217D01*
X134852857Y-70256191D01*
X134850000Y-70227056D01*
X134850000Y-69672869D01*
X134850001Y-69672864D01*
X134850015Y-69670850D01*
X134853278Y-69641757D01*
X134862130Y-69613853D01*
X134876233Y-69588199D01*
X134895050Y-69565773D01*
X134917866Y-69547429D01*
X134943809Y-69533866D01*
X134971893Y-69525601D01*
X134971930Y-69525598D01*
X134971939Y-69525595D01*
X135001045Y-69522945D01*
X135030114Y-69526000D01*
X135030114Y-69526000D01*
G37*
G36*
X134530114Y-69526000D02*
X134530128Y-69526004D01*
X134530162Y-69526008D01*
X134558127Y-69534665D01*
X134583879Y-69548588D01*
X134606436Y-69567249D01*
X134624938Y-69589935D01*
X134638682Y-69615783D01*
X134647143Y-69643809D01*
X134650000Y-69672944D01*
X134650000Y-70227131D01*
X134649999Y-70227136D01*
X134649985Y-70229150D01*
X134646722Y-70258243D01*
X134637870Y-70286147D01*
X134623767Y-70311801D01*
X134604950Y-70334227D01*
X134582134Y-70352571D01*
X134556191Y-70366134D01*
X134528107Y-70374399D01*
X134528070Y-70374402D01*
X134528061Y-70374405D01*
X134498955Y-70377055D01*
X134469886Y-70374000D01*
X134469872Y-70373996D01*
X134469838Y-70373992D01*
X134441873Y-70365335D01*
X134416121Y-70351412D01*
X134393564Y-70332751D01*
X134375062Y-70310065D01*
X134361318Y-70284217D01*
X134352857Y-70256191D01*
X134350000Y-70227056D01*
X134350000Y-69672869D01*
X134350001Y-69672864D01*
X134350015Y-69670850D01*
X134353278Y-69641757D01*
X134362130Y-69613853D01*
X134376233Y-69588199D01*
X134395050Y-69565773D01*
X134417866Y-69547429D01*
X134443809Y-69533866D01*
X134471893Y-69525601D01*
X134471930Y-69525598D01*
X134471939Y-69525595D01*
X134501045Y-69522945D01*
X134530114Y-69526000D01*
X134530114Y-69526000D01*
G37*
G36*
X134030114Y-69526000D02*
X134030128Y-69526004D01*
X134030162Y-69526008D01*
X134058127Y-69534665D01*
X134083879Y-69548588D01*
X134106436Y-69567249D01*
X134124938Y-69589935D01*
X134138682Y-69615783D01*
X134147143Y-69643809D01*
X134150000Y-69672944D01*
X134150000Y-70227131D01*
X134149999Y-70227136D01*
X134149985Y-70229150D01*
X134146722Y-70258243D01*
X134137870Y-70286147D01*
X134123767Y-70311801D01*
X134104950Y-70334227D01*
X134082134Y-70352571D01*
X134056191Y-70366134D01*
X134028107Y-70374399D01*
X134028070Y-70374402D01*
X134028061Y-70374405D01*
X133998955Y-70377055D01*
X133969886Y-70374000D01*
X133969872Y-70373996D01*
X133969838Y-70373992D01*
X133941873Y-70365335D01*
X133916121Y-70351412D01*
X133893564Y-70332751D01*
X133875062Y-70310065D01*
X133861318Y-70284217D01*
X133852857Y-70256191D01*
X133850000Y-70227056D01*
X133850000Y-69672869D01*
X133850001Y-69672864D01*
X133850015Y-69670850D01*
X133853278Y-69641757D01*
X133862130Y-69613853D01*
X133876233Y-69588199D01*
X133895050Y-69565773D01*
X133917866Y-69547429D01*
X133943809Y-69533866D01*
X133971893Y-69525601D01*
X133971930Y-69525598D01*
X133971939Y-69525595D01*
X134001045Y-69522945D01*
X134030114Y-69526000D01*
X134030114Y-69526000D01*
G37*
G36*
X110850000Y-70350000D02*
X109150000Y-70350000D01*
X109150000Y-68650000D01*
X110850000Y-68650000D01*
X110850000Y-70350000D01*
X110850000Y-70350000D01*
G37*
G36*
X118675000Y-70300000D02*
X118125000Y-70300000D01*
X118125000Y-68700000D01*
X118675000Y-68700000D01*
X118675000Y-70300000D01*
X118675000Y-70300000D01*
G37*
G36*
X120275000Y-70300000D02*
X119725000Y-70300000D01*
X119725000Y-68700000D01*
X120275000Y-68700000D01*
X120275000Y-70300000D01*
X120275000Y-70300000D01*
G37*
G36*
X123475000Y-70300000D02*
X122925000Y-70300000D01*
X122925000Y-68700000D01*
X123475000Y-68700000D01*
X123475000Y-70300000D01*
X123475000Y-70300000D01*
G37*
G36*
X121075000Y-70300000D02*
X120525000Y-70300000D01*
X120525000Y-68700000D01*
X121075000Y-68700000D01*
X121075000Y-70300000D01*
X121075000Y-70300000D01*
G37*
G36*
X122675000Y-70300000D02*
X122125000Y-70300000D01*
X122125000Y-68700000D01*
X122675000Y-68700000D01*
X122675000Y-70300000D01*
X122675000Y-70300000D01*
G37*
G36*
X121875000Y-70300000D02*
X121325000Y-70300000D01*
X121325000Y-68700000D01*
X121875000Y-68700000D01*
X121875000Y-70300000D01*
X121875000Y-70300000D01*
G37*
G36*
X119475000Y-70300000D02*
X118925000Y-70300000D01*
X118925000Y-68700000D01*
X119475000Y-68700000D01*
X119475000Y-70300000D01*
X119475000Y-70300000D01*
G37*
G36*
X124275000Y-70300000D02*
X123725000Y-70300000D01*
X123725000Y-68700000D01*
X124275000Y-68700000D01*
X124275000Y-70300000D01*
X124275000Y-70300000D01*
G37*
G36*
X135175000Y-69175000D02*
X131825000Y-69175000D01*
X131825000Y-65825000D01*
X135175000Y-65825000D01*
X135175000Y-69175000D01*
X135175000Y-69175000D01*
G37*
G36*
X136227136Y-68850001D02*
X136229150Y-68850015D01*
X136258243Y-68853278D01*
X136286147Y-68862130D01*
X136311801Y-68876233D01*
X136334227Y-68895050D01*
X136352571Y-68917866D01*
X136366134Y-68943809D01*
X136374399Y-68971893D01*
X136374402Y-68971930D01*
X136374405Y-68971939D01*
X136377055Y-69001045D01*
X136374000Y-69030114D01*
X136373996Y-69030128D01*
X136373992Y-69030162D01*
X136365335Y-69058127D01*
X136351412Y-69083879D01*
X136332751Y-69106436D01*
X136310065Y-69124938D01*
X136284217Y-69138682D01*
X136256191Y-69147143D01*
X136227056Y-69150000D01*
X135672869Y-69150000D01*
X135672864Y-69149999D01*
X135670850Y-69149985D01*
X135641757Y-69146722D01*
X135613853Y-69137870D01*
X135588199Y-69123767D01*
X135565773Y-69104950D01*
X135547429Y-69082134D01*
X135533866Y-69056191D01*
X135525601Y-69028107D01*
X135525598Y-69028070D01*
X135525595Y-69028061D01*
X135522945Y-68998955D01*
X135526000Y-68969886D01*
X135526004Y-68969872D01*
X135526008Y-68969838D01*
X135534665Y-68941873D01*
X135548588Y-68916121D01*
X135567249Y-68893564D01*
X135589935Y-68875062D01*
X135615783Y-68861318D01*
X135643809Y-68852857D01*
X135672944Y-68850000D01*
X136227131Y-68850000D01*
X136227136Y-68850001D01*
X136227136Y-68850001D01*
G37*
G36*
X131327136Y-68850001D02*
X131329150Y-68850015D01*
X131358243Y-68853278D01*
X131386147Y-68862130D01*
X131411801Y-68876233D01*
X131434227Y-68895050D01*
X131452571Y-68917866D01*
X131466134Y-68943809D01*
X131474399Y-68971893D01*
X131474402Y-68971930D01*
X131474405Y-68971939D01*
X131477055Y-69001045D01*
X131474000Y-69030114D01*
X131473996Y-69030128D01*
X131473992Y-69030162D01*
X131465335Y-69058127D01*
X131451412Y-69083879D01*
X131432751Y-69106436D01*
X131410065Y-69124938D01*
X131384217Y-69138682D01*
X131356191Y-69147143D01*
X131327056Y-69150000D01*
X130772869Y-69150000D01*
X130772864Y-69149999D01*
X130770850Y-69149985D01*
X130741757Y-69146722D01*
X130713853Y-69137870D01*
X130688199Y-69123767D01*
X130665773Y-69104950D01*
X130647429Y-69082134D01*
X130633866Y-69056191D01*
X130625601Y-69028107D01*
X130625598Y-69028070D01*
X130625595Y-69028061D01*
X130622945Y-68998955D01*
X130626000Y-68969886D01*
X130626004Y-68969872D01*
X130626008Y-68969838D01*
X130634665Y-68941873D01*
X130648588Y-68916121D01*
X130667249Y-68893564D01*
X130689935Y-68875062D01*
X130715783Y-68861318D01*
X130743809Y-68852857D01*
X130772944Y-68850000D01*
X131327131Y-68850000D01*
X131327136Y-68850001D01*
X131327136Y-68850001D01*
G37*
G36*
X136227136Y-68350001D02*
X136229150Y-68350015D01*
X136258243Y-68353278D01*
X136286147Y-68362130D01*
X136311801Y-68376233D01*
X136334227Y-68395050D01*
X136352571Y-68417866D01*
X136366134Y-68443809D01*
X136374399Y-68471893D01*
X136374402Y-68471930D01*
X136374405Y-68471939D01*
X136377055Y-68501045D01*
X136374000Y-68530114D01*
X136373996Y-68530128D01*
X136373992Y-68530162D01*
X136365335Y-68558127D01*
X136351412Y-68583879D01*
X136332751Y-68606436D01*
X136310065Y-68624938D01*
X136284217Y-68638682D01*
X136256191Y-68647143D01*
X136227056Y-68650000D01*
X135672869Y-68650000D01*
X135672864Y-68649999D01*
X135670850Y-68649985D01*
X135641757Y-68646722D01*
X135613853Y-68637870D01*
X135588199Y-68623767D01*
X135565773Y-68604950D01*
X135547429Y-68582134D01*
X135533866Y-68556191D01*
X135525601Y-68528107D01*
X135525598Y-68528070D01*
X135525595Y-68528061D01*
X135522945Y-68498955D01*
X135526000Y-68469886D01*
X135526004Y-68469872D01*
X135526008Y-68469838D01*
X135534665Y-68441873D01*
X135548588Y-68416121D01*
X135567249Y-68393564D01*
X135589935Y-68375062D01*
X135615783Y-68361318D01*
X135643809Y-68352857D01*
X135672944Y-68350000D01*
X136227131Y-68350000D01*
X136227136Y-68350001D01*
X136227136Y-68350001D01*
G37*
G36*
X131327136Y-68350001D02*
X131329150Y-68350015D01*
X131358243Y-68353278D01*
X131386147Y-68362130D01*
X131411801Y-68376233D01*
X131434227Y-68395050D01*
X131452571Y-68417866D01*
X131466134Y-68443809D01*
X131474399Y-68471893D01*
X131474402Y-68471930D01*
X131474405Y-68471939D01*
X131477055Y-68501045D01*
X131474000Y-68530114D01*
X131473996Y-68530128D01*
X131473992Y-68530162D01*
X131465335Y-68558127D01*
X131451412Y-68583879D01*
X131432751Y-68606436D01*
X131410065Y-68624938D01*
X131384217Y-68638682D01*
X131356191Y-68647143D01*
X131327056Y-68650000D01*
X130772869Y-68650000D01*
X130772864Y-68649999D01*
X130770850Y-68649985D01*
X130741757Y-68646722D01*
X130713853Y-68637870D01*
X130688199Y-68623767D01*
X130665773Y-68604950D01*
X130647429Y-68582134D01*
X130633866Y-68556191D01*
X130625601Y-68528107D01*
X130625598Y-68528070D01*
X130625595Y-68528061D01*
X130622945Y-68498955D01*
X130626000Y-68469886D01*
X130626004Y-68469872D01*
X130626008Y-68469838D01*
X130634665Y-68441873D01*
X130648588Y-68416121D01*
X130667249Y-68393564D01*
X130689935Y-68375062D01*
X130715783Y-68361318D01*
X130743809Y-68352857D01*
X130772944Y-68350000D01*
X131327131Y-68350000D01*
X131327136Y-68350001D01*
X131327136Y-68350001D01*
G37*
G36*
X131327136Y-67850001D02*
X131329150Y-67850015D01*
X131358243Y-67853278D01*
X131386147Y-67862130D01*
X131411801Y-67876233D01*
X131434227Y-67895050D01*
X131452571Y-67917866D01*
X131466134Y-67943809D01*
X131474399Y-67971893D01*
X131474402Y-67971930D01*
X131474405Y-67971939D01*
X131477055Y-68001045D01*
X131474000Y-68030114D01*
X131473996Y-68030128D01*
X131473992Y-68030162D01*
X131465335Y-68058127D01*
X131451412Y-68083879D01*
X131432751Y-68106436D01*
X131410065Y-68124938D01*
X131384217Y-68138682D01*
X131356191Y-68147143D01*
X131327056Y-68150000D01*
X130772869Y-68150000D01*
X130772864Y-68149999D01*
X130770850Y-68149985D01*
X130741757Y-68146722D01*
X130713853Y-68137870D01*
X130688199Y-68123767D01*
X130665773Y-68104950D01*
X130647429Y-68082134D01*
X130633866Y-68056191D01*
X130625601Y-68028107D01*
X130625598Y-68028070D01*
X130625595Y-68028061D01*
X130622945Y-67998955D01*
X130626000Y-67969886D01*
X130626004Y-67969872D01*
X130626008Y-67969838D01*
X130634665Y-67941873D01*
X130648588Y-67916121D01*
X130667249Y-67893564D01*
X130689935Y-67875062D01*
X130715783Y-67861318D01*
X130743809Y-67852857D01*
X130772944Y-67850000D01*
X131327131Y-67850000D01*
X131327136Y-67850001D01*
X131327136Y-67850001D01*
G37*
G36*
X136227136Y-67850001D02*
X136229150Y-67850015D01*
X136258243Y-67853278D01*
X136286147Y-67862130D01*
X136311801Y-67876233D01*
X136334227Y-67895050D01*
X136352571Y-67917866D01*
X136366134Y-67943809D01*
X136374399Y-67971893D01*
X136374402Y-67971930D01*
X136374405Y-67971939D01*
X136377055Y-68001045D01*
X136374000Y-68030114D01*
X136373996Y-68030128D01*
X136373992Y-68030162D01*
X136365335Y-68058127D01*
X136351412Y-68083879D01*
X136332751Y-68106436D01*
X136310065Y-68124938D01*
X136284217Y-68138682D01*
X136256191Y-68147143D01*
X136227056Y-68150000D01*
X135672869Y-68150000D01*
X135672864Y-68149999D01*
X135670850Y-68149985D01*
X135641757Y-68146722D01*
X135613853Y-68137870D01*
X135588199Y-68123767D01*
X135565773Y-68104950D01*
X135547429Y-68082134D01*
X135533866Y-68056191D01*
X135525601Y-68028107D01*
X135525598Y-68028070D01*
X135525595Y-68028061D01*
X135522945Y-67998955D01*
X135526000Y-67969886D01*
X135526004Y-67969872D01*
X135526008Y-67969838D01*
X135534665Y-67941873D01*
X135548588Y-67916121D01*
X135567249Y-67893564D01*
X135589935Y-67875062D01*
X135615783Y-67861318D01*
X135643809Y-67852857D01*
X135672944Y-67850000D01*
X136227131Y-67850000D01*
X136227136Y-67850001D01*
X136227136Y-67850001D01*
G37*
G36*
X131327136Y-67350001D02*
X131329150Y-67350015D01*
X131358243Y-67353278D01*
X131386147Y-67362130D01*
X131411801Y-67376233D01*
X131434227Y-67395050D01*
X131452571Y-67417866D01*
X131466134Y-67443809D01*
X131474399Y-67471893D01*
X131474402Y-67471930D01*
X131474405Y-67471939D01*
X131477055Y-67501045D01*
X131474000Y-67530114D01*
X131473996Y-67530128D01*
X131473992Y-67530162D01*
X131465335Y-67558127D01*
X131451412Y-67583879D01*
X131432751Y-67606436D01*
X131410065Y-67624938D01*
X131384217Y-67638682D01*
X131356191Y-67647143D01*
X131327056Y-67650000D01*
X130772869Y-67650000D01*
X130772864Y-67649999D01*
X130770850Y-67649985D01*
X130741757Y-67646722D01*
X130713853Y-67637870D01*
X130688199Y-67623767D01*
X130665773Y-67604950D01*
X130647429Y-67582134D01*
X130633866Y-67556191D01*
X130625601Y-67528107D01*
X130625598Y-67528070D01*
X130625595Y-67528061D01*
X130622945Y-67498955D01*
X130626000Y-67469886D01*
X130626004Y-67469872D01*
X130626008Y-67469838D01*
X130634665Y-67441873D01*
X130648588Y-67416121D01*
X130667249Y-67393564D01*
X130689935Y-67375062D01*
X130715783Y-67361318D01*
X130743809Y-67352857D01*
X130772944Y-67350000D01*
X131327131Y-67350000D01*
X131327136Y-67350001D01*
X131327136Y-67350001D01*
G37*
G36*
X136227136Y-67350001D02*
X136229150Y-67350015D01*
X136258243Y-67353278D01*
X136286147Y-67362130D01*
X136311801Y-67376233D01*
X136334227Y-67395050D01*
X136352571Y-67417866D01*
X136366134Y-67443809D01*
X136374399Y-67471893D01*
X136374402Y-67471930D01*
X136374405Y-67471939D01*
X136377055Y-67501045D01*
X136374000Y-67530114D01*
X136373996Y-67530128D01*
X136373992Y-67530162D01*
X136365335Y-67558127D01*
X136351412Y-67583879D01*
X136332751Y-67606436D01*
X136310065Y-67624938D01*
X136284217Y-67638682D01*
X136256191Y-67647143D01*
X136227056Y-67650000D01*
X135672869Y-67650000D01*
X135672864Y-67649999D01*
X135670850Y-67649985D01*
X135641757Y-67646722D01*
X135613853Y-67637870D01*
X135588199Y-67623767D01*
X135565773Y-67604950D01*
X135547429Y-67582134D01*
X135533866Y-67556191D01*
X135525601Y-67528107D01*
X135525598Y-67528070D01*
X135525595Y-67528061D01*
X135522945Y-67498955D01*
X135526000Y-67469886D01*
X135526004Y-67469872D01*
X135526008Y-67469838D01*
X135534665Y-67441873D01*
X135548588Y-67416121D01*
X135567249Y-67393564D01*
X135589935Y-67375062D01*
X135615783Y-67361318D01*
X135643809Y-67352857D01*
X135672944Y-67350000D01*
X136227131Y-67350000D01*
X136227136Y-67350001D01*
X136227136Y-67350001D01*
G37*
G36*
X136227136Y-66850001D02*
X136229150Y-66850015D01*
X136258243Y-66853278D01*
X136286147Y-66862130D01*
X136311801Y-66876233D01*
X136334227Y-66895050D01*
X136352571Y-66917866D01*
X136366134Y-66943809D01*
X136374399Y-66971893D01*
X136374402Y-66971930D01*
X136374405Y-66971939D01*
X136377055Y-67001045D01*
X136374000Y-67030114D01*
X136373996Y-67030128D01*
X136373992Y-67030162D01*
X136365335Y-67058127D01*
X136351412Y-67083879D01*
X136332751Y-67106436D01*
X136310065Y-67124938D01*
X136284217Y-67138682D01*
X136256191Y-67147143D01*
X136227056Y-67150000D01*
X135672869Y-67150000D01*
X135672864Y-67149999D01*
X135670850Y-67149985D01*
X135641757Y-67146722D01*
X135613853Y-67137870D01*
X135588199Y-67123767D01*
X135565773Y-67104950D01*
X135547429Y-67082134D01*
X135533866Y-67056191D01*
X135525601Y-67028107D01*
X135525598Y-67028070D01*
X135525595Y-67028061D01*
X135522945Y-66998955D01*
X135526000Y-66969886D01*
X135526004Y-66969872D01*
X135526008Y-66969838D01*
X135534665Y-66941873D01*
X135548588Y-66916121D01*
X135567249Y-66893564D01*
X135589935Y-66875062D01*
X135615783Y-66861318D01*
X135643809Y-66852857D01*
X135672944Y-66850000D01*
X136227131Y-66850000D01*
X136227136Y-66850001D01*
X136227136Y-66850001D01*
G37*
G36*
X131327136Y-66850001D02*
X131329150Y-66850015D01*
X131358243Y-66853278D01*
X131386147Y-66862130D01*
X131411801Y-66876233D01*
X131434227Y-66895050D01*
X131452571Y-66917866D01*
X131466134Y-66943809D01*
X131474399Y-66971893D01*
X131474402Y-66971930D01*
X131474405Y-66971939D01*
X131477055Y-67001045D01*
X131474000Y-67030114D01*
X131473996Y-67030128D01*
X131473992Y-67030162D01*
X131465335Y-67058127D01*
X131451412Y-67083879D01*
X131432751Y-67106436D01*
X131410065Y-67124938D01*
X131384217Y-67138682D01*
X131356191Y-67147143D01*
X131327056Y-67150000D01*
X130772869Y-67150000D01*
X130772864Y-67149999D01*
X130770850Y-67149985D01*
X130741757Y-67146722D01*
X130713853Y-67137870D01*
X130688199Y-67123767D01*
X130665773Y-67104950D01*
X130647429Y-67082134D01*
X130633866Y-67056191D01*
X130625601Y-67028107D01*
X130625598Y-67028070D01*
X130625595Y-67028061D01*
X130622945Y-66998955D01*
X130626000Y-66969886D01*
X130626004Y-66969872D01*
X130626008Y-66969838D01*
X130634665Y-66941873D01*
X130648588Y-66916121D01*
X130667249Y-66893564D01*
X130689935Y-66875062D01*
X130715783Y-66861318D01*
X130743809Y-66852857D01*
X130772944Y-66850000D01*
X131327131Y-66850000D01*
X131327136Y-66850001D01*
X131327136Y-66850001D01*
G37*
G36*
X102625000Y-66925000D02*
X101775000Y-66925000D01*
X101775000Y-66075000D01*
X102625000Y-66075000D01*
X102625000Y-66925000D01*
X102625000Y-66925000D01*
G37*
G36*
X136227136Y-66350001D02*
X136229150Y-66350015D01*
X136258243Y-66353278D01*
X136286147Y-66362130D01*
X136311801Y-66376233D01*
X136334227Y-66395050D01*
X136352571Y-66417866D01*
X136366134Y-66443809D01*
X136374399Y-66471893D01*
X136374402Y-66471930D01*
X136374405Y-66471939D01*
X136377055Y-66501045D01*
X136374000Y-66530114D01*
X136373996Y-66530128D01*
X136373992Y-66530162D01*
X136365335Y-66558127D01*
X136351412Y-66583879D01*
X136332751Y-66606436D01*
X136310065Y-66624938D01*
X136284217Y-66638682D01*
X136256191Y-66647143D01*
X136227056Y-66650000D01*
X135672869Y-66650000D01*
X135672864Y-66649999D01*
X135670850Y-66649985D01*
X135641757Y-66646722D01*
X135613853Y-66637870D01*
X135588199Y-66623767D01*
X135565773Y-66604950D01*
X135547429Y-66582134D01*
X135533866Y-66556191D01*
X135525601Y-66528107D01*
X135525598Y-66528070D01*
X135525595Y-66528061D01*
X135522945Y-66498955D01*
X135526000Y-66469886D01*
X135526004Y-66469872D01*
X135526008Y-66469838D01*
X135534665Y-66441873D01*
X135548588Y-66416121D01*
X135567249Y-66393564D01*
X135589935Y-66375062D01*
X135615783Y-66361318D01*
X135643809Y-66352857D01*
X135672944Y-66350000D01*
X136227131Y-66350000D01*
X136227136Y-66350001D01*
X136227136Y-66350001D01*
G37*
G36*
X131327136Y-66350001D02*
X131329150Y-66350015D01*
X131358243Y-66353278D01*
X131386147Y-66362130D01*
X131411801Y-66376233D01*
X131434227Y-66395050D01*
X131452571Y-66417866D01*
X131466134Y-66443809D01*
X131474399Y-66471893D01*
X131474402Y-66471930D01*
X131474405Y-66471939D01*
X131477055Y-66501045D01*
X131474000Y-66530114D01*
X131473996Y-66530128D01*
X131473992Y-66530162D01*
X131465335Y-66558127D01*
X131451412Y-66583879D01*
X131432751Y-66606436D01*
X131410065Y-66624938D01*
X131384217Y-66638682D01*
X131356191Y-66647143D01*
X131327056Y-66650000D01*
X130772869Y-66650000D01*
X130772864Y-66649999D01*
X130770850Y-66649985D01*
X130741757Y-66646722D01*
X130713853Y-66637870D01*
X130688199Y-66623767D01*
X130665773Y-66604950D01*
X130647429Y-66582134D01*
X130633866Y-66556191D01*
X130625601Y-66528107D01*
X130625598Y-66528070D01*
X130625595Y-66528061D01*
X130622945Y-66498955D01*
X130626000Y-66469886D01*
X130626004Y-66469872D01*
X130626008Y-66469838D01*
X130634665Y-66441873D01*
X130648588Y-66416121D01*
X130667249Y-66393564D01*
X130689935Y-66375062D01*
X130715783Y-66361318D01*
X130743809Y-66352857D01*
X130772944Y-66350000D01*
X131327131Y-66350000D01*
X131327136Y-66350001D01*
X131327136Y-66350001D01*
G37*
G36*
X126050000Y-66425000D02*
X125350000Y-66425000D01*
X125350000Y-66175000D01*
X126050000Y-66175000D01*
X126050000Y-66425000D01*
X126050000Y-66425000D01*
G37*
G36*
X127650000Y-66425000D02*
X126950000Y-66425000D01*
X126950000Y-66175000D01*
X127650000Y-66175000D01*
X127650000Y-66425000D01*
X127650000Y-66425000D01*
G37*
G36*
X131327136Y-65850001D02*
X131329150Y-65850015D01*
X131358243Y-65853278D01*
X131386147Y-65862130D01*
X131411801Y-65876233D01*
X131434227Y-65895050D01*
X131452571Y-65917866D01*
X131466134Y-65943809D01*
X131474399Y-65971893D01*
X131474402Y-65971930D01*
X131474405Y-65971939D01*
X131477055Y-66001045D01*
X131474000Y-66030114D01*
X131473996Y-66030128D01*
X131473992Y-66030162D01*
X131465335Y-66058127D01*
X131451412Y-66083879D01*
X131432751Y-66106436D01*
X131410065Y-66124938D01*
X131384217Y-66138682D01*
X131356191Y-66147143D01*
X131327056Y-66150000D01*
X130772869Y-66150000D01*
X130772864Y-66149999D01*
X130770850Y-66149985D01*
X130741757Y-66146722D01*
X130713853Y-66137870D01*
X130688199Y-66123767D01*
X130665773Y-66104950D01*
X130647429Y-66082134D01*
X130633866Y-66056191D01*
X130625601Y-66028107D01*
X130625598Y-66028070D01*
X130625595Y-66028061D01*
X130622945Y-65998955D01*
X130626000Y-65969886D01*
X130626004Y-65969872D01*
X130626008Y-65969838D01*
X130634665Y-65941873D01*
X130648588Y-65916121D01*
X130667249Y-65893564D01*
X130689935Y-65875062D01*
X130715783Y-65861318D01*
X130743809Y-65852857D01*
X130772944Y-65850000D01*
X131327131Y-65850000D01*
X131327136Y-65850001D01*
X131327136Y-65850001D01*
G37*
G36*
X136227136Y-65850001D02*
X136229150Y-65850015D01*
X136258243Y-65853278D01*
X136286147Y-65862130D01*
X136311801Y-65876233D01*
X136334227Y-65895050D01*
X136352571Y-65917866D01*
X136366134Y-65943809D01*
X136374399Y-65971893D01*
X136374402Y-65971930D01*
X136374405Y-65971939D01*
X136377055Y-66001045D01*
X136374000Y-66030114D01*
X136373996Y-66030128D01*
X136373992Y-66030162D01*
X136365335Y-66058127D01*
X136351412Y-66083879D01*
X136332751Y-66106436D01*
X136310065Y-66124938D01*
X136284217Y-66138682D01*
X136256191Y-66147143D01*
X136227056Y-66150000D01*
X135672869Y-66150000D01*
X135672864Y-66149999D01*
X135670850Y-66149985D01*
X135641757Y-66146722D01*
X135613853Y-66137870D01*
X135588199Y-66123767D01*
X135565773Y-66104950D01*
X135547429Y-66082134D01*
X135533866Y-66056191D01*
X135525601Y-66028107D01*
X135525598Y-66028070D01*
X135525595Y-66028061D01*
X135522945Y-65998955D01*
X135526000Y-65969886D01*
X135526004Y-65969872D01*
X135526008Y-65969838D01*
X135534665Y-65941873D01*
X135548588Y-65916121D01*
X135567249Y-65893564D01*
X135589935Y-65875062D01*
X135615783Y-65861318D01*
X135643809Y-65852857D01*
X135672944Y-65850000D01*
X136227131Y-65850000D01*
X136227136Y-65850001D01*
X136227136Y-65850001D01*
G37*
G36*
X126050000Y-66025000D02*
X125350000Y-66025000D01*
X125350000Y-65775000D01*
X126050000Y-65775000D01*
X126050000Y-66025000D01*
X126050000Y-66025000D01*
G37*
G36*
X127650000Y-66025000D02*
X126950000Y-66025000D01*
X126950000Y-65775000D01*
X127650000Y-65775000D01*
X127650000Y-66025000D01*
X127650000Y-66025000D01*
G37*
G36*
X114800000Y-65800000D02*
X113800000Y-65800000D01*
X113800000Y-64200000D01*
X114800000Y-64200000D01*
X114800000Y-65800000D01*
X114800000Y-65800000D01*
G37*
G36*
X109000000Y-65800000D02*
X108000000Y-65800000D01*
X108000000Y-64200000D01*
X109000000Y-64200000D01*
X109000000Y-65800000D01*
X109000000Y-65800000D01*
G37*
G36*
X118500000Y-65800000D02*
X117500000Y-65800000D01*
X117500000Y-64200000D01*
X118500000Y-64200000D01*
X118500000Y-65800000D01*
X118500000Y-65800000D01*
G37*
G36*
X121500000Y-65800000D02*
X120500000Y-65800000D01*
X120500000Y-64200000D01*
X121500000Y-64200000D01*
X121500000Y-65800000D01*
X121500000Y-65800000D01*
G37*
G36*
X106000000Y-65800000D02*
X105000000Y-65800000D01*
X105000000Y-64200000D01*
X106000000Y-64200000D01*
X106000000Y-65800000D01*
X106000000Y-65800000D01*
G37*
G36*
X111800000Y-65800000D02*
X110800000Y-65800000D01*
X110800000Y-64200000D01*
X111800000Y-64200000D01*
X111800000Y-65800000D01*
X111800000Y-65800000D01*
G37*
G36*
X126050000Y-65625000D02*
X125350000Y-65625000D01*
X125350000Y-65375000D01*
X126050000Y-65375000D01*
X126050000Y-65625000D01*
X126050000Y-65625000D01*
G37*
G36*
X127650000Y-65625000D02*
X126950000Y-65625000D01*
X126950000Y-65375000D01*
X127650000Y-65375000D01*
X127650000Y-65625000D01*
X127650000Y-65625000D01*
G37*
G36*
X133030114Y-64626000D02*
X133030128Y-64626004D01*
X133030162Y-64626008D01*
X133058127Y-64634665D01*
X133083879Y-64648588D01*
X133106436Y-64667249D01*
X133124938Y-64689935D01*
X133138682Y-64715783D01*
X133147143Y-64743809D01*
X133150000Y-64772944D01*
X133150000Y-65327131D01*
X133149999Y-65327136D01*
X133149985Y-65329150D01*
X133146722Y-65358243D01*
X133137870Y-65386147D01*
X133123767Y-65411801D01*
X133104950Y-65434227D01*
X133082134Y-65452571D01*
X133056191Y-65466134D01*
X133028107Y-65474399D01*
X133028070Y-65474402D01*
X133028061Y-65474405D01*
X132998955Y-65477055D01*
X132969886Y-65474000D01*
X132969872Y-65473996D01*
X132969838Y-65473992D01*
X132941873Y-65465335D01*
X132916121Y-65451412D01*
X132893564Y-65432751D01*
X132875062Y-65410065D01*
X132861318Y-65384217D01*
X132852857Y-65356191D01*
X132850000Y-65327056D01*
X132850000Y-64772869D01*
X132850001Y-64772864D01*
X132850015Y-64770850D01*
X132853278Y-64741757D01*
X132862130Y-64713853D01*
X132876233Y-64688199D01*
X132895050Y-64665773D01*
X132917866Y-64647429D01*
X132943809Y-64633866D01*
X132971893Y-64625601D01*
X132971930Y-64625598D01*
X132971939Y-64625595D01*
X133001045Y-64622945D01*
X133030114Y-64626000D01*
X133030114Y-64626000D01*
G37*
G36*
X134530114Y-64626000D02*
X134530128Y-64626004D01*
X134530162Y-64626008D01*
X134558127Y-64634665D01*
X134583879Y-64648588D01*
X134606436Y-64667249D01*
X134624938Y-64689935D01*
X134638682Y-64715783D01*
X134647143Y-64743809D01*
X134650000Y-64772944D01*
X134650000Y-65327131D01*
X134649999Y-65327136D01*
X134649985Y-65329150D01*
X134646722Y-65358243D01*
X134637870Y-65386147D01*
X134623767Y-65411801D01*
X134604950Y-65434227D01*
X134582134Y-65452571D01*
X134556191Y-65466134D01*
X134528107Y-65474399D01*
X134528070Y-65474402D01*
X134528061Y-65474405D01*
X134498955Y-65477055D01*
X134469886Y-65474000D01*
X134469872Y-65473996D01*
X134469838Y-65473992D01*
X134441873Y-65465335D01*
X134416121Y-65451412D01*
X134393564Y-65432751D01*
X134375062Y-65410065D01*
X134361318Y-65384217D01*
X134352857Y-65356191D01*
X134350000Y-65327056D01*
X134350000Y-64772869D01*
X134350001Y-64772864D01*
X134350015Y-64770850D01*
X134353278Y-64741757D01*
X134362130Y-64713853D01*
X134376233Y-64688199D01*
X134395050Y-64665773D01*
X134417866Y-64647429D01*
X134443809Y-64633866D01*
X134471893Y-64625601D01*
X134471930Y-64625598D01*
X134471939Y-64625595D01*
X134501045Y-64622945D01*
X134530114Y-64626000D01*
X134530114Y-64626000D01*
G37*
G36*
X133530114Y-64626000D02*
X133530128Y-64626004D01*
X133530162Y-64626008D01*
X133558127Y-64634665D01*
X133583879Y-64648588D01*
X133606436Y-64667249D01*
X133624938Y-64689935D01*
X133638682Y-64715783D01*
X133647143Y-64743809D01*
X133650000Y-64772944D01*
X133650000Y-65327131D01*
X133649999Y-65327136D01*
X133649985Y-65329150D01*
X133646722Y-65358243D01*
X133637870Y-65386147D01*
X133623767Y-65411801D01*
X133604950Y-65434227D01*
X133582134Y-65452571D01*
X133556191Y-65466134D01*
X133528107Y-65474399D01*
X133528070Y-65474402D01*
X133528061Y-65474405D01*
X133498955Y-65477055D01*
X133469886Y-65474000D01*
X133469872Y-65473996D01*
X133469838Y-65473992D01*
X133441873Y-65465335D01*
X133416121Y-65451412D01*
X133393564Y-65432751D01*
X133375062Y-65410065D01*
X133361318Y-65384217D01*
X133352857Y-65356191D01*
X133350000Y-65327056D01*
X133350000Y-64772869D01*
X133350001Y-64772864D01*
X133350015Y-64770850D01*
X133353278Y-64741757D01*
X133362130Y-64713853D01*
X133376233Y-64688199D01*
X133395050Y-64665773D01*
X133417866Y-64647429D01*
X133443809Y-64633866D01*
X133471893Y-64625601D01*
X133471930Y-64625598D01*
X133471939Y-64625595D01*
X133501045Y-64622945D01*
X133530114Y-64626000D01*
X133530114Y-64626000D01*
G37*
G36*
X134030114Y-64626000D02*
X134030128Y-64626004D01*
X134030162Y-64626008D01*
X134058127Y-64634665D01*
X134083879Y-64648588D01*
X134106436Y-64667249D01*
X134124938Y-64689935D01*
X134138682Y-64715783D01*
X134147143Y-64743809D01*
X134150000Y-64772944D01*
X134150000Y-65327131D01*
X134149999Y-65327136D01*
X134149985Y-65329150D01*
X134146722Y-65358243D01*
X134137870Y-65386147D01*
X134123767Y-65411801D01*
X134104950Y-65434227D01*
X134082134Y-65452571D01*
X134056191Y-65466134D01*
X134028107Y-65474399D01*
X134028070Y-65474402D01*
X134028061Y-65474405D01*
X133998955Y-65477055D01*
X133969886Y-65474000D01*
X133969872Y-65473996D01*
X133969838Y-65473992D01*
X133941873Y-65465335D01*
X133916121Y-65451412D01*
X133893564Y-65432751D01*
X133875062Y-65410065D01*
X133861318Y-65384217D01*
X133852857Y-65356191D01*
X133850000Y-65327056D01*
X133850000Y-64772869D01*
X133850001Y-64772864D01*
X133850015Y-64770850D01*
X133853278Y-64741757D01*
X133862130Y-64713853D01*
X133876233Y-64688199D01*
X133895050Y-64665773D01*
X133917866Y-64647429D01*
X133943809Y-64633866D01*
X133971893Y-64625601D01*
X133971930Y-64625598D01*
X133971939Y-64625595D01*
X134001045Y-64622945D01*
X134030114Y-64626000D01*
X134030114Y-64626000D01*
G37*
G36*
X132530114Y-64626000D02*
X132530128Y-64626004D01*
X132530162Y-64626008D01*
X132558127Y-64634665D01*
X132583879Y-64648588D01*
X132606436Y-64667249D01*
X132624938Y-64689935D01*
X132638682Y-64715783D01*
X132647143Y-64743809D01*
X132650000Y-64772944D01*
X132650000Y-65327131D01*
X132649999Y-65327136D01*
X132649985Y-65329150D01*
X132646722Y-65358243D01*
X132637870Y-65386147D01*
X132623767Y-65411801D01*
X132604950Y-65434227D01*
X132582134Y-65452571D01*
X132556191Y-65466134D01*
X132528107Y-65474399D01*
X132528070Y-65474402D01*
X132528061Y-65474405D01*
X132498955Y-65477055D01*
X132469886Y-65474000D01*
X132469872Y-65473996D01*
X132469838Y-65473992D01*
X132441873Y-65465335D01*
X132416121Y-65451412D01*
X132393564Y-65432751D01*
X132375062Y-65410065D01*
X132361318Y-65384217D01*
X132352857Y-65356191D01*
X132350000Y-65327056D01*
X132350000Y-64772869D01*
X132350001Y-64772864D01*
X132350015Y-64770850D01*
X132353278Y-64741757D01*
X132362130Y-64713853D01*
X132376233Y-64688199D01*
X132395050Y-64665773D01*
X132417866Y-64647429D01*
X132443809Y-64633866D01*
X132471893Y-64625601D01*
X132471930Y-64625598D01*
X132471939Y-64625595D01*
X132501045Y-64622945D01*
X132530114Y-64626000D01*
X132530114Y-64626000D01*
G37*
G36*
X135030114Y-64626000D02*
X135030128Y-64626004D01*
X135030162Y-64626008D01*
X135058127Y-64634665D01*
X135083879Y-64648588D01*
X135106436Y-64667249D01*
X135124938Y-64689935D01*
X135138682Y-64715783D01*
X135147143Y-64743809D01*
X135150000Y-64772944D01*
X135150000Y-65327131D01*
X135149999Y-65327136D01*
X135149985Y-65329150D01*
X135146722Y-65358243D01*
X135137870Y-65386147D01*
X135123767Y-65411801D01*
X135104950Y-65434227D01*
X135082134Y-65452571D01*
X135056191Y-65466134D01*
X135028107Y-65474399D01*
X135028070Y-65474402D01*
X135028061Y-65474405D01*
X134998955Y-65477055D01*
X134969886Y-65474000D01*
X134969872Y-65473996D01*
X134969838Y-65473992D01*
X134941873Y-65465335D01*
X134916121Y-65451412D01*
X134893564Y-65432751D01*
X134875062Y-65410065D01*
X134861318Y-65384217D01*
X134852857Y-65356191D01*
X134850000Y-65327056D01*
X134850000Y-64772869D01*
X134850001Y-64772864D01*
X134850015Y-64770850D01*
X134853278Y-64741757D01*
X134862130Y-64713853D01*
X134876233Y-64688199D01*
X134895050Y-64665773D01*
X134917866Y-64647429D01*
X134943809Y-64633866D01*
X134971893Y-64625601D01*
X134971930Y-64625598D01*
X134971939Y-64625595D01*
X135001045Y-64622945D01*
X135030114Y-64626000D01*
X135030114Y-64626000D01*
G37*
G36*
X132030114Y-64626000D02*
X132030128Y-64626004D01*
X132030162Y-64626008D01*
X132058127Y-64634665D01*
X132083879Y-64648588D01*
X132106436Y-64667249D01*
X132124938Y-64689935D01*
X132138682Y-64715783D01*
X132147143Y-64743809D01*
X132150000Y-64772944D01*
X132150000Y-65327131D01*
X132149999Y-65327136D01*
X132149985Y-65329150D01*
X132146722Y-65358243D01*
X132137870Y-65386147D01*
X132123767Y-65411801D01*
X132104950Y-65434227D01*
X132082134Y-65452571D01*
X132056191Y-65466134D01*
X132028107Y-65474399D01*
X132028070Y-65474402D01*
X132028061Y-65474405D01*
X131998955Y-65477055D01*
X131969886Y-65474000D01*
X131969872Y-65473996D01*
X131969838Y-65473992D01*
X131941873Y-65465335D01*
X131916121Y-65451412D01*
X131893564Y-65432751D01*
X131875062Y-65410065D01*
X131861318Y-65384217D01*
X131852857Y-65356191D01*
X131850000Y-65327056D01*
X131850000Y-64772869D01*
X131850001Y-64772864D01*
X131850015Y-64770850D01*
X131853278Y-64741757D01*
X131862130Y-64713853D01*
X131876233Y-64688199D01*
X131895050Y-64665773D01*
X131917866Y-64647429D01*
X131943809Y-64633866D01*
X131971893Y-64625601D01*
X131971930Y-64625598D01*
X131971939Y-64625595D01*
X132001045Y-64622945D01*
X132030114Y-64626000D01*
X132030114Y-64626000D01*
G37*
G36*
X127650000Y-65225000D02*
X126950000Y-65225000D01*
X126950000Y-64975000D01*
X127650000Y-64975000D01*
X127650000Y-65225000D01*
X127650000Y-65225000D01*
G37*
G36*
X126050000Y-65225000D02*
X125350000Y-65225000D01*
X125350000Y-64975000D01*
X126050000Y-64975000D01*
X126050000Y-65225000D01*
X126050000Y-65225000D01*
G37*
G36*
X127650000Y-64825000D02*
X126950000Y-64825000D01*
X126950000Y-64575000D01*
X127650000Y-64575000D01*
X127650000Y-64825000D01*
X127650000Y-64825000D01*
G37*
G36*
X126050000Y-64825000D02*
X125350000Y-64825000D01*
X125350000Y-64575000D01*
X126050000Y-64575000D01*
X126050000Y-64825000D01*
X126050000Y-64825000D01*
G37*
M02*
