G04 #@! TF.FileFunction,Profile,NP*
%FSLAX46Y46*%
G04 Gerber Fmt 4.6, Leading zero omitted, Abs format (unit mm)*
G04 Created by KiCad (PCBNEW 4.0.7) date Sat Jan 27 20:56:11 2018*
%MOMM*%
%LPD*%
G01*
G04 APERTURE LIST*
%ADD10C,0.100000*%
G04 APERTURE END LIST*
D10*
X102500000Y-115500000D02*
G75*
G03X98000000Y-111000000I-4500000J0D01*
G01*
X107414214Y-114500000D02*
G75*
G03X107414214Y-114500000I-1414214J0D01*
G01*
X133414214Y-114500000D02*
G75*
G03X133414214Y-114500000I-1414214J0D01*
G01*
X98414214Y-65500000D02*
G75*
G03X98414214Y-65500000I-1414214J0D01*
G01*
X142414214Y-83500000D02*
G75*
G03X142414214Y-83500000I-1414214J0D01*
G01*
X142500000Y-65500000D02*
G75*
G03X142500000Y-65500000I-1500000J0D01*
G01*
X94000000Y-63500000D02*
G75*
G02X95000000Y-62500000I1000000J0D01*
G01*
X143000000Y-62500000D02*
G75*
G02X144000000Y-63500000I0J-1000000D01*
G01*
X144000000Y-110000000D02*
G75*
G02X143000000Y-111000000I-1000000J0D01*
G01*
X135500000Y-117000000D02*
G75*
G02X134500000Y-118000000I-1000000J0D01*
G01*
X94998771Y-110999999D02*
G75*
G02X94000000Y-110000000I1229J999999D01*
G01*
X103500000Y-118000000D02*
G75*
G02X102500000Y-117000000I0J1000000D01*
G01*
X103500000Y-118000000D02*
X134500000Y-118000000D01*
X98000000Y-111000000D02*
X95000000Y-111000000D01*
X102500000Y-117000000D02*
X102500000Y-115500000D01*
X135500000Y-117000000D02*
X135500000Y-115500000D01*
X140000000Y-111000000D02*
X143000000Y-111000000D01*
X135500000Y-115500000D02*
G75*
G02X140000000Y-111000000I4500000J0D01*
G01*
X94000000Y-110002457D02*
X94000000Y-63500000D01*
X144000000Y-110000000D02*
X144000000Y-63500000D01*
X95000000Y-62500000D02*
X143000000Y-62500000D01*
M02*
