G04 #@! TF.FileFunction,Copper,L1,Top,Signal*
%FSLAX46Y46*%
G04 Gerber Fmt 4.6, Leading zero omitted, Abs format (unit mm)*
G04 Created by KiCad (PCBNEW 4.0.7) date Sat Jan 27 20:56:11 2018*
%MOMM*%
%LPD*%
G01*
G04 APERTURE LIST*
%ADD10C,0.100000*%
%ADD11C,1.500000*%
%ADD12R,1.800000X1.800000*%
%ADD13C,1.800000*%
%ADD14R,0.900000X1.200000*%
%ADD15R,1.700000X1.700000*%
%ADD16O,1.700000X1.700000*%
%ADD17C,3.000000*%
%ADD18C,1.524000*%
%ADD19R,0.700000X0.250000*%
%ADD20O,0.850000X0.300000*%
%ADD21O,0.300000X0.850000*%
%ADD22R,1.675000X1.675000*%
%ADD23R,1.700000X0.900000*%
%ADD24R,0.700000X1.200000*%
%ADD25R,1.000000X1.200000*%
%ADD26R,1.000000X0.800000*%
%ADD27R,1.000000X2.800000*%
%ADD28R,1.300000X1.900000*%
%ADD29R,0.850000X0.850000*%
%ADD30R,0.900000X1.700000*%
%ADD31R,1.320800X0.558800*%
%ADD32R,1.000000X1.600000*%
%ADD33R,1.600000X1.000000*%
%ADD34O,1.500000X2.000000*%
%ADD35R,2.000000X1.500000*%
%ADD36O,2.000000X1.500000*%
%ADD37R,0.550000X1.600000*%
%ADD38R,1.600000X0.550000*%
%ADD39R,0.800000X0.900000*%
%ADD40C,0.600000*%
%ADD41C,0.200000*%
G04 APERTURE END LIST*
D10*
D11*
X105000000Y-76500000D03*
X105000000Y-71620000D03*
D12*
X105460000Y-107500000D03*
D13*
X108000000Y-107500000D03*
D14*
X97850000Y-103500000D03*
X101150000Y-103500000D03*
D15*
X100000000Y-71500000D03*
D16*
X97460000Y-71500000D03*
D11*
X122520000Y-106530000D03*
X119980000Y-106530000D03*
X117950000Y-106530000D03*
X115410000Y-106530000D03*
D17*
X125570000Y-109200000D03*
X111850000Y-109200000D03*
D18*
X117750000Y-99500000D03*
X117750000Y-97500000D03*
X117750000Y-95500000D03*
X117750000Y-93500000D03*
X117750000Y-91500000D03*
X120250000Y-99500000D03*
X120250000Y-97500000D03*
X120250000Y-95500000D03*
X120250000Y-93500000D03*
X120250000Y-91500000D03*
D17*
X119000000Y-102500000D03*
X119000000Y-88500000D03*
D19*
X127300000Y-66300000D03*
X127300000Y-65900000D03*
X127300000Y-65500000D03*
X127300000Y-65100000D03*
X127300000Y-64700000D03*
X125700000Y-64700000D03*
X125700000Y-65100000D03*
X125700000Y-65500000D03*
X125700000Y-65900000D03*
X125700000Y-66300000D03*
D20*
X131050000Y-66000000D03*
X131050000Y-66500000D03*
X131050000Y-67000000D03*
X131050000Y-67500000D03*
X131050000Y-68000000D03*
X131050000Y-68500000D03*
X131050000Y-69000000D03*
D21*
X132000000Y-69950000D03*
X132500000Y-69950000D03*
X133000000Y-69950000D03*
X133500000Y-69950000D03*
X134000000Y-69950000D03*
X134500000Y-69950000D03*
X135000000Y-69950000D03*
D20*
X135950000Y-69000000D03*
X135950000Y-68500000D03*
X135950000Y-68000000D03*
X135950000Y-67500000D03*
X135950000Y-67000000D03*
X135950000Y-66500000D03*
X135950000Y-66000000D03*
D21*
X135000000Y-65050000D03*
X134500000Y-65050000D03*
X134000000Y-65050000D03*
X133500000Y-65050000D03*
X133000000Y-65050000D03*
X132500000Y-65050000D03*
X132000000Y-65050000D03*
D22*
X134337500Y-68337500D03*
X134337500Y-66662500D03*
X132662500Y-68337500D03*
X132662500Y-66662500D03*
D15*
X100000000Y-81790000D03*
D16*
X97460000Y-81790000D03*
X100000000Y-79250000D03*
X97460000Y-79250000D03*
X100000000Y-76710000D03*
X97460000Y-76710000D03*
D12*
X105500000Y-99500000D03*
D13*
X108040000Y-99500000D03*
D12*
X105500000Y-91500000D03*
D13*
X108040000Y-91500000D03*
D23*
X112500000Y-97950000D03*
X112500000Y-95050000D03*
X112500000Y-91950000D03*
X112500000Y-89050000D03*
D24*
X137100000Y-88400000D03*
X136000000Y-88400000D03*
X134900000Y-88400000D03*
X133800000Y-88400000D03*
X132700000Y-88400000D03*
X131600000Y-88400000D03*
X130500000Y-88400000D03*
X129400000Y-88400000D03*
X128450000Y-88400000D03*
D25*
X138650000Y-88400000D03*
X127500000Y-92700000D03*
D26*
X127500000Y-98900000D03*
D27*
X127500000Y-103050000D03*
D28*
X141000000Y-103500000D03*
D29*
X102200000Y-66500000D03*
D30*
X127950000Y-83000000D03*
X125050000Y-83000000D03*
D23*
X112500000Y-103950000D03*
X112500000Y-101050000D03*
D30*
X131550000Y-77500000D03*
X134450000Y-77500000D03*
X133550000Y-83000000D03*
X136450000Y-83000000D03*
X141450000Y-77500000D03*
X138550000Y-77500000D03*
D31*
X101999600Y-108499800D03*
X101999600Y-107560000D03*
X101999600Y-106620200D03*
X99256400Y-106620200D03*
X99256400Y-108499800D03*
D15*
X110000000Y-69500000D03*
D16*
X110000000Y-72040000D03*
X110000000Y-74580000D03*
X110000000Y-77120000D03*
X110000000Y-79660000D03*
D32*
X119500000Y-83000000D03*
X116500000Y-83000000D03*
D33*
X96500000Y-106500000D03*
X96500000Y-109500000D03*
X102000000Y-100500000D03*
X102000000Y-97500000D03*
D32*
X110000000Y-83000000D03*
X107000000Y-83000000D03*
X107000000Y-86500000D03*
X110000000Y-86500000D03*
D33*
X113250000Y-77750000D03*
X113250000Y-80750000D03*
D32*
X118000000Y-65000000D03*
X121000000Y-65000000D03*
X131500000Y-73100000D03*
X134500000Y-73100000D03*
X138500000Y-73100000D03*
X141500000Y-73100000D03*
D33*
X113250000Y-74000000D03*
X113250000Y-71000000D03*
D34*
X98460000Y-91460000D03*
D35*
X95920000Y-94000000D03*
D36*
X101000000Y-94000000D03*
D32*
X108500000Y-65000000D03*
X105500000Y-65000000D03*
X114300000Y-65000000D03*
X111300000Y-65000000D03*
D37*
X124000000Y-69500000D03*
X123200000Y-69500000D03*
X122400000Y-69500000D03*
X121600000Y-69500000D03*
X120800000Y-69500000D03*
X120000000Y-69500000D03*
X119200000Y-69500000D03*
X118400000Y-69500000D03*
D38*
X116950000Y-70950000D03*
X116950000Y-71750000D03*
X116950000Y-72550000D03*
X116950000Y-73350000D03*
X116950000Y-74150000D03*
X116950000Y-74950000D03*
X116950000Y-75750000D03*
X116950000Y-76550000D03*
D37*
X118400000Y-78000000D03*
X119200000Y-78000000D03*
X120000000Y-78000000D03*
X120800000Y-78000000D03*
X121600000Y-78000000D03*
X122400000Y-78000000D03*
X123200000Y-78000000D03*
X124000000Y-78000000D03*
D38*
X125450000Y-76550000D03*
X125450000Y-75750000D03*
X125450000Y-74950000D03*
X125450000Y-74150000D03*
X125450000Y-73350000D03*
X125450000Y-72550000D03*
X125450000Y-71750000D03*
X125450000Y-70950000D03*
D39*
X96900000Y-99700000D03*
X98250000Y-97700000D03*
X95550000Y-97700000D03*
D18*
X95750000Y-87000000D03*
X100750000Y-87000000D03*
D40*
X123582300Y-70778500D03*
X125700000Y-67058000D03*
X124178600Y-73475500D03*
X132991400Y-81275900D03*
X119005200Y-73725900D03*
X133972800Y-85595000D03*
X133034500Y-86442200D03*
X132700000Y-87337100D03*
X118400000Y-76728300D03*
X128868000Y-84084100D03*
X115314900Y-71483900D03*
X114397000Y-91889600D03*
X126689700Y-68400900D03*
X118979500Y-65979500D03*
X130148800Y-68570400D03*
X141574000Y-71747200D03*
X131379300Y-64648700D03*
X120800000Y-72621700D03*
X114543700Y-72621700D03*
X118211600Y-74176300D03*
X113960500Y-81743500D03*
D41*
X95920000Y-94000000D02*
X95920000Y-92989700D01*
X122400000Y-69500000D02*
X122400000Y-68439700D01*
X134500000Y-76339700D02*
X134450000Y-76389700D01*
X134500000Y-73100000D02*
X134500000Y-76339700D01*
X134450000Y-77500000D02*
X134450000Y-76389700D01*
X121000000Y-65000000D02*
X121000000Y-66060300D01*
X132662500Y-67000000D02*
X132662500Y-66662500D01*
X102000000Y-97500000D02*
X103060300Y-97500000D01*
X105500000Y-97500000D02*
X103060300Y-97500000D01*
X110000000Y-72040000D02*
X111110300Y-72040000D01*
X111110300Y-72040000D02*
X112150300Y-71000000D01*
X112150300Y-71000000D02*
X113250000Y-71000000D01*
X122400000Y-69500000D02*
X122400000Y-70560300D01*
X120800000Y-69500000D02*
X120800000Y-70560300D01*
X105500000Y-91500000D02*
X105500000Y-97500000D01*
X109239700Y-86600000D02*
X109239700Y-86500000D01*
X105500000Y-90339700D02*
X109239700Y-86600000D01*
X105500000Y-91500000D02*
X105500000Y-90339700D01*
X107000000Y-83000000D02*
X107000000Y-84060300D01*
X120800000Y-70560300D02*
X121600000Y-71360300D01*
X121600000Y-78000000D02*
X121600000Y-71360300D01*
X121600000Y-71360300D02*
X122400000Y-70560300D01*
X131600000Y-88400000D02*
X131600000Y-87539700D01*
X132662500Y-67000000D02*
X131050000Y-67000000D01*
X131050000Y-67000000D02*
X130364700Y-67000000D01*
X121600000Y-78000000D02*
X121600000Y-78970200D01*
X122400000Y-67460300D02*
X122400000Y-68439700D01*
X121000000Y-66060300D02*
X122400000Y-67460300D01*
X105500000Y-65000000D02*
X106260300Y-65000000D01*
X107320700Y-63939600D02*
X106260300Y-65000000D01*
X109479300Y-63939600D02*
X107320700Y-63939600D01*
X110539700Y-65000000D02*
X109479300Y-63939600D01*
X111300000Y-65000000D02*
X110539700Y-65000000D01*
X125700000Y-65100000D02*
X125700000Y-64700000D01*
X112150300Y-66910600D02*
X111300000Y-66060300D01*
X112150300Y-71000000D02*
X112150300Y-66910600D01*
X111300000Y-65000000D02*
X111300000Y-66060300D01*
X110000000Y-86500000D02*
X109239700Y-86500000D01*
X109239700Y-86300000D02*
X109239700Y-86500000D01*
X107000000Y-84060300D02*
X109239700Y-86300000D01*
X110000000Y-86500000D02*
X110760300Y-86500000D01*
X116500000Y-83000000D02*
X115739700Y-83000000D01*
X115739700Y-82714900D02*
X115739700Y-83000000D01*
X114170900Y-81146100D02*
X115739700Y-82714900D01*
X113250000Y-81146100D02*
X114170900Y-81146100D01*
X113250000Y-80750000D02*
X113250000Y-81146100D01*
X113250000Y-84010300D02*
X110760300Y-86500000D01*
X113250000Y-81146100D02*
X113250000Y-84010300D01*
X121600000Y-79060300D02*
X121600000Y-78970200D01*
X117266200Y-81939700D02*
X116500000Y-81939700D01*
X120145600Y-79060300D02*
X117266200Y-81939700D01*
X121600000Y-79060300D02*
X120145600Y-79060300D01*
X116500000Y-83000000D02*
X116500000Y-81939700D01*
X105500000Y-97500000D02*
X105500000Y-99500000D01*
X96500000Y-109500000D02*
X96500000Y-108739700D01*
X98813700Y-107560000D02*
X101999600Y-107560000D01*
X97881700Y-108492000D02*
X98813700Y-107560000D01*
X96747700Y-108492000D02*
X96500000Y-108739700D01*
X97881700Y-108492000D02*
X96747700Y-108492000D01*
X125700000Y-64700000D02*
X126310300Y-64700000D01*
X126695600Y-64314700D02*
X126310300Y-64700000D01*
X127779300Y-64314700D02*
X126695600Y-64314700D01*
X129799100Y-66334500D02*
X127779300Y-64314700D01*
X129799100Y-67000000D02*
X129799100Y-66334500D01*
X130364700Y-67000000D02*
X129799100Y-67000000D01*
X124400100Y-79060300D02*
X121600000Y-79060300D01*
X128270600Y-75189800D02*
X124400100Y-79060300D01*
X128270600Y-68528500D02*
X128270600Y-75189800D01*
X129799100Y-67000000D02*
X128270600Y-68528500D01*
X126310300Y-65900000D02*
X126310300Y-64700000D01*
X125700000Y-65900000D02*
X126310300Y-65900000D01*
X131600000Y-87084400D02*
X131600000Y-87539700D01*
X133649700Y-85034700D02*
X131600000Y-87084400D01*
X136087100Y-85034700D02*
X133649700Y-85034700D01*
X138550000Y-82571800D02*
X136087100Y-85034700D01*
X138550000Y-77500000D02*
X138550000Y-82571800D01*
X134500000Y-73100000D02*
X135260300Y-73100000D01*
X138550000Y-77500000D02*
X139260300Y-77500000D01*
X139260300Y-72176900D02*
X139260300Y-77500000D01*
X139102900Y-72019500D02*
X139260300Y-72176900D01*
X135413400Y-72019500D02*
X139102900Y-72019500D01*
X135413400Y-69413400D02*
X135413400Y-72019500D01*
X134337500Y-68337500D02*
X135413400Y-69413400D01*
X135413400Y-72946900D02*
X135260300Y-73100000D01*
X135413400Y-72019500D02*
X135413400Y-72946900D01*
X95750000Y-92819700D02*
X95750000Y-87000000D01*
X95920000Y-92989700D02*
X95750000Y-92819700D01*
X97229900Y-80360300D02*
X97460000Y-80360300D01*
X95750000Y-81840200D02*
X97229900Y-80360300D01*
X95750000Y-87000000D02*
X95750000Y-81840200D01*
X97460000Y-79250000D02*
X97460000Y-80360300D01*
X132662500Y-67000000D02*
X132662500Y-68337500D01*
X132662500Y-68337500D02*
X133239700Y-68337500D01*
X134337500Y-68337500D02*
X133788600Y-68337500D01*
X133788600Y-68337500D02*
X133239700Y-68337500D01*
X134337500Y-67788600D02*
X134337500Y-66662500D01*
X133788600Y-68337500D02*
X134337500Y-67788600D01*
X111569200Y-109480800D02*
X111850000Y-109200000D01*
X98870500Y-109480800D02*
X111569200Y-109480800D01*
X97881700Y-108492000D02*
X98870500Y-109480800D01*
X112500000Y-101050000D02*
X112500000Y-101760300D01*
X120731700Y-108318300D02*
X122520000Y-106530000D01*
X113610400Y-108318300D02*
X120731700Y-108318300D01*
X112731700Y-108318300D02*
X113610400Y-108318300D01*
X111850000Y-109200000D02*
X112731700Y-108318300D01*
X113610400Y-102870700D02*
X112500000Y-101760300D01*
X113610400Y-108318300D02*
X113610400Y-102870700D01*
X95550000Y-97700000D02*
X95467500Y-97700000D01*
X96500000Y-106500000D02*
X96500000Y-106119800D01*
X96500000Y-106119800D02*
X96500000Y-105739700D01*
X100519300Y-107179800D02*
X101078900Y-106620200D01*
X97560000Y-107179800D02*
X100519300Y-107179800D01*
X96500000Y-106119800D02*
X97560000Y-107179800D01*
X101999600Y-106620200D02*
X101078900Y-106620200D01*
X100000000Y-71500000D02*
X100000000Y-72610300D01*
X95467500Y-104707200D02*
X96500000Y-105739700D01*
X95467500Y-97700000D02*
X95467500Y-104707200D01*
X99861200Y-72610300D02*
X100000000Y-72610300D01*
X94658100Y-77813400D02*
X99861200Y-72610300D01*
X94658100Y-96890600D02*
X94658100Y-77813400D01*
X95467500Y-97700000D02*
X94658100Y-96890600D01*
X97850000Y-103500000D02*
X97139700Y-103500000D01*
X110000000Y-83000000D02*
X109239700Y-83000000D01*
X98460000Y-91460000D02*
X99470300Y-91460000D01*
X108170900Y-81931200D02*
X109239700Y-83000000D01*
X106374300Y-81931200D02*
X108170900Y-81931200D01*
X104095200Y-84210300D02*
X106374300Y-81931200D01*
X104095200Y-86835100D02*
X104095200Y-84210300D01*
X99470300Y-91460000D02*
X104095200Y-86835100D01*
X96900000Y-103260300D02*
X96900000Y-99700000D01*
X97139700Y-103500000D02*
X96900000Y-103260300D01*
X96900000Y-99700000D02*
X96900000Y-98989700D01*
X98460000Y-91460000D02*
X97449700Y-91460000D01*
X102000000Y-100500000D02*
X102000000Y-99739700D01*
X99246100Y-96985800D02*
X102000000Y-99739700D01*
X97449700Y-96985800D02*
X99246100Y-96985800D01*
X97449700Y-98440000D02*
X97449700Y-96985800D01*
X96900000Y-98989700D02*
X97449700Y-98440000D01*
X97449700Y-96985800D02*
X97449700Y-91460000D01*
X132000000Y-69950000D02*
X132000000Y-70635300D01*
X136450000Y-83000000D02*
X135739700Y-83000000D01*
X127950000Y-83000000D02*
X128660300Y-83000000D01*
X131500000Y-71135300D02*
X132000000Y-70635300D01*
X131500000Y-73100000D02*
X131500000Y-71135300D01*
X131050000Y-69685300D02*
X131050000Y-69000000D01*
X132000000Y-70635300D02*
X131050000Y-69685300D01*
X131500000Y-76339700D02*
X131500000Y-73100000D01*
X131550000Y-76389700D02*
X131500000Y-76339700D01*
X131550000Y-77500000D02*
X131550000Y-76389700D01*
X131550000Y-77500000D02*
X131550000Y-78610300D01*
X132402700Y-84164700D02*
X131238000Y-83000000D01*
X134575000Y-84164700D02*
X132402700Y-84164700D01*
X135739700Y-83000000D02*
X134575000Y-84164700D01*
X131238000Y-83000000D02*
X128660300Y-83000000D01*
X131238000Y-78922300D02*
X131238000Y-83000000D01*
X131550000Y-78610300D02*
X131238000Y-78922300D01*
X127950000Y-83000000D02*
X127239700Y-83000000D01*
X101150000Y-103500000D02*
X100794900Y-103500000D01*
X99256400Y-106620200D02*
X100177100Y-106620200D01*
X98250000Y-100955100D02*
X100794900Y-103500000D01*
X98250000Y-97700000D02*
X98250000Y-100955100D01*
X115410000Y-102269700D02*
X115410000Y-106530000D01*
X113478300Y-100338000D02*
X115410000Y-102269700D01*
X111495800Y-100338000D02*
X113478300Y-100338000D01*
X110863900Y-100969900D02*
X111495800Y-100338000D01*
X110863900Y-106296400D02*
X110863900Y-100969900D01*
X108458700Y-108701600D02*
X110863900Y-106296400D01*
X107529100Y-108701600D02*
X108458700Y-108701600D01*
X106620400Y-107792900D02*
X107529100Y-108701600D01*
X106620400Y-106445300D02*
X106620400Y-107792900D01*
X106177500Y-106002400D02*
X106620400Y-106445300D01*
X100794900Y-106002400D02*
X106177500Y-106002400D01*
X100794900Y-103500000D02*
X100794900Y-106002400D01*
X100794900Y-106002400D02*
X100177100Y-106620200D01*
X119500000Y-84774700D02*
X119605500Y-84880200D01*
X119500000Y-83000000D02*
X119500000Y-84774700D01*
X125860400Y-84880200D02*
X119605500Y-84880200D01*
X127239700Y-83500900D02*
X125860400Y-84880200D01*
X127239700Y-83000000D02*
X127239700Y-83500900D01*
X116799000Y-107919000D02*
X115410000Y-106530000D01*
X120084900Y-107919000D02*
X116799000Y-107919000D01*
X120995300Y-107008600D02*
X120084900Y-107919000D01*
X120995300Y-106068600D02*
X120995300Y-107008600D01*
X120431400Y-105504700D02*
X120995300Y-106068600D01*
X119464400Y-105504700D02*
X120431400Y-105504700D01*
X116723000Y-102763300D02*
X119464400Y-105504700D01*
X116723000Y-94851800D02*
X116723000Y-102763300D01*
X116362700Y-94491500D02*
X116723000Y-94851800D01*
X116362700Y-88123000D02*
X116362700Y-94491500D01*
X119605500Y-84880200D02*
X116362700Y-88123000D01*
X103299900Y-108499800D02*
X104299700Y-107500000D01*
X101999600Y-108499800D02*
X103299900Y-108499800D01*
X105460000Y-107500000D02*
X104299700Y-107500000D01*
X125050000Y-83000000D02*
X124339700Y-83000000D01*
X108000000Y-103324300D02*
X108000000Y-107500000D01*
X111705200Y-99619100D02*
X108000000Y-103324300D01*
X112554600Y-99619100D02*
X111705200Y-99619100D01*
X115171900Y-97001800D02*
X112554600Y-99619100D01*
X115171900Y-87214000D02*
X115171900Y-97001800D01*
X117811400Y-84574500D02*
X115171900Y-87214000D01*
X117811400Y-81921400D02*
X117811400Y-84574500D01*
X118513800Y-81219000D02*
X117811400Y-81921400D01*
X122558700Y-81219000D02*
X118513800Y-81219000D01*
X124339700Y-83000000D02*
X122558700Y-81219000D01*
X125450000Y-72550000D02*
X126510300Y-72550000D01*
X133000000Y-64627800D02*
X133000000Y-65050000D01*
X132319500Y-63947300D02*
X133000000Y-64627800D01*
X125607600Y-63947300D02*
X132319500Y-63947300D01*
X125089700Y-64465200D02*
X125607600Y-63947300D01*
X125089700Y-67593300D02*
X125089700Y-64465200D01*
X126870600Y-69374200D02*
X125089700Y-67593300D01*
X126870600Y-72189700D02*
X126870600Y-69374200D01*
X126510300Y-72550000D02*
X126870600Y-72189700D01*
X132717800Y-63582500D02*
X133500000Y-64364700D01*
X125461900Y-63582500D02*
X132717800Y-63582500D01*
X124707100Y-64337300D02*
X125461900Y-63582500D01*
X124707100Y-68155300D02*
X124707100Y-64337300D01*
X126510300Y-69958500D02*
X124707100Y-68155300D01*
X126510300Y-71750000D02*
X126510300Y-69958500D01*
X125450000Y-71750000D02*
X126510300Y-71750000D01*
X133500000Y-65050000D02*
X133500000Y-64364700D01*
X127910300Y-72750000D02*
X127910300Y-65900000D01*
X126510300Y-74150000D02*
X127910300Y-72750000D01*
X125450000Y-74150000D02*
X126510300Y-74150000D01*
X127300000Y-65900000D02*
X127910300Y-65900000D01*
X125450000Y-74950000D02*
X124389700Y-74950000D01*
X123582300Y-74142600D02*
X123582300Y-70778500D01*
X124389700Y-74950000D02*
X123582300Y-74142600D01*
X125700000Y-66300000D02*
X125700000Y-67058000D01*
X101000000Y-91739700D02*
X106239700Y-86500000D01*
X101000000Y-94000000D02*
X101000000Y-91739700D01*
X107000000Y-86500000D02*
X106239700Y-86500000D01*
X124264200Y-73475500D02*
X124389700Y-73350000D01*
X124178600Y-73475500D02*
X124264200Y-73475500D01*
X125450000Y-73350000D02*
X124389700Y-73350000D01*
X99296100Y-80360300D02*
X100000000Y-80360300D01*
X98889600Y-80766800D02*
X99296100Y-80360300D01*
X98889600Y-85139600D02*
X98889600Y-80766800D01*
X100750000Y-87000000D02*
X98889600Y-85139600D01*
X100000000Y-79250000D02*
X100000000Y-80360300D01*
X133550000Y-83000000D02*
X133550000Y-81889700D01*
X138500000Y-75767300D02*
X132991400Y-81275900D01*
X138500000Y-73100000D02*
X138500000Y-75767300D01*
X133550000Y-81834500D02*
X133550000Y-81889700D01*
X132991400Y-81275900D02*
X133550000Y-81834500D01*
X118951300Y-107558700D02*
X119980000Y-106530000D01*
X117512900Y-107558700D02*
X118951300Y-107558700D01*
X116894200Y-106940000D02*
X117512900Y-107558700D01*
X116894200Y-105728900D02*
X116894200Y-106940000D01*
X115975500Y-104810200D02*
X116894200Y-105728900D01*
X115975500Y-95123300D02*
X115975500Y-104810200D01*
X115642100Y-94789900D02*
X115975500Y-95123300D01*
X115642100Y-87253300D02*
X115642100Y-94789900D01*
X118171700Y-84723700D02*
X115642100Y-87253300D01*
X118171700Y-82070600D02*
X118171700Y-84723700D01*
X118663000Y-81579300D02*
X118171700Y-82070600D01*
X121897100Y-81579300D02*
X118663000Y-81579300D01*
X124477400Y-84159600D02*
X121897100Y-81579300D01*
X125562000Y-84159600D02*
X124477400Y-84159600D01*
X125764800Y-83956800D02*
X125562000Y-84159600D01*
X125764800Y-78371300D02*
X125764800Y-83956800D01*
X128631000Y-75505100D02*
X125764800Y-78371300D01*
X128631000Y-68701300D02*
X128631000Y-75505100D01*
X129832300Y-67500000D02*
X128631000Y-68701300D01*
X131050000Y-67500000D02*
X129832300Y-67500000D01*
X117950000Y-106020600D02*
X117950000Y-106530000D01*
X116355100Y-104425700D02*
X117950000Y-106020600D01*
X116355100Y-94993400D02*
X116355100Y-104425700D01*
X116002400Y-94640700D02*
X116355100Y-94993400D01*
X116002400Y-87402500D02*
X116002400Y-94640700D01*
X118681200Y-84723700D02*
X116002400Y-87402500D01*
X118681200Y-82082900D02*
X118681200Y-84723700D01*
X118824400Y-81939700D02*
X118681200Y-82082900D01*
X121365800Y-81939700D02*
X118824400Y-81939700D01*
X123946000Y-84519900D02*
X121365800Y-81939700D01*
X125711200Y-84519900D02*
X123946000Y-84519900D01*
X126125100Y-84106000D02*
X125711200Y-84519900D01*
X126125100Y-78829200D02*
X126125100Y-84106000D01*
X129194400Y-75759900D02*
X126125100Y-78829200D01*
X129194400Y-68670200D02*
X129194400Y-75759900D01*
X129864600Y-68000000D02*
X129194400Y-68670200D01*
X131050000Y-68000000D02*
X129864600Y-68000000D01*
X116950000Y-73350000D02*
X115889700Y-73350000D01*
X110000000Y-74580000D02*
X111110300Y-74580000D01*
X114479300Y-74760400D02*
X115889700Y-73350000D01*
X111290700Y-74760400D02*
X114479300Y-74760400D01*
X111110300Y-74580000D02*
X111290700Y-74760400D01*
X113109500Y-75120800D02*
X111110300Y-77120000D01*
X114918900Y-75120800D02*
X113109500Y-75120800D01*
X115889700Y-74150000D02*
X114918900Y-75120800D01*
X116950000Y-74150000D02*
X115889700Y-74150000D01*
X110000000Y-77120000D02*
X111110300Y-77120000D01*
X119005200Y-71944900D02*
X119005200Y-73725900D01*
X118010300Y-70950000D02*
X119005200Y-71944900D01*
X135917500Y-87539700D02*
X136000000Y-87539700D01*
X133972800Y-85595000D02*
X135917500Y-87539700D01*
X136000000Y-88400000D02*
X136000000Y-87539700D01*
X116950000Y-70950000D02*
X118010300Y-70950000D01*
X100000000Y-76710000D02*
X101110300Y-76710000D01*
X113029000Y-75750000D02*
X116950000Y-75750000D01*
X110538500Y-78240500D02*
X113029000Y-75750000D01*
X102640800Y-78240500D02*
X110538500Y-78240500D01*
X101110300Y-76710000D02*
X102640800Y-78240500D01*
X133802500Y-86442200D02*
X134900000Y-87539700D01*
X133034500Y-86442200D02*
X133802500Y-86442200D01*
X134900000Y-88400000D02*
X134900000Y-87539700D01*
X132700000Y-88400000D02*
X132700000Y-87539700D01*
X132700000Y-87539700D02*
X132700000Y-87337100D01*
X118400000Y-78000000D02*
X118400000Y-76728300D01*
X100000000Y-81790000D02*
X101110300Y-81790000D01*
X112777500Y-76550000D02*
X116950000Y-76550000D01*
X111377600Y-77949900D02*
X112777500Y-76550000D01*
X111377600Y-79898900D02*
X111377600Y-77949900D01*
X110499200Y-80777300D02*
X111377600Y-79898900D01*
X102123000Y-80777300D02*
X110499200Y-80777300D01*
X101110300Y-81790000D02*
X102123000Y-80777300D01*
X130500000Y-85716100D02*
X130500000Y-88400000D01*
X128868000Y-84084100D02*
X130500000Y-85716100D01*
X141450000Y-77500000D02*
X140739700Y-77500000D01*
X140739700Y-69926500D02*
X140739700Y-77500000D01*
X134035300Y-63222100D02*
X140739700Y-69926500D01*
X125189400Y-63222100D02*
X134035300Y-63222100D01*
X124346700Y-64064800D02*
X125189400Y-63222100D01*
X124346700Y-68379000D02*
X124346700Y-64064800D01*
X125450000Y-69482300D02*
X124346700Y-68379000D01*
X125450000Y-70950000D02*
X125450000Y-69482300D01*
X118819900Y-92430100D02*
X117750000Y-93500000D01*
X118819900Y-91454800D02*
X118819900Y-92430100D01*
X120121200Y-90153500D02*
X118819900Y-91454800D01*
X136707000Y-90153500D02*
X120121200Y-90153500D01*
X137889600Y-88970900D02*
X136707000Y-90153500D01*
X137889600Y-83741900D02*
X137889600Y-88970900D01*
X140739700Y-80891800D02*
X137889600Y-83741900D01*
X140739700Y-77500000D02*
X140739700Y-80891800D01*
X109590000Y-97950000D02*
X108040000Y-99500000D01*
X112500000Y-97950000D02*
X109590000Y-97950000D01*
X110939700Y-91500000D02*
X108040000Y-91500000D01*
X111389700Y-91950000D02*
X110939700Y-91500000D01*
X112500000Y-91950000D02*
X111389700Y-91950000D01*
X116950000Y-72550000D02*
X115889700Y-72550000D01*
X115889700Y-72058700D02*
X115314900Y-71483900D01*
X115889700Y-72550000D02*
X115889700Y-72058700D01*
X114397000Y-92442700D02*
X114397000Y-91889600D01*
X112500000Y-94339700D02*
X114397000Y-92442700D01*
X112500000Y-95050000D02*
X112500000Y-94339700D01*
X120000000Y-69500000D02*
X120000000Y-68439700D01*
X121600000Y-69500000D02*
X121600000Y-68529800D01*
X121509900Y-68439700D02*
X120000000Y-68439700D01*
X121600000Y-68529800D02*
X121509900Y-68439700D01*
X97460000Y-76710000D02*
X97460000Y-75599700D01*
X127300000Y-66300000D02*
X126689700Y-66300000D01*
X110000000Y-69500000D02*
X108889700Y-69500000D01*
X98782300Y-75599700D02*
X97460000Y-75599700D01*
X103166300Y-71215700D02*
X98782300Y-75599700D01*
X103166300Y-65080100D02*
X103166300Y-71215700D01*
X105083200Y-63163200D02*
X103166300Y-65080100D01*
X114448000Y-63163200D02*
X105083200Y-63163200D01*
X119724500Y-68439700D02*
X114448000Y-63163200D01*
X120000000Y-68439700D02*
X119724500Y-68439700D01*
X105723100Y-72666600D02*
X108889700Y-69500000D01*
X104617200Y-72666600D02*
X105723100Y-72666600D01*
X103166300Y-71215700D02*
X104617200Y-72666600D01*
X119200000Y-77559900D02*
X119200000Y-76939700D01*
X119200000Y-77559900D02*
X119200000Y-78000000D01*
X113800000Y-79060300D02*
X113250000Y-78510300D01*
X119200000Y-79060300D02*
X113800000Y-79060300D01*
X119200000Y-78000000D02*
X119200000Y-79060300D01*
X113250000Y-77750000D02*
X113250000Y-78510300D01*
X120000000Y-76139700D02*
X120000000Y-69500000D01*
X119200000Y-76939700D02*
X120000000Y-76139700D01*
X126689700Y-66300000D02*
X126689700Y-68400900D01*
X126423700Y-89260300D02*
X133800000Y-89260300D01*
X123900500Y-86737100D02*
X126423700Y-89260300D01*
X118258300Y-86737100D02*
X123900500Y-86737100D01*
X116723100Y-88272300D02*
X118258300Y-86737100D01*
X116723100Y-94310900D02*
X116723100Y-88272300D01*
X117750000Y-95337800D02*
X116723100Y-94310900D01*
X117750000Y-95500000D02*
X117750000Y-95337800D01*
X133800000Y-88400000D02*
X133800000Y-89260300D01*
X131050000Y-68500000D02*
X130364700Y-68500000D01*
X118000000Y-65000000D02*
X118760300Y-65000000D01*
X118760300Y-65760300D02*
X118979500Y-65979500D01*
X118760300Y-65000000D02*
X118760300Y-65760300D01*
X130219200Y-68500000D02*
X130148800Y-68570400D01*
X130364700Y-68500000D02*
X130219200Y-68500000D01*
X141574000Y-71965700D02*
X141574000Y-71747200D01*
X141500000Y-72039700D02*
X141574000Y-71965700D01*
X132000000Y-65050000D02*
X132000000Y-64364700D01*
X141500000Y-73100000D02*
X141500000Y-72039700D01*
X131663300Y-64364700D02*
X131379300Y-64648700D01*
X132000000Y-64364700D02*
X131663300Y-64364700D01*
X113250000Y-74000000D02*
X114310300Y-74000000D01*
X114543700Y-73766600D02*
X114543700Y-72621700D01*
X114310300Y-74000000D02*
X114543700Y-73766600D01*
X120800000Y-78000000D02*
X120800000Y-72621700D01*
X108500000Y-65000000D02*
X108500000Y-66060300D01*
X108700400Y-66060300D02*
X108500000Y-66060300D01*
X111119900Y-68479800D02*
X108700400Y-66060300D01*
X111119900Y-70457600D02*
X111119900Y-68479800D01*
X110917900Y-70659600D02*
X111119900Y-70457600D01*
X109758500Y-70659600D02*
X110917900Y-70659600D01*
X108876300Y-71541800D02*
X109758500Y-70659600D01*
X108876300Y-73167400D02*
X108876300Y-71541800D01*
X112833700Y-73167400D02*
X108876300Y-73167400D01*
X116501100Y-69500000D02*
X112833700Y-73167400D01*
X118400000Y-69500000D02*
X116501100Y-69500000D01*
X108332600Y-73167400D02*
X105000000Y-76500000D01*
X108876300Y-73167400D02*
X108332600Y-73167400D01*
X114300000Y-65000000D02*
X113539700Y-65000000D01*
X112096500Y-63556800D02*
X113539700Y-65000000D01*
X105239400Y-63556800D02*
X112096500Y-63556800D01*
X104729900Y-64066300D02*
X105239400Y-63556800D01*
X104729900Y-71349900D02*
X104729900Y-64066300D01*
X105000000Y-71620000D02*
X104729900Y-71349900D01*
X118500000Y-68439700D02*
X115060300Y-65000000D01*
X119200000Y-68439700D02*
X118500000Y-68439700D01*
X119200000Y-69500000D02*
X119200000Y-68439700D01*
X114300000Y-65000000D02*
X115060300Y-65000000D01*
X112500000Y-89050000D02*
X112500000Y-88339700D01*
X113960500Y-86879200D02*
X113960500Y-81743500D01*
X112500000Y-88339700D02*
X113960500Y-86879200D01*
X116950000Y-71750000D02*
X118010300Y-71750000D01*
X118010300Y-73975000D02*
X118211600Y-74176300D01*
X118010300Y-71750000D02*
X118010300Y-73975000D01*
X99256400Y-108499800D02*
X100177100Y-108499800D01*
X112500000Y-103950000D02*
X112500000Y-104660300D01*
X112500000Y-105169800D02*
X112500000Y-104660300D01*
X108586000Y-109083800D02*
X112500000Y-105169800D01*
X100761100Y-109083800D02*
X108586000Y-109083800D01*
X100177100Y-108499800D02*
X100761100Y-109083800D01*
M02*
