G04 #@! TF.FileFunction,Legend,Bot*
%FSLAX46Y46*%
G04 Gerber Fmt 4.6, Leading zero omitted, Abs format (unit mm)*
G04 Created by KiCad (PCBNEW 4.0.7) date Sat Jan 27 20:56:11 2018*
%MOMM*%
%LPD*%
G01*
G04 APERTURE LIST*
%ADD10C,0.100000*%
%ADD11C,0.300000*%
G04 APERTURE END LIST*
D10*
D11*
X138964285Y-94975000D02*
X139107142Y-94903571D01*
X139321428Y-94903571D01*
X139535713Y-94975000D01*
X139678571Y-95117857D01*
X139749999Y-95260714D01*
X139821428Y-95546429D01*
X139821428Y-95760714D01*
X139749999Y-96046429D01*
X139678571Y-96189286D01*
X139535713Y-96332143D01*
X139321428Y-96403571D01*
X139178571Y-96403571D01*
X138964285Y-96332143D01*
X138892856Y-96260714D01*
X138892856Y-95760714D01*
X139178571Y-95760714D01*
X138249999Y-96403571D02*
X138249999Y-94903571D01*
X137678571Y-94903571D01*
X137535713Y-94975000D01*
X137464285Y-95046429D01*
X137392856Y-95189286D01*
X137392856Y-95403571D01*
X137464285Y-95546429D01*
X137535713Y-95617857D01*
X137678571Y-95689286D01*
X138249999Y-95689286D01*
X136821428Y-96332143D02*
X136607142Y-96403571D01*
X136249999Y-96403571D01*
X136107142Y-96332143D01*
X136035713Y-96260714D01*
X135964285Y-96117857D01*
X135964285Y-95975000D01*
X136035713Y-95832143D01*
X136107142Y-95760714D01*
X136249999Y-95689286D01*
X136535713Y-95617857D01*
X136678571Y-95546429D01*
X136749999Y-95475000D01*
X136821428Y-95332143D01*
X136821428Y-95189286D01*
X136749999Y-95046429D01*
X136678571Y-94975000D01*
X136535713Y-94903571D01*
X136178571Y-94903571D01*
X135964285Y-94975000D01*
X134392857Y-94903571D02*
X133535714Y-94903571D01*
X133964285Y-96403571D02*
X133964285Y-94903571D01*
X133035714Y-96403571D02*
X133035714Y-95403571D01*
X133035714Y-95689286D02*
X132964286Y-95546429D01*
X132892857Y-95475000D01*
X132750000Y-95403571D01*
X132607143Y-95403571D01*
X131464286Y-96403571D02*
X131464286Y-95617857D01*
X131535715Y-95475000D01*
X131678572Y-95403571D01*
X131964286Y-95403571D01*
X132107143Y-95475000D01*
X131464286Y-96332143D02*
X131607143Y-96403571D01*
X131964286Y-96403571D01*
X132107143Y-96332143D01*
X132178572Y-96189286D01*
X132178572Y-96046429D01*
X132107143Y-95903571D01*
X131964286Y-95832143D01*
X131607143Y-95832143D01*
X131464286Y-95760714D01*
X130107143Y-96332143D02*
X130250000Y-96403571D01*
X130535714Y-96403571D01*
X130678572Y-96332143D01*
X130750000Y-96260714D01*
X130821429Y-96117857D01*
X130821429Y-95689286D01*
X130750000Y-95546429D01*
X130678572Y-95475000D01*
X130535714Y-95403571D01*
X130250000Y-95403571D01*
X130107143Y-95475000D01*
X129464286Y-96403571D02*
X129464286Y-94903571D01*
X129321429Y-95832143D02*
X128892858Y-96403571D01*
X128892858Y-95403571D02*
X129464286Y-95975000D01*
X127678572Y-96332143D02*
X127821429Y-96403571D01*
X128107143Y-96403571D01*
X128250000Y-96332143D01*
X128321429Y-96189286D01*
X128321429Y-95617857D01*
X128250000Y-95475000D01*
X128107143Y-95403571D01*
X127821429Y-95403571D01*
X127678572Y-95475000D01*
X127607143Y-95617857D01*
X127607143Y-95760714D01*
X128321429Y-95903571D01*
X126964286Y-96403571D02*
X126964286Y-95403571D01*
X126964286Y-95689286D02*
X126892858Y-95546429D01*
X126821429Y-95475000D01*
X126678572Y-95403571D01*
X126535715Y-95403571D01*
X135749999Y-97953571D02*
X135392856Y-98953571D01*
X135035714Y-97953571D01*
X134464285Y-98810714D02*
X134392857Y-98882143D01*
X134464285Y-98953571D01*
X134535714Y-98882143D01*
X134464285Y-98810714D01*
X134464285Y-98953571D01*
X132964285Y-98953571D02*
X133821428Y-98953571D01*
X133392856Y-98953571D02*
X133392856Y-97453571D01*
X133535713Y-97667857D01*
X133678571Y-97810714D01*
X133821428Y-97882143D01*
X132321428Y-98810714D02*
X132250000Y-98882143D01*
X132321428Y-98953571D01*
X132392857Y-98882143D01*
X132321428Y-98810714D01*
X132321428Y-98953571D01*
X131321428Y-97453571D02*
X131178571Y-97453571D01*
X131035714Y-97525000D01*
X130964285Y-97596429D01*
X130892856Y-97739286D01*
X130821428Y-98025000D01*
X130821428Y-98382143D01*
X130892856Y-98667857D01*
X130964285Y-98810714D01*
X131035714Y-98882143D01*
X131178571Y-98953571D01*
X131321428Y-98953571D01*
X131464285Y-98882143D01*
X131535714Y-98810714D01*
X131607142Y-98667857D01*
X131678571Y-98382143D01*
X131678571Y-98025000D01*
X131607142Y-97739286D01*
X131535714Y-97596429D01*
X131464285Y-97525000D01*
X131321428Y-97453571D01*
M02*
