G04 #@! TF.FileFunction,Paste,Top*
%FSLAX46Y46*%
G04 Gerber Fmt 4.6, Leading zero omitted, Abs format (unit mm)*
G04 Created by KiCad (PCBNEW 4.0.7) date Sat Jan 27 20:56:11 2018*
%MOMM*%
%LPD*%
G01*
G04 APERTURE LIST*
%ADD10C,0.100000*%
%ADD11R,0.810000X1.080000*%
%ADD12R,0.630000X0.225000*%
%ADD13O,0.765000X0.270000*%
%ADD14O,0.270000X0.765000*%
%ADD15R,1.005000X1.005000*%
%ADD16R,1.530000X0.810000*%
%ADD17R,0.630000X1.080000*%
%ADD18R,0.900000X1.080000*%
%ADD19R,0.900000X0.720000*%
%ADD20R,0.900000X2.520000*%
%ADD21R,1.170000X1.710000*%
%ADD22R,0.810000X1.530000*%
%ADD23R,1.188720X0.502920*%
%ADD24R,0.900000X1.440000*%
%ADD25R,1.440000X0.900000*%
%ADD26R,0.495000X1.440000*%
%ADD27R,1.440000X0.495000*%
%ADD28R,0.720000X0.810000*%
G04 APERTURE END LIST*
D10*
D11*
X97850000Y-103500000D03*
X101150000Y-103500000D03*
D12*
X127300000Y-66300000D03*
X127300000Y-65900000D03*
X127300000Y-65500000D03*
X127300000Y-65100000D03*
X127300000Y-64700000D03*
X125700000Y-64700000D03*
X125700000Y-65100000D03*
X125700000Y-65500000D03*
X125700000Y-65900000D03*
X125700000Y-66300000D03*
D13*
X131050000Y-66000000D03*
X131050000Y-66500000D03*
X131050000Y-67000000D03*
X131050000Y-67500000D03*
X131050000Y-68000000D03*
X131050000Y-68500000D03*
X131050000Y-69000000D03*
D14*
X132000000Y-69950000D03*
X132500000Y-69950000D03*
X133000000Y-69950000D03*
X133500000Y-69950000D03*
X134000000Y-69950000D03*
X134500000Y-69950000D03*
X135000000Y-69950000D03*
D13*
X135950000Y-69000000D03*
X135950000Y-68500000D03*
X135950000Y-68000000D03*
X135950000Y-67500000D03*
X135950000Y-67000000D03*
X135950000Y-66500000D03*
X135950000Y-66000000D03*
D14*
X135000000Y-65050000D03*
X134500000Y-65050000D03*
X134000000Y-65050000D03*
X133500000Y-65050000D03*
X133000000Y-65050000D03*
X132500000Y-65050000D03*
X132000000Y-65050000D03*
D15*
X134337500Y-68337500D03*
X134337500Y-66662500D03*
X132662500Y-68337500D03*
X132662500Y-66662500D03*
D16*
X112500000Y-97950000D03*
X112500000Y-95050000D03*
X112500000Y-91950000D03*
X112500000Y-89050000D03*
D17*
X137100000Y-88400000D03*
X136000000Y-88400000D03*
X134900000Y-88400000D03*
X133800000Y-88400000D03*
X132700000Y-88400000D03*
X131600000Y-88400000D03*
X130500000Y-88400000D03*
X129400000Y-88400000D03*
X128450000Y-88400000D03*
D18*
X138650000Y-88400000D03*
X127500000Y-92700000D03*
D19*
X127500000Y-98900000D03*
D20*
X127500000Y-103050000D03*
D21*
X141000000Y-103500000D03*
D22*
X127950000Y-83000000D03*
X125050000Y-83000000D03*
D16*
X112500000Y-103950000D03*
X112500000Y-101050000D03*
D22*
X131550000Y-77500000D03*
X134450000Y-77500000D03*
X133550000Y-83000000D03*
X136450000Y-83000000D03*
X141450000Y-77500000D03*
X138550000Y-77500000D03*
D23*
X101999600Y-108499800D03*
X101999600Y-107560000D03*
X101999600Y-106620200D03*
X99256400Y-106620200D03*
X99256400Y-108499800D03*
D24*
X119500000Y-83000000D03*
X116500000Y-83000000D03*
D25*
X96500000Y-106500000D03*
X96500000Y-109500000D03*
X102000000Y-100500000D03*
X102000000Y-97500000D03*
D24*
X110000000Y-83000000D03*
X107000000Y-83000000D03*
X107000000Y-86500000D03*
X110000000Y-86500000D03*
D25*
X113250000Y-77750000D03*
X113250000Y-80750000D03*
D24*
X118000000Y-65000000D03*
X121000000Y-65000000D03*
X131500000Y-73100000D03*
X134500000Y-73100000D03*
X138500000Y-73100000D03*
X141500000Y-73100000D03*
D25*
X113250000Y-74000000D03*
X113250000Y-71000000D03*
D24*
X108500000Y-65000000D03*
X105500000Y-65000000D03*
X114300000Y-65000000D03*
X111300000Y-65000000D03*
D26*
X124000000Y-69500000D03*
X123200000Y-69500000D03*
X122400000Y-69500000D03*
X121600000Y-69500000D03*
X120800000Y-69500000D03*
X120000000Y-69500000D03*
X119200000Y-69500000D03*
X118400000Y-69500000D03*
D27*
X116950000Y-70950000D03*
X116950000Y-71750000D03*
X116950000Y-72550000D03*
X116950000Y-73350000D03*
X116950000Y-74150000D03*
X116950000Y-74950000D03*
X116950000Y-75750000D03*
X116950000Y-76550000D03*
D26*
X118400000Y-78000000D03*
X119200000Y-78000000D03*
X120000000Y-78000000D03*
X120800000Y-78000000D03*
X121600000Y-78000000D03*
X122400000Y-78000000D03*
X123200000Y-78000000D03*
X124000000Y-78000000D03*
D27*
X125450000Y-76550000D03*
X125450000Y-75750000D03*
X125450000Y-74950000D03*
X125450000Y-74150000D03*
X125450000Y-73350000D03*
X125450000Y-72550000D03*
X125450000Y-71750000D03*
X125450000Y-70950000D03*
D28*
X96900000Y-99700000D03*
X98250000Y-97700000D03*
X95550000Y-97700000D03*
M02*
